G75*
%MOIN*%
%OFA0B0*%
%FSLAX25Y25*%
%IPPOS*%
%LPD*%
%AMOC8*
5,1,8,0,0,1.08239X$1,22.5*
%
%ADD10R,0.00787X0.00787*%
%ADD11C,0.00400*%
%ADD12C,0.00787*%
%ADD13C,0.01575*%
%ADD14C,0.00500*%
%ADD15C,0.00600*%
%ADD16C,0.00000*%
%ADD17C,0.00300*%
%ADD18C,0.00800*%
%ADD19C,0.03000*%
%ADD20R,0.03000X0.02000*%
%ADD21R,0.03000X0.04000*%
%ADD22C,0.00394*%
%ADD23C,0.00200*%
D10*
X0052217Y0136246D03*
X0148280Y0133096D03*
X0149067Y0140970D03*
X0153004Y0120891D03*
D11*
X0154536Y0121635D02*
X0154536Y0122913D01*
X0154537Y0122913D02*
X0154535Y0122982D01*
X0154530Y0123051D01*
X0154520Y0123120D01*
X0154507Y0123188D01*
X0154490Y0123255D01*
X0154470Y0123321D01*
X0154446Y0123386D01*
X0154419Y0123450D01*
X0154388Y0123512D01*
X0154354Y0123572D01*
X0154317Y0123630D01*
X0154276Y0123686D01*
X0154233Y0123740D01*
X0154187Y0123792D01*
X0154138Y0123841D01*
X0154086Y0123887D01*
X0154032Y0123930D01*
X0153976Y0123971D01*
X0153918Y0124008D01*
X0153858Y0124042D01*
X0153796Y0124073D01*
X0153732Y0124100D01*
X0153667Y0124124D01*
X0153601Y0124144D01*
X0153534Y0124161D01*
X0153466Y0124174D01*
X0153397Y0124184D01*
X0153328Y0124189D01*
X0153259Y0124191D01*
X0151214Y0124191D01*
X0151145Y0124189D01*
X0151076Y0124184D01*
X0151007Y0124174D01*
X0150939Y0124161D01*
X0150872Y0124144D01*
X0150806Y0124124D01*
X0150741Y0124100D01*
X0150677Y0124073D01*
X0150615Y0124042D01*
X0150555Y0124008D01*
X0150497Y0123971D01*
X0150441Y0123930D01*
X0150387Y0123887D01*
X0150335Y0123841D01*
X0150286Y0123792D01*
X0150240Y0123740D01*
X0150197Y0123686D01*
X0150156Y0123630D01*
X0150119Y0123572D01*
X0150085Y0123512D01*
X0150054Y0123450D01*
X0150027Y0123386D01*
X0150003Y0123321D01*
X0149983Y0123255D01*
X0149966Y0123188D01*
X0149953Y0123120D01*
X0149943Y0123051D01*
X0149938Y0122982D01*
X0149936Y0122913D01*
X0149936Y0121635D01*
X0154536Y0121635D01*
X0154536Y0119789D02*
X0154536Y0117744D01*
X0149936Y0117744D01*
X0149936Y0119789D01*
X0151981Y0119278D02*
X0151981Y0117744D01*
X0154536Y0115889D02*
X0154536Y0113844D01*
X0149936Y0113844D01*
X0146662Y0116952D02*
X0142062Y0116952D01*
X0142062Y0118230D01*
X0142064Y0118300D01*
X0142070Y0118371D01*
X0142079Y0118440D01*
X0142093Y0118509D01*
X0142110Y0118578D01*
X0142131Y0118645D01*
X0142156Y0118711D01*
X0142184Y0118775D01*
X0142216Y0118838D01*
X0142251Y0118899D01*
X0142290Y0118958D01*
X0142331Y0119015D01*
X0142376Y0119069D01*
X0142424Y0119121D01*
X0142474Y0119170D01*
X0142528Y0119217D01*
X0142583Y0119260D01*
X0142641Y0119300D01*
X0142701Y0119337D01*
X0142763Y0119370D01*
X0142827Y0119400D01*
X0142892Y0119427D01*
X0142958Y0119450D01*
X0143026Y0119469D01*
X0143095Y0119484D01*
X0143164Y0119496D01*
X0143234Y0119504D01*
X0143305Y0119508D01*
X0143375Y0119508D01*
X0143446Y0119504D01*
X0143516Y0119496D01*
X0143585Y0119484D01*
X0143654Y0119469D01*
X0143722Y0119450D01*
X0143788Y0119427D01*
X0143853Y0119400D01*
X0143917Y0119370D01*
X0143979Y0119337D01*
X0144039Y0119300D01*
X0144097Y0119260D01*
X0144152Y0119217D01*
X0144206Y0119170D01*
X0144256Y0119121D01*
X0144304Y0119069D01*
X0144349Y0119015D01*
X0144390Y0118958D01*
X0144429Y0118899D01*
X0144464Y0118838D01*
X0144496Y0118775D01*
X0144524Y0118711D01*
X0144549Y0118645D01*
X0144570Y0118578D01*
X0144587Y0118509D01*
X0144601Y0118440D01*
X0144610Y0118371D01*
X0144616Y0118300D01*
X0144618Y0118230D01*
X0144618Y0116952D01*
X0144618Y0118486D02*
X0146662Y0119508D01*
X0146662Y0121423D02*
X0146662Y0122957D01*
X0146660Y0123019D01*
X0146655Y0123080D01*
X0146645Y0123141D01*
X0146632Y0123202D01*
X0146616Y0123261D01*
X0146596Y0123319D01*
X0146572Y0123376D01*
X0146545Y0123432D01*
X0146515Y0123486D01*
X0146481Y0123538D01*
X0146445Y0123587D01*
X0146405Y0123635D01*
X0146363Y0123680D01*
X0146318Y0123722D01*
X0146270Y0123762D01*
X0146221Y0123798D01*
X0146169Y0123832D01*
X0146115Y0123862D01*
X0146059Y0123889D01*
X0146002Y0123913D01*
X0145944Y0123933D01*
X0145885Y0123949D01*
X0145824Y0123962D01*
X0145763Y0123972D01*
X0145702Y0123977D01*
X0145640Y0123979D01*
X0145129Y0123979D01*
X0145067Y0123977D01*
X0145006Y0123972D01*
X0144945Y0123962D01*
X0144884Y0123949D01*
X0144825Y0123933D01*
X0144767Y0123913D01*
X0144710Y0123889D01*
X0144654Y0123862D01*
X0144600Y0123832D01*
X0144548Y0123798D01*
X0144499Y0123762D01*
X0144451Y0123722D01*
X0144406Y0123680D01*
X0144364Y0123635D01*
X0144324Y0123587D01*
X0144288Y0123538D01*
X0144254Y0123486D01*
X0144224Y0123432D01*
X0144197Y0123376D01*
X0144173Y0123319D01*
X0144153Y0123261D01*
X0144137Y0123202D01*
X0144124Y0123141D01*
X0144114Y0123080D01*
X0144109Y0123019D01*
X0144107Y0122957D01*
X0144107Y0121423D01*
X0142062Y0121423D01*
X0142062Y0123979D01*
X0138355Y0121978D02*
X0138355Y0120700D01*
X0138356Y0121978D02*
X0138354Y0122048D01*
X0138348Y0122119D01*
X0138339Y0122188D01*
X0138325Y0122257D01*
X0138308Y0122326D01*
X0138287Y0122393D01*
X0138262Y0122459D01*
X0138234Y0122523D01*
X0138202Y0122586D01*
X0138167Y0122647D01*
X0138128Y0122706D01*
X0138087Y0122763D01*
X0138042Y0122817D01*
X0137994Y0122869D01*
X0137944Y0122918D01*
X0137890Y0122965D01*
X0137835Y0123008D01*
X0137777Y0123048D01*
X0137717Y0123085D01*
X0137655Y0123118D01*
X0137591Y0123148D01*
X0137526Y0123175D01*
X0137460Y0123198D01*
X0137392Y0123217D01*
X0137323Y0123232D01*
X0137254Y0123244D01*
X0137184Y0123252D01*
X0137113Y0123256D01*
X0137043Y0123256D01*
X0136972Y0123252D01*
X0136902Y0123244D01*
X0136833Y0123232D01*
X0136764Y0123217D01*
X0136696Y0123198D01*
X0136630Y0123175D01*
X0136565Y0123148D01*
X0136501Y0123118D01*
X0136439Y0123085D01*
X0136379Y0123048D01*
X0136321Y0123008D01*
X0136266Y0122965D01*
X0136212Y0122918D01*
X0136162Y0122869D01*
X0136114Y0122817D01*
X0136069Y0122763D01*
X0136028Y0122706D01*
X0135989Y0122647D01*
X0135954Y0122586D01*
X0135922Y0122523D01*
X0135894Y0122459D01*
X0135869Y0122393D01*
X0135848Y0122326D01*
X0135831Y0122257D01*
X0135817Y0122188D01*
X0135808Y0122119D01*
X0135802Y0122048D01*
X0135800Y0121978D01*
X0135800Y0122233D02*
X0135800Y0121211D01*
X0135800Y0122233D02*
X0135798Y0122296D01*
X0135792Y0122359D01*
X0135783Y0122421D01*
X0135769Y0122482D01*
X0135752Y0122543D01*
X0135731Y0122602D01*
X0135706Y0122660D01*
X0135678Y0122717D01*
X0135647Y0122771D01*
X0135612Y0122823D01*
X0135574Y0122874D01*
X0135533Y0122922D01*
X0135489Y0122967D01*
X0135443Y0123009D01*
X0135394Y0123049D01*
X0135343Y0123085D01*
X0135289Y0123118D01*
X0135234Y0123148D01*
X0135176Y0123174D01*
X0135118Y0123197D01*
X0135058Y0123216D01*
X0134997Y0123231D01*
X0134935Y0123243D01*
X0134872Y0123251D01*
X0134809Y0123255D01*
X0134747Y0123255D01*
X0134684Y0123251D01*
X0134621Y0123243D01*
X0134559Y0123231D01*
X0134498Y0123216D01*
X0134438Y0123197D01*
X0134380Y0123174D01*
X0134322Y0123148D01*
X0134267Y0123118D01*
X0134213Y0123085D01*
X0134162Y0123049D01*
X0134113Y0123009D01*
X0134067Y0122967D01*
X0134023Y0122922D01*
X0133982Y0122874D01*
X0133944Y0122823D01*
X0133909Y0122771D01*
X0133878Y0122717D01*
X0133850Y0122660D01*
X0133825Y0122602D01*
X0133804Y0122543D01*
X0133787Y0122482D01*
X0133773Y0122421D01*
X0133764Y0122359D01*
X0133758Y0122296D01*
X0133756Y0122233D01*
X0133755Y0122233D02*
X0133755Y0120700D01*
X0133755Y0117507D02*
X0133755Y0116229D01*
X0138355Y0116229D01*
X0136311Y0116229D02*
X0136311Y0117507D01*
X0136311Y0117762D02*
X0138355Y0118785D01*
X0136311Y0117507D02*
X0136309Y0117577D01*
X0136303Y0117648D01*
X0136294Y0117717D01*
X0136280Y0117786D01*
X0136263Y0117855D01*
X0136242Y0117922D01*
X0136217Y0117988D01*
X0136189Y0118052D01*
X0136157Y0118115D01*
X0136122Y0118176D01*
X0136083Y0118235D01*
X0136042Y0118292D01*
X0135997Y0118346D01*
X0135949Y0118398D01*
X0135899Y0118447D01*
X0135845Y0118494D01*
X0135790Y0118537D01*
X0135732Y0118577D01*
X0135672Y0118614D01*
X0135610Y0118647D01*
X0135546Y0118677D01*
X0135481Y0118704D01*
X0135415Y0118727D01*
X0135347Y0118746D01*
X0135278Y0118761D01*
X0135209Y0118773D01*
X0135139Y0118781D01*
X0135068Y0118785D01*
X0134998Y0118785D01*
X0134927Y0118781D01*
X0134857Y0118773D01*
X0134788Y0118761D01*
X0134719Y0118746D01*
X0134651Y0118727D01*
X0134585Y0118704D01*
X0134520Y0118677D01*
X0134456Y0118647D01*
X0134394Y0118614D01*
X0134334Y0118577D01*
X0134276Y0118537D01*
X0134221Y0118494D01*
X0134167Y0118447D01*
X0134117Y0118398D01*
X0134069Y0118346D01*
X0134024Y0118292D01*
X0133983Y0118235D01*
X0133944Y0118176D01*
X0133909Y0118115D01*
X0133877Y0118052D01*
X0133849Y0117988D01*
X0133824Y0117922D01*
X0133803Y0117855D01*
X0133786Y0117786D01*
X0133772Y0117717D01*
X0133763Y0117648D01*
X0133757Y0117577D01*
X0133755Y0117507D01*
X0128573Y0122171D02*
X0127551Y0122171D01*
X0128573Y0122171D02*
X0128636Y0122173D01*
X0128699Y0122179D01*
X0128761Y0122188D01*
X0128822Y0122202D01*
X0128883Y0122219D01*
X0128942Y0122240D01*
X0129000Y0122265D01*
X0129057Y0122293D01*
X0129111Y0122324D01*
X0129163Y0122359D01*
X0129214Y0122397D01*
X0129262Y0122438D01*
X0129307Y0122482D01*
X0129349Y0122528D01*
X0129389Y0122577D01*
X0129425Y0122628D01*
X0129458Y0122682D01*
X0129488Y0122737D01*
X0129514Y0122795D01*
X0129537Y0122853D01*
X0129556Y0122913D01*
X0129571Y0122974D01*
X0129583Y0123036D01*
X0129591Y0123099D01*
X0129595Y0123162D01*
X0129595Y0123224D01*
X0129591Y0123287D01*
X0129583Y0123350D01*
X0129571Y0123412D01*
X0129556Y0123473D01*
X0129537Y0123533D01*
X0129514Y0123591D01*
X0129488Y0123649D01*
X0129458Y0123704D01*
X0129425Y0123758D01*
X0129389Y0123809D01*
X0129349Y0123858D01*
X0129307Y0123904D01*
X0129262Y0123948D01*
X0129214Y0123989D01*
X0129163Y0124027D01*
X0129111Y0124062D01*
X0129057Y0124093D01*
X0129000Y0124121D01*
X0128942Y0124146D01*
X0128883Y0124167D01*
X0128822Y0124184D01*
X0128761Y0124198D01*
X0128699Y0124207D01*
X0128636Y0124213D01*
X0128573Y0124215D01*
X0127040Y0124215D01*
X0125321Y0124215D02*
X0124299Y0124215D01*
X0124237Y0124213D01*
X0124176Y0124208D01*
X0124115Y0124198D01*
X0124054Y0124185D01*
X0123995Y0124169D01*
X0123937Y0124149D01*
X0123880Y0124125D01*
X0123824Y0124098D01*
X0123770Y0124068D01*
X0123718Y0124034D01*
X0123669Y0123997D01*
X0123621Y0123958D01*
X0123576Y0123916D01*
X0123534Y0123871D01*
X0123494Y0123823D01*
X0123458Y0123774D01*
X0123424Y0123722D01*
X0123394Y0123668D01*
X0123367Y0123612D01*
X0123343Y0123555D01*
X0123323Y0123497D01*
X0123307Y0123438D01*
X0123294Y0123377D01*
X0123284Y0123316D01*
X0123279Y0123255D01*
X0123277Y0123193D01*
X0123277Y0120637D01*
X0123279Y0120575D01*
X0123284Y0120514D01*
X0123294Y0120453D01*
X0123307Y0120392D01*
X0123323Y0120333D01*
X0123343Y0120275D01*
X0123367Y0120218D01*
X0123394Y0120162D01*
X0123424Y0120108D01*
X0123458Y0120056D01*
X0123494Y0120007D01*
X0123534Y0119959D01*
X0123576Y0119914D01*
X0123621Y0119872D01*
X0123669Y0119832D01*
X0123718Y0119796D01*
X0123770Y0119762D01*
X0123824Y0119732D01*
X0123880Y0119705D01*
X0123937Y0119681D01*
X0123995Y0119661D01*
X0124054Y0119645D01*
X0124115Y0119632D01*
X0124176Y0119622D01*
X0124237Y0119617D01*
X0124299Y0119615D01*
X0125321Y0119615D01*
X0127040Y0119615D02*
X0128318Y0119615D01*
X0128388Y0119617D01*
X0128459Y0119623D01*
X0128528Y0119632D01*
X0128597Y0119646D01*
X0128666Y0119663D01*
X0128733Y0119684D01*
X0128799Y0119709D01*
X0128863Y0119737D01*
X0128926Y0119769D01*
X0128987Y0119804D01*
X0129046Y0119843D01*
X0129103Y0119884D01*
X0129157Y0119929D01*
X0129209Y0119977D01*
X0129258Y0120027D01*
X0129305Y0120081D01*
X0129348Y0120136D01*
X0129388Y0120194D01*
X0129425Y0120254D01*
X0129458Y0120316D01*
X0129488Y0120380D01*
X0129515Y0120445D01*
X0129538Y0120511D01*
X0129557Y0120579D01*
X0129572Y0120648D01*
X0129584Y0120717D01*
X0129592Y0120787D01*
X0129596Y0120858D01*
X0129596Y0120928D01*
X0129592Y0120999D01*
X0129584Y0121069D01*
X0129572Y0121138D01*
X0129557Y0121207D01*
X0129538Y0121275D01*
X0129515Y0121341D01*
X0129488Y0121406D01*
X0129458Y0121470D01*
X0129425Y0121532D01*
X0129388Y0121592D01*
X0129348Y0121650D01*
X0129305Y0121705D01*
X0129258Y0121759D01*
X0129209Y0121809D01*
X0129157Y0121857D01*
X0129103Y0121902D01*
X0129046Y0121943D01*
X0128987Y0121982D01*
X0128926Y0122017D01*
X0128863Y0122049D01*
X0128799Y0122077D01*
X0128733Y0122102D01*
X0128666Y0122123D01*
X0128597Y0122140D01*
X0128528Y0122154D01*
X0128459Y0122163D01*
X0128388Y0122169D01*
X0128318Y0122171D01*
X0121479Y0124215D02*
X0120457Y0124215D01*
X0120968Y0124215D02*
X0120968Y0119615D01*
X0120457Y0119615D02*
X0121479Y0119615D01*
X0115127Y0118923D02*
X0115127Y0117901D01*
X0115125Y0117839D01*
X0115120Y0117778D01*
X0115110Y0117717D01*
X0115097Y0117656D01*
X0115081Y0117597D01*
X0115061Y0117539D01*
X0115037Y0117482D01*
X0115010Y0117426D01*
X0114980Y0117372D01*
X0114946Y0117320D01*
X0114910Y0117271D01*
X0114870Y0117223D01*
X0114828Y0117178D01*
X0114783Y0117136D01*
X0114735Y0117096D01*
X0114686Y0117060D01*
X0114634Y0117026D01*
X0114580Y0116996D01*
X0114524Y0116969D01*
X0114467Y0116945D01*
X0114409Y0116925D01*
X0114350Y0116909D01*
X0114289Y0116896D01*
X0114228Y0116886D01*
X0114167Y0116881D01*
X0114105Y0116879D01*
X0111549Y0116879D01*
X0111487Y0116881D01*
X0111426Y0116886D01*
X0111365Y0116896D01*
X0111304Y0116909D01*
X0111245Y0116925D01*
X0111187Y0116945D01*
X0111130Y0116969D01*
X0111074Y0116996D01*
X0111020Y0117026D01*
X0110968Y0117060D01*
X0110919Y0117096D01*
X0110871Y0117136D01*
X0110826Y0117178D01*
X0110784Y0117223D01*
X0110745Y0117271D01*
X0110708Y0117320D01*
X0110674Y0117372D01*
X0110644Y0117426D01*
X0110617Y0117482D01*
X0110593Y0117539D01*
X0110573Y0117597D01*
X0110557Y0117656D01*
X0110544Y0117717D01*
X0110534Y0117778D01*
X0110529Y0117839D01*
X0110527Y0117901D01*
X0110527Y0118923D01*
X0110527Y0120642D02*
X0110527Y0123197D01*
X0107253Y0123649D02*
X0107253Y0121094D01*
X0104697Y0123266D01*
X0102653Y0122499D02*
X0102655Y0122425D01*
X0102660Y0122351D01*
X0102670Y0122277D01*
X0102683Y0122204D01*
X0102699Y0122131D01*
X0102720Y0122060D01*
X0102744Y0121990D01*
X0102771Y0121921D01*
X0102802Y0121853D01*
X0102836Y0121787D01*
X0102873Y0121723D01*
X0102914Y0121661D01*
X0102958Y0121600D01*
X0103004Y0121543D01*
X0103054Y0121487D01*
X0103106Y0121434D01*
X0103161Y0121384D01*
X0103218Y0121337D01*
X0103278Y0121293D01*
X0103340Y0121251D01*
X0103403Y0121213D01*
X0103469Y0121178D01*
X0103536Y0121147D01*
X0103605Y0121119D01*
X0103675Y0121094D01*
X0104697Y0123266D02*
X0104650Y0123313D01*
X0104600Y0123357D01*
X0104548Y0123399D01*
X0104494Y0123438D01*
X0104438Y0123473D01*
X0104380Y0123506D01*
X0104320Y0123536D01*
X0104259Y0123562D01*
X0104196Y0123585D01*
X0104132Y0123604D01*
X0104068Y0123620D01*
X0104002Y0123633D01*
X0103936Y0123642D01*
X0103870Y0123647D01*
X0103803Y0123649D01*
X0103736Y0123647D01*
X0103669Y0123641D01*
X0103603Y0123632D01*
X0103538Y0123618D01*
X0103473Y0123601D01*
X0103410Y0123580D01*
X0103348Y0123555D01*
X0103287Y0123527D01*
X0103228Y0123495D01*
X0103171Y0123460D01*
X0103116Y0123421D01*
X0103064Y0123380D01*
X0103014Y0123335D01*
X0102967Y0123288D01*
X0102922Y0123238D01*
X0102881Y0123186D01*
X0102842Y0123131D01*
X0102807Y0123074D01*
X0102775Y0123015D01*
X0102747Y0122954D01*
X0102722Y0122892D01*
X0102701Y0122829D01*
X0102684Y0122764D01*
X0102670Y0122699D01*
X0102661Y0122633D01*
X0102655Y0122566D01*
X0102653Y0122499D01*
X0099812Y0122628D02*
X0099812Y0120073D01*
X0099812Y0121351D02*
X0095212Y0121351D01*
X0096234Y0120073D01*
X0095212Y0116880D02*
X0095214Y0116950D01*
X0095220Y0117021D01*
X0095229Y0117090D01*
X0095243Y0117159D01*
X0095260Y0117228D01*
X0095281Y0117295D01*
X0095306Y0117361D01*
X0095334Y0117425D01*
X0095366Y0117488D01*
X0095401Y0117549D01*
X0095440Y0117608D01*
X0095481Y0117665D01*
X0095526Y0117719D01*
X0095574Y0117771D01*
X0095624Y0117820D01*
X0095678Y0117867D01*
X0095733Y0117910D01*
X0095791Y0117950D01*
X0095851Y0117987D01*
X0095913Y0118020D01*
X0095977Y0118050D01*
X0096042Y0118077D01*
X0096108Y0118100D01*
X0096176Y0118119D01*
X0096245Y0118134D01*
X0096314Y0118146D01*
X0096384Y0118154D01*
X0096455Y0118158D01*
X0096525Y0118158D01*
X0096596Y0118154D01*
X0096666Y0118146D01*
X0096735Y0118134D01*
X0096804Y0118119D01*
X0096872Y0118100D01*
X0096938Y0118077D01*
X0097003Y0118050D01*
X0097067Y0118020D01*
X0097129Y0117987D01*
X0097189Y0117950D01*
X0097247Y0117910D01*
X0097302Y0117867D01*
X0097356Y0117820D01*
X0097406Y0117771D01*
X0097454Y0117719D01*
X0097499Y0117665D01*
X0097540Y0117608D01*
X0097579Y0117549D01*
X0097614Y0117488D01*
X0097646Y0117425D01*
X0097674Y0117361D01*
X0097699Y0117295D01*
X0097720Y0117228D01*
X0097737Y0117159D01*
X0097751Y0117090D01*
X0097760Y0117021D01*
X0097766Y0116950D01*
X0097768Y0116880D01*
X0097768Y0115602D01*
X0097768Y0117135D02*
X0099812Y0118157D01*
X0099812Y0115602D02*
X0095212Y0115602D01*
X0095212Y0116880D01*
X0102653Y0116623D02*
X0102653Y0117901D01*
X0102655Y0117971D01*
X0102661Y0118042D01*
X0102670Y0118111D01*
X0102684Y0118180D01*
X0102701Y0118249D01*
X0102722Y0118316D01*
X0102747Y0118382D01*
X0102775Y0118446D01*
X0102807Y0118509D01*
X0102842Y0118570D01*
X0102881Y0118629D01*
X0102922Y0118686D01*
X0102967Y0118740D01*
X0103015Y0118792D01*
X0103065Y0118841D01*
X0103119Y0118888D01*
X0103174Y0118931D01*
X0103232Y0118971D01*
X0103292Y0119008D01*
X0103354Y0119041D01*
X0103418Y0119071D01*
X0103483Y0119098D01*
X0103549Y0119121D01*
X0103617Y0119140D01*
X0103686Y0119155D01*
X0103755Y0119167D01*
X0103825Y0119175D01*
X0103896Y0119179D01*
X0103966Y0119179D01*
X0104037Y0119175D01*
X0104107Y0119167D01*
X0104176Y0119155D01*
X0104245Y0119140D01*
X0104313Y0119121D01*
X0104379Y0119098D01*
X0104444Y0119071D01*
X0104508Y0119041D01*
X0104570Y0119008D01*
X0104630Y0118971D01*
X0104688Y0118931D01*
X0104743Y0118888D01*
X0104797Y0118841D01*
X0104847Y0118792D01*
X0104895Y0118740D01*
X0104940Y0118686D01*
X0104981Y0118629D01*
X0105020Y0118570D01*
X0105055Y0118509D01*
X0105087Y0118446D01*
X0105115Y0118382D01*
X0105140Y0118316D01*
X0105161Y0118249D01*
X0105178Y0118180D01*
X0105192Y0118111D01*
X0105201Y0118042D01*
X0105207Y0117971D01*
X0105209Y0117901D01*
X0105209Y0116623D01*
X0105209Y0118156D02*
X0107253Y0119178D01*
X0110527Y0120642D02*
X0112571Y0120642D01*
X0112571Y0122175D01*
X0112572Y0122175D02*
X0112574Y0122237D01*
X0112579Y0122298D01*
X0112589Y0122359D01*
X0112602Y0122420D01*
X0112618Y0122479D01*
X0112638Y0122537D01*
X0112662Y0122594D01*
X0112689Y0122650D01*
X0112719Y0122704D01*
X0112753Y0122756D01*
X0112789Y0122805D01*
X0112829Y0122853D01*
X0112871Y0122898D01*
X0112916Y0122940D01*
X0112964Y0122980D01*
X0113013Y0123016D01*
X0113065Y0123050D01*
X0113119Y0123080D01*
X0113175Y0123107D01*
X0113232Y0123131D01*
X0113290Y0123151D01*
X0113349Y0123167D01*
X0113410Y0123180D01*
X0113471Y0123190D01*
X0113532Y0123195D01*
X0113594Y0123197D01*
X0114105Y0123197D01*
X0114167Y0123195D01*
X0114228Y0123190D01*
X0114289Y0123180D01*
X0114350Y0123167D01*
X0114409Y0123151D01*
X0114467Y0123131D01*
X0114524Y0123107D01*
X0114580Y0123080D01*
X0114634Y0123050D01*
X0114686Y0123016D01*
X0114735Y0122980D01*
X0114783Y0122940D01*
X0114828Y0122898D01*
X0114870Y0122853D01*
X0114910Y0122805D01*
X0114946Y0122756D01*
X0114980Y0122704D01*
X0115010Y0122650D01*
X0115037Y0122594D01*
X0115061Y0122537D01*
X0115081Y0122479D01*
X0115097Y0122420D01*
X0115110Y0122359D01*
X0115120Y0122298D01*
X0115125Y0122237D01*
X0115127Y0122175D01*
X0115127Y0120642D01*
X0107253Y0116623D02*
X0102653Y0116623D01*
X0099812Y0125084D02*
X0099810Y0125173D01*
X0099804Y0125262D01*
X0099795Y0125351D01*
X0099781Y0125439D01*
X0099764Y0125526D01*
X0099742Y0125613D01*
X0099717Y0125699D01*
X0099689Y0125783D01*
X0099656Y0125866D01*
X0099620Y0125948D01*
X0099581Y0126028D01*
X0099538Y0126106D01*
X0099492Y0126182D01*
X0099442Y0126256D01*
X0099390Y0126328D01*
X0099334Y0126398D01*
X0099275Y0126465D01*
X0099213Y0126529D01*
X0099149Y0126591D01*
X0099082Y0126650D01*
X0099012Y0126706D01*
X0098940Y0126758D01*
X0098866Y0126808D01*
X0098790Y0126854D01*
X0098712Y0126897D01*
X0098632Y0126936D01*
X0098550Y0126972D01*
X0098467Y0127005D01*
X0098383Y0127033D01*
X0098297Y0127058D01*
X0098210Y0127080D01*
X0098123Y0127097D01*
X0098035Y0127111D01*
X0097946Y0127120D01*
X0097857Y0127126D01*
X0097768Y0127128D01*
X0096490Y0127128D01*
X0096490Y0127129D02*
X0096420Y0127127D01*
X0096349Y0127121D01*
X0096280Y0127112D01*
X0096211Y0127098D01*
X0096142Y0127081D01*
X0096075Y0127060D01*
X0096009Y0127035D01*
X0095945Y0127007D01*
X0095882Y0126975D01*
X0095821Y0126940D01*
X0095762Y0126901D01*
X0095705Y0126860D01*
X0095651Y0126815D01*
X0095599Y0126767D01*
X0095550Y0126717D01*
X0095503Y0126663D01*
X0095460Y0126608D01*
X0095420Y0126550D01*
X0095383Y0126490D01*
X0095350Y0126428D01*
X0095320Y0126364D01*
X0095293Y0126299D01*
X0095270Y0126233D01*
X0095251Y0126165D01*
X0095236Y0126096D01*
X0095224Y0126027D01*
X0095216Y0125957D01*
X0095212Y0125886D01*
X0095212Y0125816D01*
X0095216Y0125745D01*
X0095224Y0125675D01*
X0095236Y0125606D01*
X0095251Y0125537D01*
X0095270Y0125469D01*
X0095293Y0125403D01*
X0095320Y0125338D01*
X0095350Y0125274D01*
X0095383Y0125212D01*
X0095420Y0125152D01*
X0095460Y0125094D01*
X0095503Y0125039D01*
X0095550Y0124985D01*
X0095599Y0124935D01*
X0095651Y0124887D01*
X0095705Y0124842D01*
X0095762Y0124801D01*
X0095821Y0124762D01*
X0095882Y0124727D01*
X0095945Y0124695D01*
X0096009Y0124667D01*
X0096075Y0124642D01*
X0096142Y0124621D01*
X0096211Y0124604D01*
X0096280Y0124590D01*
X0096349Y0124581D01*
X0096420Y0124575D01*
X0096490Y0124573D01*
X0096745Y0124573D01*
X0096807Y0124575D01*
X0096868Y0124580D01*
X0096929Y0124590D01*
X0096990Y0124603D01*
X0097049Y0124619D01*
X0097107Y0124639D01*
X0097164Y0124663D01*
X0097220Y0124690D01*
X0097274Y0124720D01*
X0097326Y0124754D01*
X0097375Y0124790D01*
X0097423Y0124830D01*
X0097468Y0124872D01*
X0097510Y0124917D01*
X0097550Y0124965D01*
X0097586Y0125014D01*
X0097620Y0125066D01*
X0097650Y0125120D01*
X0097677Y0125176D01*
X0097701Y0125233D01*
X0097721Y0125291D01*
X0097737Y0125350D01*
X0097750Y0125411D01*
X0097760Y0125472D01*
X0097765Y0125533D01*
X0097767Y0125595D01*
X0097768Y0125595D02*
X0097768Y0127128D01*
X0096505Y0135265D02*
X0091905Y0135265D01*
X0091905Y0136542D01*
X0091907Y0136612D01*
X0091913Y0136683D01*
X0091922Y0136752D01*
X0091936Y0136821D01*
X0091953Y0136890D01*
X0091974Y0136957D01*
X0091999Y0137023D01*
X0092027Y0137087D01*
X0092059Y0137150D01*
X0092094Y0137211D01*
X0092133Y0137270D01*
X0092174Y0137327D01*
X0092219Y0137381D01*
X0092267Y0137433D01*
X0092317Y0137482D01*
X0092371Y0137529D01*
X0092426Y0137572D01*
X0092484Y0137612D01*
X0092544Y0137649D01*
X0092606Y0137682D01*
X0092670Y0137712D01*
X0092735Y0137739D01*
X0092801Y0137762D01*
X0092869Y0137781D01*
X0092938Y0137796D01*
X0093007Y0137808D01*
X0093077Y0137816D01*
X0093148Y0137820D01*
X0093218Y0137820D01*
X0093289Y0137816D01*
X0093359Y0137808D01*
X0093428Y0137796D01*
X0093497Y0137781D01*
X0093565Y0137762D01*
X0093631Y0137739D01*
X0093696Y0137712D01*
X0093760Y0137682D01*
X0093822Y0137649D01*
X0093882Y0137612D01*
X0093940Y0137572D01*
X0093995Y0137529D01*
X0094049Y0137482D01*
X0094099Y0137433D01*
X0094147Y0137381D01*
X0094192Y0137327D01*
X0094233Y0137270D01*
X0094272Y0137211D01*
X0094307Y0137150D01*
X0094339Y0137087D01*
X0094367Y0137023D01*
X0094392Y0136957D01*
X0094413Y0136890D01*
X0094430Y0136821D01*
X0094444Y0136752D01*
X0094453Y0136683D01*
X0094459Y0136612D01*
X0094461Y0136542D01*
X0094461Y0135265D01*
X0095355Y0139676D02*
X0095355Y0141976D01*
X0096505Y0142359D02*
X0091905Y0140826D01*
X0096505Y0139292D01*
X0096505Y0144198D02*
X0091905Y0144198D01*
X0091905Y0145476D01*
X0091907Y0145545D01*
X0091912Y0145614D01*
X0091922Y0145683D01*
X0091935Y0145751D01*
X0091952Y0145818D01*
X0091972Y0145884D01*
X0091996Y0145949D01*
X0092023Y0146013D01*
X0092054Y0146075D01*
X0092088Y0146135D01*
X0092125Y0146193D01*
X0092166Y0146249D01*
X0092209Y0146303D01*
X0092255Y0146355D01*
X0092304Y0146404D01*
X0092356Y0146450D01*
X0092410Y0146493D01*
X0092466Y0146534D01*
X0092524Y0146571D01*
X0092584Y0146605D01*
X0092646Y0146636D01*
X0092710Y0146663D01*
X0092775Y0146687D01*
X0092841Y0146707D01*
X0092908Y0146724D01*
X0092976Y0146737D01*
X0093045Y0146747D01*
X0093114Y0146752D01*
X0093183Y0146754D01*
X0093183Y0146753D02*
X0095227Y0146753D01*
X0095227Y0146754D02*
X0095296Y0146752D01*
X0095365Y0146747D01*
X0095434Y0146737D01*
X0095502Y0146724D01*
X0095569Y0146707D01*
X0095635Y0146687D01*
X0095700Y0146663D01*
X0095764Y0146636D01*
X0095826Y0146605D01*
X0095886Y0146571D01*
X0095944Y0146534D01*
X0096000Y0146493D01*
X0096054Y0146450D01*
X0096106Y0146404D01*
X0096155Y0146355D01*
X0096201Y0146303D01*
X0096244Y0146249D01*
X0096285Y0146193D01*
X0096322Y0146135D01*
X0096356Y0146075D01*
X0096387Y0146013D01*
X0096414Y0145949D01*
X0096438Y0145884D01*
X0096458Y0145818D01*
X0096475Y0145751D01*
X0096488Y0145683D01*
X0096498Y0145614D01*
X0096503Y0145545D01*
X0096505Y0145476D01*
X0096505Y0144198D01*
X0096505Y0148848D02*
X0096505Y0151403D01*
X0096505Y0148848D02*
X0093949Y0151020D01*
X0091905Y0150253D02*
X0091907Y0150179D01*
X0091912Y0150105D01*
X0091922Y0150031D01*
X0091935Y0149958D01*
X0091951Y0149885D01*
X0091972Y0149814D01*
X0091996Y0149744D01*
X0092023Y0149675D01*
X0092054Y0149607D01*
X0092088Y0149541D01*
X0092125Y0149477D01*
X0092166Y0149415D01*
X0092210Y0149354D01*
X0092256Y0149297D01*
X0092306Y0149241D01*
X0092358Y0149188D01*
X0092413Y0149138D01*
X0092470Y0149091D01*
X0092530Y0149047D01*
X0092592Y0149005D01*
X0092655Y0148967D01*
X0092721Y0148932D01*
X0092788Y0148901D01*
X0092857Y0148873D01*
X0092927Y0148848D01*
X0093949Y0151020D02*
X0093902Y0151067D01*
X0093852Y0151111D01*
X0093800Y0151153D01*
X0093746Y0151192D01*
X0093690Y0151227D01*
X0093632Y0151260D01*
X0093572Y0151290D01*
X0093511Y0151316D01*
X0093448Y0151339D01*
X0093384Y0151358D01*
X0093320Y0151374D01*
X0093254Y0151387D01*
X0093188Y0151396D01*
X0093122Y0151401D01*
X0093055Y0151403D01*
X0092988Y0151401D01*
X0092921Y0151395D01*
X0092855Y0151386D01*
X0092790Y0151372D01*
X0092725Y0151355D01*
X0092662Y0151334D01*
X0092600Y0151309D01*
X0092539Y0151281D01*
X0092480Y0151249D01*
X0092423Y0151214D01*
X0092368Y0151175D01*
X0092316Y0151134D01*
X0092266Y0151089D01*
X0092219Y0151042D01*
X0092174Y0150992D01*
X0092133Y0150940D01*
X0092094Y0150885D01*
X0092059Y0150828D01*
X0092027Y0150769D01*
X0091999Y0150708D01*
X0091974Y0150646D01*
X0091953Y0150583D01*
X0091936Y0150518D01*
X0091922Y0150453D01*
X0091913Y0150387D01*
X0091907Y0150320D01*
X0091905Y0150253D01*
X0102417Y0151303D02*
X0107017Y0151303D01*
X0107017Y0150026D02*
X0107017Y0152581D01*
X0103439Y0150026D02*
X0102417Y0151303D01*
X0103695Y0147931D02*
X0105739Y0147931D01*
X0105808Y0147929D01*
X0105877Y0147924D01*
X0105946Y0147914D01*
X0106014Y0147901D01*
X0106081Y0147884D01*
X0106147Y0147864D01*
X0106212Y0147840D01*
X0106276Y0147813D01*
X0106338Y0147782D01*
X0106398Y0147748D01*
X0106456Y0147711D01*
X0106512Y0147670D01*
X0106566Y0147627D01*
X0106618Y0147581D01*
X0106667Y0147532D01*
X0106713Y0147480D01*
X0106756Y0147426D01*
X0106797Y0147370D01*
X0106834Y0147312D01*
X0106868Y0147252D01*
X0106899Y0147190D01*
X0106926Y0147126D01*
X0106950Y0147061D01*
X0106970Y0146995D01*
X0106987Y0146928D01*
X0107000Y0146860D01*
X0107010Y0146791D01*
X0107015Y0146722D01*
X0107017Y0146653D01*
X0107017Y0145376D01*
X0102417Y0145376D01*
X0102417Y0146653D01*
X0102419Y0146722D01*
X0102424Y0146791D01*
X0102434Y0146860D01*
X0102447Y0146928D01*
X0102464Y0146995D01*
X0102484Y0147061D01*
X0102508Y0147126D01*
X0102535Y0147190D01*
X0102566Y0147252D01*
X0102600Y0147312D01*
X0102637Y0147370D01*
X0102678Y0147426D01*
X0102721Y0147480D01*
X0102767Y0147532D01*
X0102816Y0147581D01*
X0102868Y0147627D01*
X0102922Y0147670D01*
X0102978Y0147711D01*
X0103036Y0147748D01*
X0103096Y0147782D01*
X0103158Y0147813D01*
X0103222Y0147840D01*
X0103287Y0147864D01*
X0103353Y0147884D01*
X0103420Y0147901D01*
X0103488Y0147914D01*
X0103557Y0147924D01*
X0103626Y0147929D01*
X0103695Y0147931D01*
X0105867Y0143153D02*
X0105867Y0140853D01*
X0107017Y0140470D02*
X0102417Y0142003D01*
X0107017Y0143537D01*
X0112909Y0143546D02*
X0112909Y0140223D01*
X0112911Y0140153D01*
X0112917Y0140082D01*
X0112926Y0140013D01*
X0112940Y0139944D01*
X0112957Y0139875D01*
X0112978Y0139808D01*
X0113003Y0139742D01*
X0113031Y0139678D01*
X0113063Y0139615D01*
X0113098Y0139554D01*
X0113137Y0139495D01*
X0113178Y0139438D01*
X0113223Y0139384D01*
X0113271Y0139332D01*
X0113321Y0139283D01*
X0113375Y0139236D01*
X0113430Y0139193D01*
X0113488Y0139153D01*
X0113548Y0139116D01*
X0113610Y0139083D01*
X0113674Y0139053D01*
X0113739Y0139026D01*
X0113805Y0139003D01*
X0113873Y0138984D01*
X0113942Y0138969D01*
X0114011Y0138957D01*
X0114081Y0138949D01*
X0114152Y0138945D01*
X0114222Y0138945D01*
X0114293Y0138949D01*
X0114363Y0138957D01*
X0114432Y0138969D01*
X0114501Y0138984D01*
X0114569Y0139003D01*
X0114635Y0139026D01*
X0114700Y0139053D01*
X0114764Y0139083D01*
X0114826Y0139116D01*
X0114886Y0139153D01*
X0114944Y0139193D01*
X0114999Y0139236D01*
X0115053Y0139283D01*
X0115103Y0139332D01*
X0115151Y0139384D01*
X0115196Y0139438D01*
X0115237Y0139495D01*
X0115276Y0139554D01*
X0115311Y0139615D01*
X0115343Y0139678D01*
X0115371Y0139742D01*
X0115396Y0139808D01*
X0115417Y0139875D01*
X0115434Y0139944D01*
X0115448Y0140013D01*
X0115457Y0140082D01*
X0115463Y0140153D01*
X0115465Y0140223D01*
X0115464Y0140223D02*
X0115464Y0143546D01*
X0118154Y0143035D02*
X0118101Y0143023D01*
X0118049Y0143008D01*
X0117998Y0142988D01*
X0117949Y0142966D01*
X0117901Y0142940D01*
X0117855Y0142910D01*
X0117812Y0142878D01*
X0117771Y0142842D01*
X0117732Y0142804D01*
X0117697Y0142763D01*
X0117664Y0142719D01*
X0117635Y0142674D01*
X0117609Y0142626D01*
X0117586Y0142576D01*
X0117567Y0142526D01*
X0117552Y0142474D01*
X0117540Y0142420D01*
X0117533Y0142367D01*
X0117529Y0142313D01*
X0117528Y0142258D01*
X0117532Y0142204D01*
X0117540Y0142150D01*
X0117551Y0142097D01*
X0117566Y0142045D01*
X0117585Y0141994D01*
X0117608Y0141945D01*
X0117633Y0141897D01*
X0117663Y0141851D01*
X0117695Y0141808D01*
X0117730Y0141766D01*
X0117769Y0141728D01*
X0117810Y0141692D01*
X0117853Y0141659D01*
X0117898Y0141630D01*
X0117898Y0141629D02*
X0118537Y0141246D01*
X0119176Y0140862D01*
X0119559Y0142779D02*
X0119484Y0142822D01*
X0119408Y0142861D01*
X0119330Y0142898D01*
X0119251Y0142930D01*
X0119170Y0142960D01*
X0119088Y0142986D01*
X0119005Y0143008D01*
X0118921Y0143027D01*
X0118837Y0143043D01*
X0118752Y0143054D01*
X0118666Y0143062D01*
X0118581Y0143067D01*
X0118495Y0143068D01*
X0118409Y0143065D01*
X0118323Y0143059D01*
X0118238Y0143049D01*
X0118153Y0143035D01*
X0118537Y0143546D02*
X0118537Y0138946D01*
X0118920Y0139457D02*
X0118973Y0139469D01*
X0119025Y0139484D01*
X0119076Y0139504D01*
X0119125Y0139526D01*
X0119173Y0139552D01*
X0119219Y0139582D01*
X0119262Y0139614D01*
X0119303Y0139650D01*
X0119342Y0139688D01*
X0119377Y0139729D01*
X0119410Y0139773D01*
X0119439Y0139818D01*
X0119465Y0139866D01*
X0119488Y0139916D01*
X0119507Y0139966D01*
X0119522Y0140018D01*
X0119534Y0140072D01*
X0119541Y0140125D01*
X0119545Y0140179D01*
X0119546Y0140234D01*
X0119542Y0140288D01*
X0119534Y0140342D01*
X0119523Y0140395D01*
X0119508Y0140447D01*
X0119489Y0140498D01*
X0119466Y0140547D01*
X0119441Y0140595D01*
X0119411Y0140641D01*
X0119379Y0140684D01*
X0119344Y0140726D01*
X0119305Y0140764D01*
X0119264Y0140800D01*
X0119221Y0140833D01*
X0119176Y0140862D01*
X0118920Y0139456D02*
X0118835Y0139442D01*
X0118750Y0139432D01*
X0118664Y0139426D01*
X0118578Y0139423D01*
X0118492Y0139424D01*
X0118407Y0139429D01*
X0118321Y0139437D01*
X0118236Y0139448D01*
X0118152Y0139464D01*
X0118068Y0139483D01*
X0117985Y0139505D01*
X0117903Y0139531D01*
X0117822Y0139561D01*
X0117743Y0139593D01*
X0117665Y0139630D01*
X0117589Y0139669D01*
X0117514Y0139712D01*
X0121459Y0138946D02*
X0124014Y0138946D01*
X0122737Y0138946D02*
X0122737Y0143546D01*
X0121459Y0142523D01*
X0127242Y0143250D02*
X0127242Y0138650D01*
X0129798Y0138650D02*
X0128776Y0140695D01*
X0128520Y0140695D02*
X0127242Y0140695D01*
X0128520Y0140695D02*
X0128590Y0140697D01*
X0128661Y0140703D01*
X0128730Y0140712D01*
X0128799Y0140726D01*
X0128868Y0140743D01*
X0128935Y0140764D01*
X0129001Y0140789D01*
X0129065Y0140817D01*
X0129128Y0140849D01*
X0129189Y0140884D01*
X0129248Y0140923D01*
X0129305Y0140964D01*
X0129359Y0141009D01*
X0129411Y0141057D01*
X0129460Y0141107D01*
X0129507Y0141161D01*
X0129550Y0141216D01*
X0129590Y0141274D01*
X0129627Y0141334D01*
X0129660Y0141396D01*
X0129690Y0141460D01*
X0129717Y0141525D01*
X0129740Y0141591D01*
X0129759Y0141659D01*
X0129774Y0141728D01*
X0129786Y0141797D01*
X0129794Y0141867D01*
X0129798Y0141938D01*
X0129798Y0142008D01*
X0129794Y0142079D01*
X0129786Y0142149D01*
X0129774Y0142218D01*
X0129759Y0142287D01*
X0129740Y0142355D01*
X0129717Y0142421D01*
X0129690Y0142486D01*
X0129660Y0142550D01*
X0129627Y0142612D01*
X0129590Y0142672D01*
X0129550Y0142730D01*
X0129507Y0142785D01*
X0129460Y0142839D01*
X0129411Y0142889D01*
X0129359Y0142937D01*
X0129305Y0142982D01*
X0129248Y0143023D01*
X0129189Y0143062D01*
X0129128Y0143097D01*
X0129065Y0143129D01*
X0129001Y0143157D01*
X0128935Y0143182D01*
X0128868Y0143203D01*
X0128799Y0143220D01*
X0128730Y0143234D01*
X0128661Y0143243D01*
X0128590Y0143249D01*
X0128520Y0143251D01*
X0128520Y0143250D02*
X0127242Y0143250D01*
X0131713Y0142228D02*
X0132991Y0143250D01*
X0132991Y0138650D01*
X0131713Y0138650D02*
X0134269Y0138650D01*
X0136213Y0139928D02*
X0136215Y0139858D01*
X0136221Y0139787D01*
X0136230Y0139718D01*
X0136244Y0139649D01*
X0136261Y0139580D01*
X0136282Y0139513D01*
X0136307Y0139447D01*
X0136335Y0139383D01*
X0136367Y0139320D01*
X0136402Y0139259D01*
X0136441Y0139200D01*
X0136482Y0139143D01*
X0136527Y0139089D01*
X0136575Y0139037D01*
X0136625Y0138988D01*
X0136679Y0138941D01*
X0136734Y0138898D01*
X0136792Y0138858D01*
X0136852Y0138821D01*
X0136914Y0138788D01*
X0136978Y0138758D01*
X0137043Y0138731D01*
X0137109Y0138708D01*
X0137177Y0138689D01*
X0137246Y0138674D01*
X0137315Y0138662D01*
X0137385Y0138654D01*
X0137456Y0138650D01*
X0137526Y0138650D01*
X0137597Y0138654D01*
X0137667Y0138662D01*
X0137736Y0138674D01*
X0137805Y0138689D01*
X0137873Y0138708D01*
X0137939Y0138731D01*
X0138004Y0138758D01*
X0138068Y0138788D01*
X0138130Y0138821D01*
X0138190Y0138858D01*
X0138248Y0138898D01*
X0138303Y0138941D01*
X0138357Y0138988D01*
X0138407Y0139037D01*
X0138455Y0139089D01*
X0138500Y0139143D01*
X0138541Y0139200D01*
X0138580Y0139259D01*
X0138615Y0139320D01*
X0138647Y0139383D01*
X0138675Y0139447D01*
X0138700Y0139513D01*
X0138721Y0139580D01*
X0138738Y0139649D01*
X0138752Y0139718D01*
X0138761Y0139787D01*
X0138767Y0139858D01*
X0138769Y0139928D01*
X0138767Y0139998D01*
X0138761Y0140069D01*
X0138752Y0140138D01*
X0138738Y0140207D01*
X0138721Y0140276D01*
X0138700Y0140343D01*
X0138675Y0140409D01*
X0138647Y0140473D01*
X0138615Y0140536D01*
X0138580Y0140597D01*
X0138541Y0140656D01*
X0138500Y0140713D01*
X0138455Y0140767D01*
X0138407Y0140819D01*
X0138357Y0140868D01*
X0138303Y0140915D01*
X0138248Y0140958D01*
X0138190Y0140998D01*
X0138130Y0141035D01*
X0138068Y0141068D01*
X0138004Y0141098D01*
X0137939Y0141125D01*
X0137873Y0141148D01*
X0137805Y0141167D01*
X0137736Y0141182D01*
X0137667Y0141194D01*
X0137597Y0141202D01*
X0137526Y0141206D01*
X0137456Y0141206D01*
X0137385Y0141202D01*
X0137315Y0141194D01*
X0137246Y0141182D01*
X0137177Y0141167D01*
X0137109Y0141148D01*
X0137043Y0141125D01*
X0136978Y0141098D01*
X0136914Y0141068D01*
X0136852Y0141035D01*
X0136792Y0140998D01*
X0136734Y0140958D01*
X0136679Y0140915D01*
X0136625Y0140868D01*
X0136575Y0140819D01*
X0136527Y0140767D01*
X0136482Y0140713D01*
X0136441Y0140656D01*
X0136402Y0140597D01*
X0136367Y0140536D01*
X0136335Y0140473D01*
X0136307Y0140409D01*
X0136282Y0140343D01*
X0136261Y0140276D01*
X0136244Y0140207D01*
X0136230Y0140138D01*
X0136221Y0140069D01*
X0136215Y0139998D01*
X0136213Y0139928D01*
X0136469Y0142228D02*
X0136471Y0142165D01*
X0136477Y0142102D01*
X0136486Y0142040D01*
X0136500Y0141979D01*
X0136517Y0141918D01*
X0136538Y0141859D01*
X0136563Y0141801D01*
X0136591Y0141744D01*
X0136622Y0141690D01*
X0136657Y0141638D01*
X0136695Y0141587D01*
X0136736Y0141539D01*
X0136780Y0141494D01*
X0136826Y0141452D01*
X0136875Y0141412D01*
X0136926Y0141376D01*
X0136980Y0141343D01*
X0137035Y0141313D01*
X0137093Y0141287D01*
X0137151Y0141264D01*
X0137211Y0141245D01*
X0137272Y0141230D01*
X0137334Y0141218D01*
X0137397Y0141210D01*
X0137460Y0141206D01*
X0137522Y0141206D01*
X0137585Y0141210D01*
X0137648Y0141218D01*
X0137710Y0141230D01*
X0137771Y0141245D01*
X0137831Y0141264D01*
X0137889Y0141287D01*
X0137947Y0141313D01*
X0138002Y0141343D01*
X0138056Y0141376D01*
X0138107Y0141412D01*
X0138156Y0141452D01*
X0138202Y0141494D01*
X0138246Y0141539D01*
X0138287Y0141587D01*
X0138325Y0141638D01*
X0138360Y0141690D01*
X0138391Y0141744D01*
X0138419Y0141801D01*
X0138444Y0141859D01*
X0138465Y0141918D01*
X0138482Y0141979D01*
X0138496Y0142040D01*
X0138505Y0142102D01*
X0138511Y0142165D01*
X0138513Y0142228D01*
X0138511Y0142291D01*
X0138505Y0142354D01*
X0138496Y0142416D01*
X0138482Y0142477D01*
X0138465Y0142538D01*
X0138444Y0142597D01*
X0138419Y0142655D01*
X0138391Y0142712D01*
X0138360Y0142766D01*
X0138325Y0142818D01*
X0138287Y0142869D01*
X0138246Y0142917D01*
X0138202Y0142962D01*
X0138156Y0143004D01*
X0138107Y0143044D01*
X0138056Y0143080D01*
X0138002Y0143113D01*
X0137947Y0143143D01*
X0137889Y0143169D01*
X0137831Y0143192D01*
X0137771Y0143211D01*
X0137710Y0143226D01*
X0137648Y0143238D01*
X0137585Y0143246D01*
X0137522Y0143250D01*
X0137460Y0143250D01*
X0137397Y0143246D01*
X0137334Y0143238D01*
X0137272Y0143226D01*
X0137211Y0143211D01*
X0137151Y0143192D01*
X0137093Y0143169D01*
X0137035Y0143143D01*
X0136980Y0143113D01*
X0136926Y0143080D01*
X0136875Y0143044D01*
X0136826Y0143004D01*
X0136780Y0142962D01*
X0136736Y0142917D01*
X0136695Y0142869D01*
X0136657Y0142818D01*
X0136622Y0142766D01*
X0136591Y0142712D01*
X0136563Y0142655D01*
X0136538Y0142597D01*
X0136517Y0142538D01*
X0136500Y0142477D01*
X0136486Y0142416D01*
X0136477Y0142354D01*
X0136471Y0142291D01*
X0136469Y0142228D01*
X0142692Y0143290D02*
X0142692Y0138690D01*
X0144737Y0138690D01*
X0146592Y0138690D02*
X0146592Y0143290D01*
X0148637Y0143290D01*
X0150483Y0143290D02*
X0151761Y0143290D01*
X0150483Y0143290D02*
X0150483Y0138690D01*
X0151761Y0138690D01*
X0151830Y0138692D01*
X0151899Y0138697D01*
X0151968Y0138707D01*
X0152036Y0138720D01*
X0152103Y0138737D01*
X0152169Y0138757D01*
X0152234Y0138781D01*
X0152298Y0138808D01*
X0152360Y0138839D01*
X0152420Y0138873D01*
X0152478Y0138910D01*
X0152534Y0138951D01*
X0152588Y0138994D01*
X0152640Y0139040D01*
X0152689Y0139089D01*
X0152735Y0139141D01*
X0152778Y0139195D01*
X0152819Y0139251D01*
X0152856Y0139309D01*
X0152890Y0139369D01*
X0152921Y0139431D01*
X0152948Y0139495D01*
X0152972Y0139560D01*
X0152992Y0139626D01*
X0153009Y0139693D01*
X0153022Y0139761D01*
X0153032Y0139830D01*
X0153037Y0139899D01*
X0153039Y0139968D01*
X0153039Y0142012D01*
X0153037Y0142081D01*
X0153032Y0142150D01*
X0153022Y0142219D01*
X0153009Y0142287D01*
X0152992Y0142354D01*
X0152972Y0142420D01*
X0152948Y0142485D01*
X0152921Y0142549D01*
X0152890Y0142611D01*
X0152856Y0142671D01*
X0152819Y0142729D01*
X0152778Y0142785D01*
X0152735Y0142839D01*
X0152689Y0142891D01*
X0152640Y0142940D01*
X0152588Y0142986D01*
X0152534Y0143029D01*
X0152478Y0143070D01*
X0152420Y0143107D01*
X0152360Y0143141D01*
X0152298Y0143172D01*
X0152234Y0143199D01*
X0152169Y0143223D01*
X0152103Y0143243D01*
X0152036Y0143260D01*
X0151968Y0143273D01*
X0151899Y0143283D01*
X0151830Y0143288D01*
X0151761Y0143290D01*
X0148126Y0141245D02*
X0146592Y0141245D01*
X0146592Y0138690D02*
X0148637Y0138690D01*
X0148282Y0135770D02*
X0150327Y0135770D01*
X0152173Y0135770D02*
X0153451Y0135770D01*
X0152173Y0135770D02*
X0152173Y0131170D01*
X0153451Y0131170D01*
X0153520Y0131172D01*
X0153589Y0131177D01*
X0153658Y0131187D01*
X0153726Y0131200D01*
X0153793Y0131217D01*
X0153859Y0131237D01*
X0153924Y0131261D01*
X0153988Y0131288D01*
X0154050Y0131319D01*
X0154110Y0131353D01*
X0154168Y0131390D01*
X0154224Y0131431D01*
X0154278Y0131474D01*
X0154330Y0131520D01*
X0154379Y0131569D01*
X0154425Y0131621D01*
X0154468Y0131675D01*
X0154509Y0131731D01*
X0154546Y0131789D01*
X0154580Y0131849D01*
X0154611Y0131911D01*
X0154638Y0131975D01*
X0154662Y0132040D01*
X0154682Y0132106D01*
X0154699Y0132173D01*
X0154712Y0132241D01*
X0154722Y0132310D01*
X0154727Y0132379D01*
X0154729Y0132448D01*
X0154729Y0134492D01*
X0154727Y0134561D01*
X0154722Y0134630D01*
X0154712Y0134699D01*
X0154699Y0134767D01*
X0154682Y0134834D01*
X0154662Y0134900D01*
X0154638Y0134965D01*
X0154611Y0135029D01*
X0154580Y0135091D01*
X0154546Y0135151D01*
X0154509Y0135209D01*
X0154468Y0135265D01*
X0154425Y0135319D01*
X0154379Y0135371D01*
X0154330Y0135420D01*
X0154278Y0135466D01*
X0154224Y0135509D01*
X0154168Y0135550D01*
X0154110Y0135587D01*
X0154050Y0135621D01*
X0153988Y0135652D01*
X0153924Y0135679D01*
X0153859Y0135703D01*
X0153793Y0135723D01*
X0153726Y0135740D01*
X0153658Y0135753D01*
X0153589Y0135763D01*
X0153520Y0135768D01*
X0153451Y0135770D01*
X0155133Y0138690D02*
X0157689Y0138690D01*
X0156411Y0138690D02*
X0156411Y0143290D01*
X0155133Y0142268D01*
X0148282Y0135770D02*
X0148282Y0131170D01*
X0150327Y0131170D01*
X0149816Y0133726D02*
X0148282Y0133726D01*
X0146427Y0131170D02*
X0144382Y0131170D01*
X0144382Y0135770D01*
X0136800Y0130383D02*
X0134245Y0130383D01*
X0135522Y0130383D02*
X0135522Y0134983D01*
X0134245Y0133960D01*
X0131051Y0134983D02*
X0131121Y0134981D01*
X0131192Y0134975D01*
X0131261Y0134966D01*
X0131330Y0134952D01*
X0131399Y0134935D01*
X0131466Y0134914D01*
X0131532Y0134889D01*
X0131596Y0134861D01*
X0131659Y0134829D01*
X0131720Y0134794D01*
X0131779Y0134755D01*
X0131836Y0134714D01*
X0131890Y0134669D01*
X0131942Y0134621D01*
X0131991Y0134571D01*
X0132038Y0134517D01*
X0132081Y0134462D01*
X0132121Y0134404D01*
X0132158Y0134344D01*
X0132191Y0134282D01*
X0132221Y0134218D01*
X0132248Y0134153D01*
X0132271Y0134087D01*
X0132290Y0134019D01*
X0132305Y0133950D01*
X0132317Y0133881D01*
X0132325Y0133811D01*
X0132329Y0133740D01*
X0132329Y0133670D01*
X0132325Y0133599D01*
X0132317Y0133529D01*
X0132305Y0133460D01*
X0132290Y0133391D01*
X0132271Y0133323D01*
X0132248Y0133257D01*
X0132221Y0133192D01*
X0132191Y0133128D01*
X0132158Y0133066D01*
X0132121Y0133006D01*
X0132081Y0132948D01*
X0132038Y0132893D01*
X0131991Y0132839D01*
X0131942Y0132789D01*
X0131890Y0132741D01*
X0131836Y0132696D01*
X0131779Y0132655D01*
X0131720Y0132616D01*
X0131659Y0132581D01*
X0131596Y0132549D01*
X0131532Y0132521D01*
X0131466Y0132496D01*
X0131399Y0132475D01*
X0131330Y0132458D01*
X0131261Y0132444D01*
X0131192Y0132435D01*
X0131121Y0132429D01*
X0131051Y0132427D01*
X0129774Y0132427D01*
X0131307Y0132427D02*
X0132329Y0130383D01*
X0129774Y0130383D02*
X0129774Y0134983D01*
X0131051Y0134983D01*
X0121977Y0133311D02*
X0121977Y0132033D01*
X0120444Y0132033D01*
X0121977Y0132033D02*
X0121975Y0131944D01*
X0121969Y0131855D01*
X0121960Y0131766D01*
X0121946Y0131678D01*
X0121929Y0131591D01*
X0121907Y0131504D01*
X0121882Y0131418D01*
X0121854Y0131334D01*
X0121821Y0131251D01*
X0121785Y0131169D01*
X0121746Y0131089D01*
X0121703Y0131011D01*
X0121657Y0130935D01*
X0121607Y0130861D01*
X0121555Y0130789D01*
X0121499Y0130719D01*
X0121440Y0130652D01*
X0121378Y0130588D01*
X0121314Y0130526D01*
X0121247Y0130467D01*
X0121177Y0130411D01*
X0121105Y0130359D01*
X0121031Y0130309D01*
X0120955Y0130263D01*
X0120877Y0130220D01*
X0120797Y0130181D01*
X0120715Y0130145D01*
X0120632Y0130112D01*
X0120548Y0130084D01*
X0120462Y0130059D01*
X0120375Y0130037D01*
X0120288Y0130020D01*
X0120200Y0130006D01*
X0120111Y0129997D01*
X0120022Y0129991D01*
X0119933Y0129989D01*
X0117703Y0129989D02*
X0116681Y0129989D01*
X0116619Y0129991D01*
X0116558Y0129996D01*
X0116497Y0130006D01*
X0116436Y0130019D01*
X0116377Y0130035D01*
X0116319Y0130055D01*
X0116262Y0130079D01*
X0116206Y0130106D01*
X0116152Y0130136D01*
X0116100Y0130170D01*
X0116051Y0130206D01*
X0116003Y0130246D01*
X0115958Y0130288D01*
X0115916Y0130333D01*
X0115876Y0130381D01*
X0115840Y0130430D01*
X0115806Y0130482D01*
X0115776Y0130536D01*
X0115749Y0130592D01*
X0115725Y0130649D01*
X0115705Y0130707D01*
X0115689Y0130766D01*
X0115676Y0130827D01*
X0115666Y0130888D01*
X0115661Y0130949D01*
X0115659Y0131011D01*
X0115659Y0133567D01*
X0115661Y0133629D01*
X0115666Y0133690D01*
X0115676Y0133751D01*
X0115689Y0133812D01*
X0115705Y0133871D01*
X0115725Y0133929D01*
X0115749Y0133986D01*
X0115776Y0134042D01*
X0115806Y0134096D01*
X0115840Y0134148D01*
X0115876Y0134197D01*
X0115916Y0134245D01*
X0115958Y0134290D01*
X0116003Y0134332D01*
X0116051Y0134371D01*
X0116100Y0134408D01*
X0116152Y0134442D01*
X0116206Y0134472D01*
X0116262Y0134499D01*
X0116319Y0134523D01*
X0116377Y0134543D01*
X0116436Y0134559D01*
X0116497Y0134572D01*
X0116558Y0134582D01*
X0116619Y0134587D01*
X0116681Y0134589D01*
X0117703Y0134589D01*
X0119422Y0133311D02*
X0119422Y0133056D01*
X0119424Y0132994D01*
X0119429Y0132933D01*
X0119439Y0132872D01*
X0119452Y0132811D01*
X0119468Y0132752D01*
X0119488Y0132694D01*
X0119512Y0132637D01*
X0119539Y0132581D01*
X0119569Y0132527D01*
X0119603Y0132475D01*
X0119639Y0132426D01*
X0119679Y0132378D01*
X0119721Y0132333D01*
X0119766Y0132291D01*
X0119814Y0132251D01*
X0119863Y0132215D01*
X0119915Y0132181D01*
X0119969Y0132151D01*
X0120025Y0132124D01*
X0120082Y0132100D01*
X0120140Y0132080D01*
X0120199Y0132064D01*
X0120260Y0132051D01*
X0120321Y0132041D01*
X0120382Y0132036D01*
X0120444Y0132034D01*
X0119422Y0133311D02*
X0119424Y0133381D01*
X0119430Y0133452D01*
X0119439Y0133521D01*
X0119453Y0133590D01*
X0119470Y0133659D01*
X0119491Y0133726D01*
X0119516Y0133792D01*
X0119544Y0133856D01*
X0119576Y0133919D01*
X0119611Y0133980D01*
X0119650Y0134039D01*
X0119691Y0134096D01*
X0119736Y0134150D01*
X0119784Y0134202D01*
X0119834Y0134251D01*
X0119888Y0134298D01*
X0119943Y0134341D01*
X0120001Y0134381D01*
X0120061Y0134418D01*
X0120123Y0134451D01*
X0120187Y0134481D01*
X0120252Y0134508D01*
X0120318Y0134531D01*
X0120386Y0134550D01*
X0120455Y0134565D01*
X0120524Y0134577D01*
X0120594Y0134585D01*
X0120665Y0134589D01*
X0120735Y0134589D01*
X0120806Y0134585D01*
X0120876Y0134577D01*
X0120945Y0134565D01*
X0121014Y0134550D01*
X0121082Y0134531D01*
X0121148Y0134508D01*
X0121213Y0134481D01*
X0121277Y0134451D01*
X0121339Y0134418D01*
X0121399Y0134381D01*
X0121457Y0134341D01*
X0121512Y0134298D01*
X0121566Y0134251D01*
X0121616Y0134202D01*
X0121664Y0134150D01*
X0121709Y0134096D01*
X0121750Y0134039D01*
X0121789Y0133980D01*
X0121824Y0133919D01*
X0121856Y0133856D01*
X0121884Y0133792D01*
X0121909Y0133726D01*
X0121930Y0133659D01*
X0121947Y0133590D01*
X0121961Y0133521D01*
X0121970Y0133452D01*
X0121976Y0133381D01*
X0121978Y0133311D01*
X0107017Y0136442D02*
X0102417Y0136442D01*
X0102417Y0137720D01*
X0102419Y0137790D01*
X0102425Y0137861D01*
X0102434Y0137930D01*
X0102448Y0137999D01*
X0102465Y0138068D01*
X0102486Y0138135D01*
X0102511Y0138201D01*
X0102539Y0138265D01*
X0102571Y0138328D01*
X0102606Y0138389D01*
X0102645Y0138448D01*
X0102686Y0138505D01*
X0102731Y0138559D01*
X0102779Y0138611D01*
X0102829Y0138660D01*
X0102883Y0138707D01*
X0102938Y0138750D01*
X0102996Y0138790D01*
X0103056Y0138827D01*
X0103118Y0138860D01*
X0103182Y0138890D01*
X0103247Y0138917D01*
X0103313Y0138940D01*
X0103381Y0138959D01*
X0103450Y0138974D01*
X0103519Y0138986D01*
X0103589Y0138994D01*
X0103660Y0138998D01*
X0103730Y0138998D01*
X0103801Y0138994D01*
X0103871Y0138986D01*
X0103940Y0138974D01*
X0104009Y0138959D01*
X0104077Y0138940D01*
X0104143Y0138917D01*
X0104208Y0138890D01*
X0104272Y0138860D01*
X0104334Y0138827D01*
X0104394Y0138790D01*
X0104452Y0138750D01*
X0104507Y0138707D01*
X0104561Y0138660D01*
X0104611Y0138611D01*
X0104659Y0138559D01*
X0104704Y0138505D01*
X0104745Y0138448D01*
X0104784Y0138389D01*
X0104819Y0138328D01*
X0104851Y0138265D01*
X0104879Y0138201D01*
X0104904Y0138135D01*
X0104925Y0138068D01*
X0104942Y0137999D01*
X0104956Y0137930D01*
X0104965Y0137861D01*
X0104971Y0137790D01*
X0104973Y0137720D01*
X0104972Y0137720D02*
X0104972Y0136442D01*
X0070061Y0134171D02*
X0070013Y0134275D01*
X0069967Y0134380D01*
X0069925Y0134486D01*
X0069886Y0134594D01*
X0069850Y0134703D01*
X0069818Y0134813D01*
X0069788Y0134924D01*
X0069763Y0135036D01*
X0069740Y0135148D01*
X0069721Y0135261D01*
X0069706Y0135375D01*
X0069694Y0135489D01*
X0069685Y0135603D01*
X0069680Y0135717D01*
X0069678Y0135832D01*
X0072234Y0135832D02*
X0072232Y0135947D01*
X0072227Y0136061D01*
X0072218Y0136175D01*
X0072206Y0136289D01*
X0072191Y0136403D01*
X0072172Y0136516D01*
X0072149Y0136628D01*
X0072124Y0136740D01*
X0072094Y0136851D01*
X0072062Y0136961D01*
X0072026Y0137070D01*
X0071987Y0137178D01*
X0071945Y0137284D01*
X0071899Y0137389D01*
X0071851Y0137493D01*
X0071978Y0137110D02*
X0069933Y0134555D01*
X0070956Y0133532D02*
X0071015Y0133534D01*
X0071073Y0133539D01*
X0071131Y0133548D01*
X0071188Y0133561D01*
X0071245Y0133577D01*
X0071300Y0133597D01*
X0071354Y0133620D01*
X0071406Y0133646D01*
X0071457Y0133676D01*
X0071506Y0133708D01*
X0071553Y0133744D01*
X0071597Y0133782D01*
X0071639Y0133823D01*
X0071678Y0133867D01*
X0071715Y0133913D01*
X0071748Y0133961D01*
X0071779Y0134011D01*
X0071806Y0134063D01*
X0071830Y0134116D01*
X0071851Y0134171D01*
X0070956Y0133532D02*
X0070897Y0133534D01*
X0070839Y0133539D01*
X0070781Y0133548D01*
X0070724Y0133561D01*
X0070667Y0133577D01*
X0070612Y0133597D01*
X0070558Y0133620D01*
X0070506Y0133646D01*
X0070455Y0133676D01*
X0070406Y0133708D01*
X0070359Y0133744D01*
X0070315Y0133782D01*
X0070273Y0133823D01*
X0070234Y0133867D01*
X0070197Y0133913D01*
X0070164Y0133961D01*
X0070133Y0134011D01*
X0070106Y0134063D01*
X0070082Y0134116D01*
X0070061Y0134171D01*
X0071850Y0134171D02*
X0071898Y0134275D01*
X0071944Y0134380D01*
X0071986Y0134486D01*
X0072025Y0134594D01*
X0072061Y0134703D01*
X0072093Y0134813D01*
X0072123Y0134924D01*
X0072148Y0135036D01*
X0072171Y0135148D01*
X0072190Y0135261D01*
X0072205Y0135375D01*
X0072217Y0135489D01*
X0072226Y0135603D01*
X0072231Y0135717D01*
X0072233Y0135832D01*
X0069678Y0135832D02*
X0069680Y0135947D01*
X0069685Y0136061D01*
X0069694Y0136175D01*
X0069706Y0136289D01*
X0069721Y0136403D01*
X0069740Y0136516D01*
X0069763Y0136628D01*
X0069788Y0136740D01*
X0069818Y0136851D01*
X0069850Y0136961D01*
X0069886Y0137070D01*
X0069925Y0137178D01*
X0069967Y0137284D01*
X0070013Y0137389D01*
X0070061Y0137493D01*
X0070956Y0138133D02*
X0071015Y0138131D01*
X0071073Y0138126D01*
X0071131Y0138117D01*
X0071188Y0138104D01*
X0071245Y0138088D01*
X0071300Y0138068D01*
X0071354Y0138045D01*
X0071406Y0138019D01*
X0071457Y0137989D01*
X0071506Y0137957D01*
X0071553Y0137921D01*
X0071597Y0137883D01*
X0071639Y0137842D01*
X0071678Y0137798D01*
X0071715Y0137752D01*
X0071748Y0137704D01*
X0071779Y0137654D01*
X0071806Y0137602D01*
X0071830Y0137549D01*
X0071851Y0137494D01*
X0070956Y0138133D02*
X0070897Y0138131D01*
X0070839Y0138126D01*
X0070781Y0138117D01*
X0070724Y0138104D01*
X0070667Y0138088D01*
X0070612Y0138068D01*
X0070558Y0138045D01*
X0070506Y0138019D01*
X0070455Y0137989D01*
X0070406Y0137957D01*
X0070359Y0137921D01*
X0070315Y0137883D01*
X0070273Y0137842D01*
X0070234Y0137798D01*
X0070197Y0137752D01*
X0070164Y0137704D01*
X0070133Y0137654D01*
X0070106Y0137602D01*
X0070082Y0137549D01*
X0070061Y0137494D01*
X0066456Y0138132D02*
X0066456Y0133532D01*
X0067733Y0133532D02*
X0065178Y0133532D01*
X0063262Y0133532D02*
X0062240Y0135577D01*
X0061985Y0135577D02*
X0060707Y0135577D01*
X0061985Y0135577D02*
X0062055Y0135579D01*
X0062126Y0135585D01*
X0062195Y0135594D01*
X0062264Y0135608D01*
X0062333Y0135625D01*
X0062400Y0135646D01*
X0062466Y0135671D01*
X0062530Y0135699D01*
X0062593Y0135731D01*
X0062654Y0135766D01*
X0062713Y0135805D01*
X0062770Y0135846D01*
X0062824Y0135891D01*
X0062876Y0135939D01*
X0062925Y0135989D01*
X0062972Y0136043D01*
X0063015Y0136098D01*
X0063055Y0136156D01*
X0063092Y0136216D01*
X0063125Y0136278D01*
X0063155Y0136342D01*
X0063182Y0136407D01*
X0063205Y0136473D01*
X0063224Y0136541D01*
X0063239Y0136610D01*
X0063251Y0136679D01*
X0063259Y0136749D01*
X0063263Y0136820D01*
X0063263Y0136890D01*
X0063259Y0136961D01*
X0063251Y0137031D01*
X0063239Y0137100D01*
X0063224Y0137169D01*
X0063205Y0137237D01*
X0063182Y0137303D01*
X0063155Y0137368D01*
X0063125Y0137432D01*
X0063092Y0137494D01*
X0063055Y0137554D01*
X0063015Y0137612D01*
X0062972Y0137667D01*
X0062925Y0137721D01*
X0062876Y0137771D01*
X0062824Y0137819D01*
X0062770Y0137864D01*
X0062713Y0137905D01*
X0062654Y0137944D01*
X0062593Y0137979D01*
X0062530Y0138011D01*
X0062466Y0138039D01*
X0062400Y0138064D01*
X0062333Y0138085D01*
X0062264Y0138102D01*
X0062195Y0138116D01*
X0062126Y0138125D01*
X0062055Y0138131D01*
X0061985Y0138133D01*
X0061985Y0138132D02*
X0060707Y0138132D01*
X0060707Y0133532D01*
X0055721Y0135243D02*
X0055721Y0135499D01*
X0055720Y0135499D02*
X0055718Y0135561D01*
X0055713Y0135622D01*
X0055703Y0135683D01*
X0055690Y0135744D01*
X0055674Y0135803D01*
X0055654Y0135861D01*
X0055630Y0135918D01*
X0055603Y0135974D01*
X0055573Y0136028D01*
X0055539Y0136080D01*
X0055503Y0136129D01*
X0055463Y0136177D01*
X0055421Y0136222D01*
X0055376Y0136264D01*
X0055328Y0136304D01*
X0055279Y0136340D01*
X0055227Y0136374D01*
X0055173Y0136404D01*
X0055117Y0136431D01*
X0055060Y0136455D01*
X0055002Y0136475D01*
X0054943Y0136491D01*
X0054882Y0136504D01*
X0054821Y0136514D01*
X0054760Y0136519D01*
X0054698Y0136521D01*
X0053165Y0136521D01*
X0053165Y0135243D01*
X0053167Y0135173D01*
X0053173Y0135102D01*
X0053182Y0135033D01*
X0053196Y0134964D01*
X0053213Y0134895D01*
X0053234Y0134828D01*
X0053259Y0134762D01*
X0053287Y0134698D01*
X0053319Y0134635D01*
X0053354Y0134574D01*
X0053393Y0134515D01*
X0053434Y0134458D01*
X0053479Y0134404D01*
X0053527Y0134352D01*
X0053577Y0134303D01*
X0053631Y0134256D01*
X0053686Y0134213D01*
X0053744Y0134173D01*
X0053804Y0134136D01*
X0053866Y0134103D01*
X0053930Y0134073D01*
X0053995Y0134046D01*
X0054061Y0134023D01*
X0054129Y0134004D01*
X0054198Y0133989D01*
X0054267Y0133977D01*
X0054337Y0133969D01*
X0054408Y0133965D01*
X0054478Y0133965D01*
X0054549Y0133969D01*
X0054619Y0133977D01*
X0054688Y0133989D01*
X0054757Y0134004D01*
X0054825Y0134023D01*
X0054891Y0134046D01*
X0054956Y0134073D01*
X0055020Y0134103D01*
X0055082Y0134136D01*
X0055142Y0134173D01*
X0055200Y0134213D01*
X0055255Y0134256D01*
X0055309Y0134303D01*
X0055359Y0134352D01*
X0055407Y0134404D01*
X0055452Y0134458D01*
X0055493Y0134515D01*
X0055532Y0134574D01*
X0055567Y0134635D01*
X0055599Y0134698D01*
X0055627Y0134762D01*
X0055652Y0134828D01*
X0055673Y0134895D01*
X0055690Y0134964D01*
X0055704Y0135033D01*
X0055713Y0135102D01*
X0055719Y0135173D01*
X0055721Y0135243D01*
X0053165Y0136521D02*
X0053167Y0136610D01*
X0053173Y0136699D01*
X0053182Y0136788D01*
X0053196Y0136876D01*
X0053213Y0136963D01*
X0053235Y0137050D01*
X0053260Y0137136D01*
X0053288Y0137220D01*
X0053321Y0137303D01*
X0053357Y0137385D01*
X0053396Y0137465D01*
X0053439Y0137543D01*
X0053485Y0137619D01*
X0053535Y0137693D01*
X0053587Y0137765D01*
X0053643Y0137835D01*
X0053702Y0137902D01*
X0053764Y0137966D01*
X0053828Y0138028D01*
X0053895Y0138087D01*
X0053965Y0138143D01*
X0054037Y0138195D01*
X0054111Y0138245D01*
X0054187Y0138291D01*
X0054265Y0138334D01*
X0054345Y0138373D01*
X0054427Y0138409D01*
X0054510Y0138442D01*
X0054594Y0138470D01*
X0054680Y0138495D01*
X0054767Y0138517D01*
X0054854Y0138534D01*
X0054942Y0138548D01*
X0055031Y0138557D01*
X0055120Y0138563D01*
X0055209Y0138565D01*
X0051071Y0137288D02*
X0051071Y0135243D01*
X0051069Y0135174D01*
X0051064Y0135105D01*
X0051054Y0135036D01*
X0051041Y0134968D01*
X0051024Y0134901D01*
X0051004Y0134835D01*
X0050980Y0134770D01*
X0050953Y0134706D01*
X0050922Y0134644D01*
X0050888Y0134584D01*
X0050851Y0134526D01*
X0050810Y0134470D01*
X0050767Y0134416D01*
X0050721Y0134364D01*
X0050672Y0134315D01*
X0050620Y0134269D01*
X0050566Y0134226D01*
X0050510Y0134185D01*
X0050452Y0134148D01*
X0050392Y0134114D01*
X0050330Y0134083D01*
X0050266Y0134056D01*
X0050201Y0134032D01*
X0050135Y0134012D01*
X0050068Y0133995D01*
X0050000Y0133982D01*
X0049931Y0133972D01*
X0049862Y0133967D01*
X0049793Y0133965D01*
X0048515Y0133965D01*
X0048515Y0138565D01*
X0049793Y0138565D01*
X0049793Y0138566D02*
X0049862Y0138564D01*
X0049931Y0138559D01*
X0050000Y0138549D01*
X0050068Y0138536D01*
X0050135Y0138519D01*
X0050201Y0138499D01*
X0050266Y0138475D01*
X0050330Y0138448D01*
X0050392Y0138417D01*
X0050452Y0138383D01*
X0050510Y0138346D01*
X0050566Y0138305D01*
X0050620Y0138262D01*
X0050672Y0138216D01*
X0050721Y0138167D01*
X0050767Y0138115D01*
X0050810Y0138061D01*
X0050851Y0138005D01*
X0050888Y0137947D01*
X0050922Y0137887D01*
X0050953Y0137825D01*
X0050980Y0137761D01*
X0051004Y0137696D01*
X0051024Y0137630D01*
X0051041Y0137563D01*
X0051054Y0137495D01*
X0051064Y0137426D01*
X0051069Y0137357D01*
X0051071Y0137288D01*
X0046668Y0138565D02*
X0044624Y0138565D01*
X0044624Y0133965D01*
X0046668Y0133965D01*
X0046157Y0136521D02*
X0044624Y0136521D01*
X0042768Y0133965D02*
X0040724Y0133965D01*
X0040724Y0138565D01*
X0031269Y0142310D02*
X0031269Y0143333D01*
X0031269Y0142310D02*
X0031267Y0142248D01*
X0031262Y0142187D01*
X0031252Y0142126D01*
X0031239Y0142065D01*
X0031223Y0142006D01*
X0031203Y0141948D01*
X0031179Y0141891D01*
X0031152Y0141835D01*
X0031122Y0141781D01*
X0031088Y0141729D01*
X0031052Y0141680D01*
X0031012Y0141632D01*
X0030970Y0141587D01*
X0030925Y0141545D01*
X0030877Y0141505D01*
X0030828Y0141469D01*
X0030776Y0141435D01*
X0030722Y0141405D01*
X0030666Y0141378D01*
X0030609Y0141354D01*
X0030551Y0141334D01*
X0030492Y0141318D01*
X0030431Y0141305D01*
X0030370Y0141295D01*
X0030309Y0141290D01*
X0030247Y0141288D01*
X0027691Y0141288D01*
X0027629Y0141290D01*
X0027568Y0141295D01*
X0027507Y0141305D01*
X0027446Y0141318D01*
X0027387Y0141334D01*
X0027329Y0141354D01*
X0027272Y0141378D01*
X0027216Y0141405D01*
X0027162Y0141435D01*
X0027110Y0141469D01*
X0027061Y0141505D01*
X0027013Y0141545D01*
X0026968Y0141587D01*
X0026926Y0141632D01*
X0026887Y0141680D01*
X0026850Y0141729D01*
X0026816Y0141781D01*
X0026786Y0141835D01*
X0026759Y0141891D01*
X0026735Y0141948D01*
X0026715Y0142006D01*
X0026699Y0142065D01*
X0026686Y0142126D01*
X0026676Y0142187D01*
X0026671Y0142248D01*
X0026669Y0142310D01*
X0026669Y0143333D01*
X0027691Y0145051D02*
X0026669Y0146329D01*
X0031269Y0146329D01*
X0031269Y0145051D02*
X0031269Y0147607D01*
X0030247Y0149551D02*
X0030247Y0152107D01*
X0031269Y0151340D02*
X0029224Y0151340D01*
X0030247Y0149551D02*
X0026669Y0150573D01*
X0065178Y0137110D02*
X0066456Y0138132D01*
X0061808Y0108231D02*
X0061808Y0103631D01*
X0063085Y0103631D02*
X0060530Y0103631D01*
X0058811Y0103631D02*
X0057789Y0103631D01*
X0057727Y0103633D01*
X0057666Y0103638D01*
X0057605Y0103648D01*
X0057544Y0103661D01*
X0057485Y0103677D01*
X0057427Y0103697D01*
X0057370Y0103721D01*
X0057314Y0103748D01*
X0057260Y0103778D01*
X0057208Y0103812D01*
X0057159Y0103848D01*
X0057111Y0103888D01*
X0057066Y0103930D01*
X0057024Y0103975D01*
X0056984Y0104023D01*
X0056948Y0104072D01*
X0056914Y0104124D01*
X0056884Y0104178D01*
X0056857Y0104234D01*
X0056833Y0104291D01*
X0056813Y0104349D01*
X0056797Y0104408D01*
X0056784Y0104469D01*
X0056774Y0104530D01*
X0056769Y0104591D01*
X0056767Y0104653D01*
X0056767Y0107208D01*
X0056769Y0107270D01*
X0056774Y0107331D01*
X0056784Y0107392D01*
X0056797Y0107453D01*
X0056813Y0107512D01*
X0056833Y0107570D01*
X0056857Y0107627D01*
X0056884Y0107683D01*
X0056914Y0107737D01*
X0056948Y0107789D01*
X0056984Y0107838D01*
X0057024Y0107886D01*
X0057066Y0107931D01*
X0057111Y0107973D01*
X0057159Y0108012D01*
X0057208Y0108049D01*
X0057260Y0108083D01*
X0057314Y0108113D01*
X0057370Y0108140D01*
X0057427Y0108164D01*
X0057485Y0108184D01*
X0057544Y0108200D01*
X0057605Y0108213D01*
X0057666Y0108223D01*
X0057727Y0108228D01*
X0057789Y0108230D01*
X0057789Y0108231D02*
X0058811Y0108231D01*
X0060530Y0107208D02*
X0061808Y0108231D01*
X0054969Y0108231D02*
X0053947Y0108231D01*
X0054458Y0108231D02*
X0054458Y0103631D01*
X0053947Y0103631D02*
X0054969Y0103631D01*
X0029733Y0100719D02*
X0029733Y0098163D01*
X0029733Y0099441D02*
X0025133Y0099441D01*
X0026156Y0098163D01*
X0025133Y0096445D02*
X0025133Y0095423D01*
X0025134Y0095423D02*
X0025136Y0095361D01*
X0025141Y0095300D01*
X0025151Y0095239D01*
X0025164Y0095178D01*
X0025180Y0095119D01*
X0025200Y0095061D01*
X0025224Y0095004D01*
X0025251Y0094948D01*
X0025281Y0094894D01*
X0025315Y0094842D01*
X0025352Y0094793D01*
X0025391Y0094745D01*
X0025433Y0094700D01*
X0025478Y0094658D01*
X0025526Y0094618D01*
X0025575Y0094582D01*
X0025627Y0094548D01*
X0025681Y0094518D01*
X0025737Y0094491D01*
X0025794Y0094467D01*
X0025852Y0094447D01*
X0025911Y0094431D01*
X0025972Y0094418D01*
X0026033Y0094408D01*
X0026094Y0094403D01*
X0026156Y0094401D01*
X0026156Y0094400D02*
X0028711Y0094400D01*
X0028711Y0094401D02*
X0028773Y0094403D01*
X0028834Y0094408D01*
X0028895Y0094418D01*
X0028956Y0094431D01*
X0029015Y0094447D01*
X0029073Y0094467D01*
X0029130Y0094491D01*
X0029186Y0094518D01*
X0029240Y0094548D01*
X0029292Y0094582D01*
X0029341Y0094618D01*
X0029389Y0094658D01*
X0029434Y0094700D01*
X0029476Y0094745D01*
X0029516Y0094793D01*
X0029552Y0094842D01*
X0029586Y0094894D01*
X0029616Y0094948D01*
X0029643Y0095004D01*
X0029667Y0095061D01*
X0029687Y0095119D01*
X0029703Y0095178D01*
X0029716Y0095239D01*
X0029726Y0095300D01*
X0029731Y0095361D01*
X0029733Y0095423D01*
X0029733Y0096445D01*
X0026667Y0102663D02*
X0026411Y0102663D01*
X0026667Y0102664D02*
X0026729Y0102666D01*
X0026790Y0102671D01*
X0026851Y0102681D01*
X0026912Y0102694D01*
X0026971Y0102710D01*
X0027029Y0102730D01*
X0027086Y0102754D01*
X0027142Y0102781D01*
X0027196Y0102811D01*
X0027248Y0102845D01*
X0027297Y0102881D01*
X0027345Y0102921D01*
X0027390Y0102963D01*
X0027432Y0103008D01*
X0027472Y0103056D01*
X0027508Y0103105D01*
X0027542Y0103157D01*
X0027572Y0103211D01*
X0027599Y0103267D01*
X0027623Y0103324D01*
X0027643Y0103382D01*
X0027659Y0103441D01*
X0027672Y0103502D01*
X0027682Y0103563D01*
X0027687Y0103624D01*
X0027689Y0103686D01*
X0027689Y0105219D01*
X0026411Y0105219D01*
X0026341Y0105217D01*
X0026270Y0105211D01*
X0026201Y0105202D01*
X0026132Y0105188D01*
X0026063Y0105171D01*
X0025996Y0105150D01*
X0025930Y0105125D01*
X0025866Y0105097D01*
X0025803Y0105065D01*
X0025742Y0105030D01*
X0025683Y0104991D01*
X0025626Y0104950D01*
X0025572Y0104905D01*
X0025520Y0104857D01*
X0025471Y0104807D01*
X0025424Y0104753D01*
X0025381Y0104698D01*
X0025341Y0104640D01*
X0025304Y0104580D01*
X0025271Y0104518D01*
X0025241Y0104454D01*
X0025214Y0104389D01*
X0025191Y0104323D01*
X0025172Y0104255D01*
X0025157Y0104186D01*
X0025145Y0104117D01*
X0025137Y0104047D01*
X0025133Y0103976D01*
X0025133Y0103906D01*
X0025137Y0103835D01*
X0025145Y0103765D01*
X0025157Y0103696D01*
X0025172Y0103627D01*
X0025191Y0103559D01*
X0025214Y0103493D01*
X0025241Y0103428D01*
X0025271Y0103364D01*
X0025304Y0103302D01*
X0025341Y0103242D01*
X0025381Y0103184D01*
X0025424Y0103129D01*
X0025471Y0103075D01*
X0025520Y0103025D01*
X0025572Y0102977D01*
X0025626Y0102932D01*
X0025683Y0102891D01*
X0025742Y0102852D01*
X0025803Y0102817D01*
X0025866Y0102785D01*
X0025930Y0102757D01*
X0025996Y0102732D01*
X0026063Y0102711D01*
X0026132Y0102694D01*
X0026201Y0102680D01*
X0026270Y0102671D01*
X0026341Y0102665D01*
X0026411Y0102663D01*
X0027689Y0105218D02*
X0027778Y0105216D01*
X0027867Y0105210D01*
X0027956Y0105201D01*
X0028044Y0105187D01*
X0028131Y0105170D01*
X0028218Y0105148D01*
X0028304Y0105123D01*
X0028388Y0105095D01*
X0028471Y0105062D01*
X0028553Y0105026D01*
X0028633Y0104987D01*
X0028711Y0104944D01*
X0028787Y0104898D01*
X0028861Y0104848D01*
X0028933Y0104796D01*
X0029003Y0104740D01*
X0029070Y0104681D01*
X0029134Y0104619D01*
X0029196Y0104555D01*
X0029255Y0104488D01*
X0029311Y0104418D01*
X0029363Y0104346D01*
X0029413Y0104272D01*
X0029459Y0104196D01*
X0029502Y0104118D01*
X0029541Y0104038D01*
X0029577Y0103956D01*
X0029610Y0103873D01*
X0029638Y0103789D01*
X0029663Y0103703D01*
X0029685Y0103616D01*
X0029702Y0103529D01*
X0029716Y0103441D01*
X0029725Y0103352D01*
X0029731Y0103263D01*
X0029733Y0103174D01*
X0096534Y0088526D02*
X0096534Y0083926D01*
X0096534Y0085970D02*
X0097811Y0085970D01*
X0098067Y0085970D02*
X0099089Y0083926D01*
X0101005Y0083926D02*
X0103560Y0083926D01*
X0102282Y0083926D02*
X0102282Y0088526D01*
X0101005Y0087504D01*
X0097811Y0088526D02*
X0097881Y0088524D01*
X0097952Y0088518D01*
X0098021Y0088509D01*
X0098090Y0088495D01*
X0098159Y0088478D01*
X0098226Y0088457D01*
X0098292Y0088432D01*
X0098356Y0088404D01*
X0098419Y0088372D01*
X0098480Y0088337D01*
X0098539Y0088298D01*
X0098596Y0088257D01*
X0098650Y0088212D01*
X0098702Y0088164D01*
X0098751Y0088114D01*
X0098798Y0088060D01*
X0098841Y0088005D01*
X0098881Y0087947D01*
X0098918Y0087887D01*
X0098951Y0087825D01*
X0098981Y0087761D01*
X0099008Y0087696D01*
X0099031Y0087630D01*
X0099050Y0087562D01*
X0099065Y0087493D01*
X0099077Y0087424D01*
X0099085Y0087354D01*
X0099089Y0087283D01*
X0099089Y0087213D01*
X0099085Y0087142D01*
X0099077Y0087072D01*
X0099065Y0087003D01*
X0099050Y0086934D01*
X0099031Y0086866D01*
X0099008Y0086800D01*
X0098981Y0086735D01*
X0098951Y0086671D01*
X0098918Y0086609D01*
X0098881Y0086549D01*
X0098841Y0086491D01*
X0098798Y0086436D01*
X0098751Y0086382D01*
X0098702Y0086332D01*
X0098650Y0086284D01*
X0098596Y0086239D01*
X0098539Y0086198D01*
X0098480Y0086159D01*
X0098419Y0086124D01*
X0098356Y0086092D01*
X0098292Y0086064D01*
X0098226Y0086039D01*
X0098159Y0086018D01*
X0098090Y0086001D01*
X0098021Y0085987D01*
X0097952Y0085978D01*
X0097881Y0085972D01*
X0097811Y0085970D01*
X0097811Y0088526D02*
X0096534Y0088526D01*
X0097161Y0091446D02*
X0097161Y0096046D01*
X0098439Y0096046D01*
X0098509Y0096044D01*
X0098580Y0096038D01*
X0098649Y0096029D01*
X0098718Y0096015D01*
X0098787Y0095998D01*
X0098854Y0095977D01*
X0098920Y0095952D01*
X0098984Y0095924D01*
X0099047Y0095892D01*
X0099108Y0095857D01*
X0099167Y0095818D01*
X0099224Y0095777D01*
X0099278Y0095732D01*
X0099330Y0095684D01*
X0099379Y0095634D01*
X0099426Y0095580D01*
X0099469Y0095525D01*
X0099509Y0095467D01*
X0099546Y0095407D01*
X0099579Y0095345D01*
X0099609Y0095281D01*
X0099636Y0095216D01*
X0099659Y0095150D01*
X0099678Y0095082D01*
X0099693Y0095013D01*
X0099705Y0094944D01*
X0099713Y0094874D01*
X0099717Y0094803D01*
X0099717Y0094733D01*
X0099713Y0094662D01*
X0099705Y0094592D01*
X0099693Y0094523D01*
X0099678Y0094454D01*
X0099659Y0094386D01*
X0099636Y0094320D01*
X0099609Y0094255D01*
X0099579Y0094191D01*
X0099546Y0094129D01*
X0099509Y0094069D01*
X0099469Y0094011D01*
X0099426Y0093956D01*
X0099379Y0093902D01*
X0099330Y0093852D01*
X0099278Y0093804D01*
X0099224Y0093759D01*
X0099167Y0093718D01*
X0099108Y0093679D01*
X0099047Y0093644D01*
X0098984Y0093612D01*
X0098920Y0093584D01*
X0098854Y0093559D01*
X0098787Y0093538D01*
X0098718Y0093521D01*
X0098649Y0093507D01*
X0098580Y0093498D01*
X0098509Y0093492D01*
X0098439Y0093490D01*
X0097161Y0093490D01*
X0098694Y0093490D02*
X0099716Y0091446D01*
X0101632Y0092468D02*
X0104187Y0092468D01*
X0103421Y0093490D02*
X0103421Y0091446D01*
X0101632Y0092468D02*
X0102654Y0096046D01*
X0106527Y0088526D02*
X0105505Y0084948D01*
X0108060Y0084948D01*
X0107293Y0085970D02*
X0107293Y0083926D01*
X0107038Y0080652D02*
X0105505Y0080652D01*
X0107038Y0080652D02*
X0107101Y0080650D01*
X0107164Y0080644D01*
X0107226Y0080635D01*
X0107287Y0080621D01*
X0107348Y0080604D01*
X0107407Y0080583D01*
X0107465Y0080558D01*
X0107522Y0080530D01*
X0107576Y0080499D01*
X0107628Y0080464D01*
X0107679Y0080426D01*
X0107727Y0080385D01*
X0107772Y0080341D01*
X0107814Y0080295D01*
X0107854Y0080246D01*
X0107890Y0080195D01*
X0107923Y0080141D01*
X0107953Y0080086D01*
X0107979Y0080028D01*
X0108002Y0079970D01*
X0108021Y0079910D01*
X0108036Y0079849D01*
X0108048Y0079787D01*
X0108056Y0079724D01*
X0108060Y0079661D01*
X0108060Y0079599D01*
X0108056Y0079536D01*
X0108048Y0079473D01*
X0108036Y0079411D01*
X0108021Y0079350D01*
X0108002Y0079290D01*
X0107979Y0079232D01*
X0107953Y0079174D01*
X0107923Y0079119D01*
X0107890Y0079065D01*
X0107854Y0079014D01*
X0107814Y0078965D01*
X0107772Y0078919D01*
X0107727Y0078875D01*
X0107679Y0078834D01*
X0107628Y0078796D01*
X0107576Y0078761D01*
X0107522Y0078730D01*
X0107465Y0078702D01*
X0107407Y0078677D01*
X0107348Y0078656D01*
X0107287Y0078639D01*
X0107226Y0078625D01*
X0107164Y0078616D01*
X0107101Y0078610D01*
X0107038Y0078608D01*
X0106016Y0078608D01*
X0106782Y0078608D02*
X0106852Y0078606D01*
X0106923Y0078600D01*
X0106992Y0078591D01*
X0107061Y0078577D01*
X0107130Y0078560D01*
X0107197Y0078539D01*
X0107263Y0078514D01*
X0107327Y0078486D01*
X0107390Y0078454D01*
X0107451Y0078419D01*
X0107510Y0078380D01*
X0107567Y0078339D01*
X0107621Y0078294D01*
X0107673Y0078246D01*
X0107722Y0078196D01*
X0107769Y0078142D01*
X0107812Y0078087D01*
X0107852Y0078029D01*
X0107889Y0077969D01*
X0107922Y0077907D01*
X0107952Y0077843D01*
X0107979Y0077778D01*
X0108002Y0077712D01*
X0108021Y0077644D01*
X0108036Y0077575D01*
X0108048Y0077506D01*
X0108056Y0077436D01*
X0108060Y0077365D01*
X0108060Y0077295D01*
X0108056Y0077224D01*
X0108048Y0077154D01*
X0108036Y0077085D01*
X0108021Y0077016D01*
X0108002Y0076948D01*
X0107979Y0076882D01*
X0107952Y0076817D01*
X0107922Y0076753D01*
X0107889Y0076691D01*
X0107852Y0076631D01*
X0107812Y0076573D01*
X0107769Y0076518D01*
X0107722Y0076464D01*
X0107673Y0076414D01*
X0107621Y0076366D01*
X0107567Y0076321D01*
X0107510Y0076280D01*
X0107451Y0076241D01*
X0107390Y0076206D01*
X0107327Y0076174D01*
X0107263Y0076146D01*
X0107197Y0076121D01*
X0107130Y0076100D01*
X0107061Y0076083D01*
X0106992Y0076069D01*
X0106923Y0076060D01*
X0106852Y0076054D01*
X0106782Y0076052D01*
X0105505Y0076052D01*
X0103560Y0076052D02*
X0101005Y0076052D01*
X0102282Y0076052D02*
X0102282Y0080652D01*
X0101005Y0079630D01*
X0097811Y0080652D02*
X0097881Y0080650D01*
X0097952Y0080644D01*
X0098021Y0080635D01*
X0098090Y0080621D01*
X0098159Y0080604D01*
X0098226Y0080583D01*
X0098292Y0080558D01*
X0098356Y0080530D01*
X0098419Y0080498D01*
X0098480Y0080463D01*
X0098539Y0080424D01*
X0098596Y0080383D01*
X0098650Y0080338D01*
X0098702Y0080290D01*
X0098751Y0080240D01*
X0098798Y0080186D01*
X0098841Y0080131D01*
X0098881Y0080073D01*
X0098918Y0080013D01*
X0098951Y0079951D01*
X0098981Y0079887D01*
X0099008Y0079822D01*
X0099031Y0079756D01*
X0099050Y0079688D01*
X0099065Y0079619D01*
X0099077Y0079550D01*
X0099085Y0079480D01*
X0099089Y0079409D01*
X0099089Y0079339D01*
X0099085Y0079268D01*
X0099077Y0079198D01*
X0099065Y0079129D01*
X0099050Y0079060D01*
X0099031Y0078992D01*
X0099008Y0078926D01*
X0098981Y0078861D01*
X0098951Y0078797D01*
X0098918Y0078735D01*
X0098881Y0078675D01*
X0098841Y0078617D01*
X0098798Y0078562D01*
X0098751Y0078508D01*
X0098702Y0078458D01*
X0098650Y0078410D01*
X0098596Y0078365D01*
X0098539Y0078324D01*
X0098480Y0078285D01*
X0098419Y0078250D01*
X0098356Y0078218D01*
X0098292Y0078190D01*
X0098226Y0078165D01*
X0098159Y0078144D01*
X0098090Y0078127D01*
X0098021Y0078113D01*
X0097952Y0078104D01*
X0097881Y0078098D01*
X0097811Y0078096D01*
X0096534Y0078096D01*
X0098067Y0078096D02*
X0099089Y0076052D01*
X0096534Y0076052D02*
X0096534Y0080652D01*
X0097811Y0080652D01*
X0099065Y0072384D02*
X0100343Y0072384D01*
X0100413Y0072382D01*
X0100484Y0072376D01*
X0100553Y0072367D01*
X0100622Y0072353D01*
X0100691Y0072336D01*
X0100758Y0072315D01*
X0100824Y0072290D01*
X0100888Y0072262D01*
X0100951Y0072230D01*
X0101012Y0072195D01*
X0101071Y0072156D01*
X0101128Y0072115D01*
X0101182Y0072070D01*
X0101234Y0072022D01*
X0101283Y0071972D01*
X0101330Y0071918D01*
X0101373Y0071863D01*
X0101413Y0071805D01*
X0101450Y0071745D01*
X0101483Y0071683D01*
X0101513Y0071619D01*
X0101540Y0071554D01*
X0101563Y0071488D01*
X0101582Y0071420D01*
X0101597Y0071351D01*
X0101609Y0071282D01*
X0101617Y0071212D01*
X0101621Y0071141D01*
X0101621Y0071071D01*
X0101617Y0071000D01*
X0101609Y0070930D01*
X0101597Y0070861D01*
X0101582Y0070792D01*
X0101563Y0070724D01*
X0101540Y0070658D01*
X0101513Y0070593D01*
X0101483Y0070529D01*
X0101450Y0070467D01*
X0101413Y0070407D01*
X0101373Y0070349D01*
X0101330Y0070294D01*
X0101283Y0070240D01*
X0101234Y0070190D01*
X0101182Y0070142D01*
X0101128Y0070097D01*
X0101071Y0070056D01*
X0101012Y0070017D01*
X0100951Y0069982D01*
X0100888Y0069950D01*
X0100824Y0069922D01*
X0100758Y0069897D01*
X0100691Y0069876D01*
X0100622Y0069859D01*
X0100553Y0069845D01*
X0100484Y0069836D01*
X0100413Y0069830D01*
X0100343Y0069828D01*
X0100343Y0069829D02*
X0099065Y0069829D01*
X0100598Y0069829D02*
X0101621Y0067784D01*
X0099065Y0067784D02*
X0099065Y0072384D01*
X0103792Y0071362D02*
X0103794Y0071299D01*
X0103800Y0071236D01*
X0103809Y0071174D01*
X0103823Y0071113D01*
X0103840Y0071052D01*
X0103861Y0070993D01*
X0103886Y0070935D01*
X0103914Y0070878D01*
X0103945Y0070824D01*
X0103980Y0070772D01*
X0104018Y0070721D01*
X0104059Y0070673D01*
X0104103Y0070628D01*
X0104149Y0070586D01*
X0104198Y0070546D01*
X0104249Y0070510D01*
X0104303Y0070477D01*
X0104358Y0070447D01*
X0104416Y0070421D01*
X0104474Y0070398D01*
X0104534Y0070379D01*
X0104595Y0070364D01*
X0104657Y0070352D01*
X0104720Y0070344D01*
X0104783Y0070340D01*
X0104845Y0070340D01*
X0104908Y0070344D01*
X0104971Y0070352D01*
X0105033Y0070364D01*
X0105094Y0070379D01*
X0105154Y0070398D01*
X0105212Y0070421D01*
X0105270Y0070447D01*
X0105325Y0070477D01*
X0105379Y0070510D01*
X0105430Y0070546D01*
X0105479Y0070586D01*
X0105525Y0070628D01*
X0105569Y0070673D01*
X0105610Y0070721D01*
X0105648Y0070772D01*
X0105683Y0070824D01*
X0105714Y0070878D01*
X0105742Y0070935D01*
X0105767Y0070993D01*
X0105788Y0071052D01*
X0105805Y0071113D01*
X0105819Y0071174D01*
X0105828Y0071236D01*
X0105834Y0071299D01*
X0105836Y0071362D01*
X0105834Y0071425D01*
X0105828Y0071488D01*
X0105819Y0071550D01*
X0105805Y0071611D01*
X0105788Y0071672D01*
X0105767Y0071731D01*
X0105742Y0071789D01*
X0105714Y0071846D01*
X0105683Y0071900D01*
X0105648Y0071952D01*
X0105610Y0072003D01*
X0105569Y0072051D01*
X0105525Y0072096D01*
X0105479Y0072138D01*
X0105430Y0072178D01*
X0105379Y0072214D01*
X0105325Y0072247D01*
X0105270Y0072277D01*
X0105212Y0072303D01*
X0105154Y0072326D01*
X0105094Y0072345D01*
X0105033Y0072360D01*
X0104971Y0072372D01*
X0104908Y0072380D01*
X0104845Y0072384D01*
X0104783Y0072384D01*
X0104720Y0072380D01*
X0104657Y0072372D01*
X0104595Y0072360D01*
X0104534Y0072345D01*
X0104474Y0072326D01*
X0104416Y0072303D01*
X0104358Y0072277D01*
X0104303Y0072247D01*
X0104249Y0072214D01*
X0104198Y0072178D01*
X0104149Y0072138D01*
X0104103Y0072096D01*
X0104059Y0072051D01*
X0104018Y0072003D01*
X0103980Y0071952D01*
X0103945Y0071900D01*
X0103914Y0071846D01*
X0103886Y0071789D01*
X0103861Y0071731D01*
X0103840Y0071672D01*
X0103823Y0071611D01*
X0103809Y0071550D01*
X0103800Y0071488D01*
X0103794Y0071425D01*
X0103792Y0071362D01*
X0103536Y0069062D02*
X0103538Y0068992D01*
X0103544Y0068921D01*
X0103553Y0068852D01*
X0103567Y0068783D01*
X0103584Y0068714D01*
X0103605Y0068647D01*
X0103630Y0068581D01*
X0103658Y0068517D01*
X0103690Y0068454D01*
X0103725Y0068393D01*
X0103764Y0068334D01*
X0103805Y0068277D01*
X0103850Y0068223D01*
X0103898Y0068171D01*
X0103948Y0068122D01*
X0104002Y0068075D01*
X0104057Y0068032D01*
X0104115Y0067992D01*
X0104175Y0067955D01*
X0104237Y0067922D01*
X0104301Y0067892D01*
X0104366Y0067865D01*
X0104432Y0067842D01*
X0104500Y0067823D01*
X0104569Y0067808D01*
X0104638Y0067796D01*
X0104708Y0067788D01*
X0104779Y0067784D01*
X0104849Y0067784D01*
X0104920Y0067788D01*
X0104990Y0067796D01*
X0105059Y0067808D01*
X0105128Y0067823D01*
X0105196Y0067842D01*
X0105262Y0067865D01*
X0105327Y0067892D01*
X0105391Y0067922D01*
X0105453Y0067955D01*
X0105513Y0067992D01*
X0105571Y0068032D01*
X0105626Y0068075D01*
X0105680Y0068122D01*
X0105730Y0068171D01*
X0105778Y0068223D01*
X0105823Y0068277D01*
X0105864Y0068334D01*
X0105903Y0068393D01*
X0105938Y0068454D01*
X0105970Y0068517D01*
X0105998Y0068581D01*
X0106023Y0068647D01*
X0106044Y0068714D01*
X0106061Y0068783D01*
X0106075Y0068852D01*
X0106084Y0068921D01*
X0106090Y0068992D01*
X0106092Y0069062D01*
X0106090Y0069132D01*
X0106084Y0069203D01*
X0106075Y0069272D01*
X0106061Y0069341D01*
X0106044Y0069410D01*
X0106023Y0069477D01*
X0105998Y0069543D01*
X0105970Y0069607D01*
X0105938Y0069670D01*
X0105903Y0069731D01*
X0105864Y0069790D01*
X0105823Y0069847D01*
X0105778Y0069901D01*
X0105730Y0069953D01*
X0105680Y0070002D01*
X0105626Y0070049D01*
X0105571Y0070092D01*
X0105513Y0070132D01*
X0105453Y0070169D01*
X0105391Y0070202D01*
X0105327Y0070232D01*
X0105262Y0070259D01*
X0105196Y0070282D01*
X0105128Y0070301D01*
X0105059Y0070316D01*
X0104990Y0070328D01*
X0104920Y0070336D01*
X0104849Y0070340D01*
X0104779Y0070340D01*
X0104708Y0070336D01*
X0104638Y0070328D01*
X0104569Y0070316D01*
X0104500Y0070301D01*
X0104432Y0070282D01*
X0104366Y0070259D01*
X0104301Y0070232D01*
X0104237Y0070202D01*
X0104175Y0070169D01*
X0104115Y0070132D01*
X0104057Y0070092D01*
X0104002Y0070049D01*
X0103948Y0070002D01*
X0103898Y0069953D01*
X0103850Y0069901D01*
X0103805Y0069847D01*
X0103764Y0069790D01*
X0103725Y0069731D01*
X0103690Y0069670D01*
X0103658Y0069607D01*
X0103630Y0069543D01*
X0103605Y0069477D01*
X0103584Y0069410D01*
X0103567Y0069341D01*
X0103553Y0069272D01*
X0103544Y0069203D01*
X0103538Y0069132D01*
X0103536Y0069062D01*
X0110921Y0094576D02*
X0110921Y0095853D01*
X0110921Y0094576D02*
X0115521Y0094576D01*
X0113476Y0094576D02*
X0113476Y0095853D01*
X0113476Y0096109D02*
X0115521Y0097131D01*
X0115521Y0100324D02*
X0110921Y0101602D01*
X0110921Y0099047D01*
X0111432Y0099047D01*
X0110921Y0095853D02*
X0110923Y0095923D01*
X0110929Y0095994D01*
X0110938Y0096063D01*
X0110952Y0096132D01*
X0110969Y0096201D01*
X0110990Y0096268D01*
X0111015Y0096334D01*
X0111043Y0096398D01*
X0111075Y0096461D01*
X0111110Y0096522D01*
X0111149Y0096581D01*
X0111190Y0096638D01*
X0111235Y0096692D01*
X0111283Y0096744D01*
X0111333Y0096793D01*
X0111387Y0096840D01*
X0111442Y0096883D01*
X0111500Y0096923D01*
X0111560Y0096960D01*
X0111622Y0096993D01*
X0111686Y0097023D01*
X0111751Y0097050D01*
X0111817Y0097073D01*
X0111885Y0097092D01*
X0111954Y0097107D01*
X0112023Y0097119D01*
X0112093Y0097127D01*
X0112164Y0097131D01*
X0112234Y0097131D01*
X0112305Y0097127D01*
X0112375Y0097119D01*
X0112444Y0097107D01*
X0112513Y0097092D01*
X0112581Y0097073D01*
X0112647Y0097050D01*
X0112712Y0097023D01*
X0112776Y0096993D01*
X0112838Y0096960D01*
X0112898Y0096923D01*
X0112956Y0096883D01*
X0113011Y0096840D01*
X0113065Y0096793D01*
X0113115Y0096744D01*
X0113163Y0096692D01*
X0113208Y0096638D01*
X0113249Y0096581D01*
X0113288Y0096522D01*
X0113323Y0096461D01*
X0113355Y0096398D01*
X0113383Y0096334D01*
X0113408Y0096268D01*
X0113429Y0096201D01*
X0113446Y0096132D01*
X0113460Y0096063D01*
X0113469Y0095994D01*
X0113475Y0095923D01*
X0113477Y0095853D01*
X0149936Y0126285D02*
X0149936Y0127819D01*
X0149937Y0127819D02*
X0149939Y0127882D01*
X0149945Y0127945D01*
X0149954Y0128007D01*
X0149968Y0128068D01*
X0149985Y0128129D01*
X0150006Y0128188D01*
X0150031Y0128246D01*
X0150059Y0128303D01*
X0150090Y0128357D01*
X0150125Y0128409D01*
X0150163Y0128460D01*
X0150204Y0128508D01*
X0150248Y0128553D01*
X0150294Y0128595D01*
X0150343Y0128635D01*
X0150394Y0128671D01*
X0150448Y0128704D01*
X0150503Y0128734D01*
X0150561Y0128760D01*
X0150619Y0128783D01*
X0150679Y0128802D01*
X0150740Y0128817D01*
X0150802Y0128829D01*
X0150865Y0128837D01*
X0150928Y0128841D01*
X0150990Y0128841D01*
X0151053Y0128837D01*
X0151116Y0128829D01*
X0151178Y0128817D01*
X0151239Y0128802D01*
X0151299Y0128783D01*
X0151357Y0128760D01*
X0151415Y0128734D01*
X0151470Y0128704D01*
X0151524Y0128671D01*
X0151575Y0128635D01*
X0151624Y0128595D01*
X0151670Y0128553D01*
X0151714Y0128508D01*
X0151755Y0128460D01*
X0151793Y0128409D01*
X0151828Y0128357D01*
X0151859Y0128303D01*
X0151887Y0128246D01*
X0151912Y0128188D01*
X0151933Y0128129D01*
X0151950Y0128068D01*
X0151964Y0128007D01*
X0151973Y0127945D01*
X0151979Y0127882D01*
X0151981Y0127819D01*
X0151981Y0126797D01*
X0151981Y0127563D02*
X0151983Y0127633D01*
X0151989Y0127704D01*
X0151998Y0127773D01*
X0152012Y0127842D01*
X0152029Y0127911D01*
X0152050Y0127978D01*
X0152075Y0128044D01*
X0152103Y0128108D01*
X0152135Y0128171D01*
X0152170Y0128232D01*
X0152209Y0128291D01*
X0152250Y0128348D01*
X0152295Y0128402D01*
X0152343Y0128454D01*
X0152393Y0128503D01*
X0152447Y0128550D01*
X0152502Y0128593D01*
X0152560Y0128633D01*
X0152620Y0128670D01*
X0152682Y0128703D01*
X0152746Y0128733D01*
X0152811Y0128760D01*
X0152877Y0128783D01*
X0152945Y0128802D01*
X0153014Y0128817D01*
X0153083Y0128829D01*
X0153153Y0128837D01*
X0153224Y0128841D01*
X0153294Y0128841D01*
X0153365Y0128837D01*
X0153435Y0128829D01*
X0153504Y0128817D01*
X0153573Y0128802D01*
X0153641Y0128783D01*
X0153707Y0128760D01*
X0153772Y0128733D01*
X0153836Y0128703D01*
X0153898Y0128670D01*
X0153958Y0128633D01*
X0154016Y0128593D01*
X0154071Y0128550D01*
X0154125Y0128503D01*
X0154175Y0128454D01*
X0154223Y0128402D01*
X0154268Y0128348D01*
X0154309Y0128291D01*
X0154348Y0128232D01*
X0154383Y0128171D01*
X0154415Y0128108D01*
X0154443Y0128044D01*
X0154468Y0127978D01*
X0154489Y0127911D01*
X0154506Y0127842D01*
X0154520Y0127773D01*
X0154529Y0127704D01*
X0154535Y0127633D01*
X0154537Y0127563D01*
X0154536Y0127563D02*
X0154536Y0126285D01*
X0156823Y0132448D02*
X0156825Y0132378D01*
X0156831Y0132307D01*
X0156840Y0132238D01*
X0156854Y0132169D01*
X0156871Y0132100D01*
X0156892Y0132033D01*
X0156917Y0131967D01*
X0156945Y0131903D01*
X0156977Y0131840D01*
X0157012Y0131779D01*
X0157051Y0131720D01*
X0157092Y0131663D01*
X0157137Y0131609D01*
X0157185Y0131557D01*
X0157235Y0131508D01*
X0157289Y0131461D01*
X0157344Y0131418D01*
X0157402Y0131378D01*
X0157462Y0131341D01*
X0157524Y0131308D01*
X0157588Y0131278D01*
X0157653Y0131251D01*
X0157719Y0131228D01*
X0157787Y0131209D01*
X0157856Y0131194D01*
X0157925Y0131182D01*
X0157995Y0131174D01*
X0158066Y0131170D01*
X0158136Y0131170D01*
X0158207Y0131174D01*
X0158277Y0131182D01*
X0158346Y0131194D01*
X0158415Y0131209D01*
X0158483Y0131228D01*
X0158549Y0131251D01*
X0158614Y0131278D01*
X0158678Y0131308D01*
X0158740Y0131341D01*
X0158800Y0131378D01*
X0158858Y0131418D01*
X0158913Y0131461D01*
X0158967Y0131508D01*
X0159017Y0131557D01*
X0159065Y0131609D01*
X0159110Y0131663D01*
X0159151Y0131720D01*
X0159190Y0131779D01*
X0159225Y0131840D01*
X0159257Y0131903D01*
X0159285Y0131967D01*
X0159310Y0132033D01*
X0159331Y0132100D01*
X0159348Y0132169D01*
X0159362Y0132238D01*
X0159371Y0132307D01*
X0159377Y0132378D01*
X0159379Y0132448D01*
X0159377Y0132518D01*
X0159371Y0132589D01*
X0159362Y0132658D01*
X0159348Y0132727D01*
X0159331Y0132796D01*
X0159310Y0132863D01*
X0159285Y0132929D01*
X0159257Y0132993D01*
X0159225Y0133056D01*
X0159190Y0133117D01*
X0159151Y0133176D01*
X0159110Y0133233D01*
X0159065Y0133287D01*
X0159017Y0133339D01*
X0158967Y0133388D01*
X0158913Y0133435D01*
X0158858Y0133478D01*
X0158800Y0133518D01*
X0158740Y0133555D01*
X0158678Y0133588D01*
X0158614Y0133618D01*
X0158549Y0133645D01*
X0158483Y0133668D01*
X0158415Y0133687D01*
X0158346Y0133702D01*
X0158277Y0133714D01*
X0158207Y0133722D01*
X0158136Y0133726D01*
X0158066Y0133726D01*
X0157995Y0133722D01*
X0157925Y0133714D01*
X0157856Y0133702D01*
X0157787Y0133687D01*
X0157719Y0133668D01*
X0157653Y0133645D01*
X0157588Y0133618D01*
X0157524Y0133588D01*
X0157462Y0133555D01*
X0157402Y0133518D01*
X0157344Y0133478D01*
X0157289Y0133435D01*
X0157235Y0133388D01*
X0157185Y0133339D01*
X0157137Y0133287D01*
X0157092Y0133233D01*
X0157051Y0133176D01*
X0157012Y0133117D01*
X0156977Y0133056D01*
X0156945Y0132993D01*
X0156917Y0132929D01*
X0156892Y0132863D01*
X0156871Y0132796D01*
X0156854Y0132727D01*
X0156840Y0132658D01*
X0156831Y0132589D01*
X0156825Y0132518D01*
X0156823Y0132448D01*
X0157079Y0134748D02*
X0157081Y0134685D01*
X0157087Y0134622D01*
X0157096Y0134560D01*
X0157110Y0134499D01*
X0157127Y0134438D01*
X0157148Y0134379D01*
X0157173Y0134321D01*
X0157201Y0134264D01*
X0157232Y0134210D01*
X0157267Y0134158D01*
X0157305Y0134107D01*
X0157346Y0134059D01*
X0157390Y0134014D01*
X0157436Y0133972D01*
X0157485Y0133932D01*
X0157536Y0133896D01*
X0157590Y0133863D01*
X0157645Y0133833D01*
X0157703Y0133807D01*
X0157761Y0133784D01*
X0157821Y0133765D01*
X0157882Y0133750D01*
X0157944Y0133738D01*
X0158007Y0133730D01*
X0158070Y0133726D01*
X0158132Y0133726D01*
X0158195Y0133730D01*
X0158258Y0133738D01*
X0158320Y0133750D01*
X0158381Y0133765D01*
X0158441Y0133784D01*
X0158499Y0133807D01*
X0158557Y0133833D01*
X0158612Y0133863D01*
X0158666Y0133896D01*
X0158717Y0133932D01*
X0158766Y0133972D01*
X0158812Y0134014D01*
X0158856Y0134059D01*
X0158897Y0134107D01*
X0158935Y0134158D01*
X0158970Y0134210D01*
X0159001Y0134264D01*
X0159029Y0134321D01*
X0159054Y0134379D01*
X0159075Y0134438D01*
X0159092Y0134499D01*
X0159106Y0134560D01*
X0159115Y0134622D01*
X0159121Y0134685D01*
X0159123Y0134748D01*
X0159121Y0134811D01*
X0159115Y0134874D01*
X0159106Y0134936D01*
X0159092Y0134997D01*
X0159075Y0135058D01*
X0159054Y0135117D01*
X0159029Y0135175D01*
X0159001Y0135232D01*
X0158970Y0135286D01*
X0158935Y0135338D01*
X0158897Y0135389D01*
X0158856Y0135437D01*
X0158812Y0135482D01*
X0158766Y0135524D01*
X0158717Y0135564D01*
X0158666Y0135600D01*
X0158612Y0135633D01*
X0158557Y0135663D01*
X0158499Y0135689D01*
X0158441Y0135712D01*
X0158381Y0135731D01*
X0158320Y0135746D01*
X0158258Y0135758D01*
X0158195Y0135766D01*
X0158132Y0135770D01*
X0158070Y0135770D01*
X0158007Y0135766D01*
X0157944Y0135758D01*
X0157882Y0135746D01*
X0157821Y0135731D01*
X0157761Y0135712D01*
X0157703Y0135689D01*
X0157645Y0135663D01*
X0157590Y0135633D01*
X0157536Y0135600D01*
X0157485Y0135564D01*
X0157436Y0135524D01*
X0157390Y0135482D01*
X0157346Y0135437D01*
X0157305Y0135389D01*
X0157267Y0135338D01*
X0157232Y0135286D01*
X0157201Y0135232D01*
X0157173Y0135175D01*
X0157148Y0135117D01*
X0157127Y0135058D01*
X0157110Y0134997D01*
X0157096Y0134936D01*
X0157087Y0134874D01*
X0157081Y0134811D01*
X0157079Y0134748D01*
X0166549Y0112581D02*
X0167571Y0112581D01*
X0166549Y0112581D02*
X0166487Y0112579D01*
X0166426Y0112574D01*
X0166365Y0112564D01*
X0166304Y0112551D01*
X0166245Y0112535D01*
X0166187Y0112515D01*
X0166130Y0112491D01*
X0166074Y0112464D01*
X0166020Y0112434D01*
X0165968Y0112400D01*
X0165919Y0112363D01*
X0165871Y0112324D01*
X0165826Y0112282D01*
X0165784Y0112237D01*
X0165744Y0112189D01*
X0165708Y0112140D01*
X0165674Y0112088D01*
X0165644Y0112034D01*
X0165617Y0111978D01*
X0165593Y0111921D01*
X0165573Y0111863D01*
X0165557Y0111804D01*
X0165544Y0111743D01*
X0165534Y0111682D01*
X0165529Y0111621D01*
X0165527Y0111559D01*
X0165527Y0109003D01*
X0165529Y0108941D01*
X0165534Y0108880D01*
X0165544Y0108819D01*
X0165557Y0108758D01*
X0165573Y0108699D01*
X0165593Y0108641D01*
X0165617Y0108584D01*
X0165644Y0108528D01*
X0165674Y0108474D01*
X0165708Y0108422D01*
X0165744Y0108373D01*
X0165784Y0108325D01*
X0165826Y0108280D01*
X0165871Y0108238D01*
X0165919Y0108198D01*
X0165968Y0108162D01*
X0166020Y0108128D01*
X0166074Y0108098D01*
X0166130Y0108071D01*
X0166187Y0108047D01*
X0166245Y0108027D01*
X0166304Y0108011D01*
X0166365Y0107998D01*
X0166426Y0107988D01*
X0166487Y0107983D01*
X0166549Y0107981D01*
X0167571Y0107981D01*
X0169290Y0107981D02*
X0171846Y0107981D01*
X0169290Y0107981D02*
X0171462Y0110537D01*
X0170696Y0112581D02*
X0170622Y0112579D01*
X0170548Y0112574D01*
X0170474Y0112564D01*
X0170401Y0112551D01*
X0170328Y0112535D01*
X0170257Y0112514D01*
X0170187Y0112490D01*
X0170118Y0112463D01*
X0170050Y0112432D01*
X0169984Y0112398D01*
X0169920Y0112361D01*
X0169858Y0112320D01*
X0169798Y0112276D01*
X0169740Y0112230D01*
X0169684Y0112180D01*
X0169631Y0112128D01*
X0169581Y0112073D01*
X0169534Y0112016D01*
X0169490Y0111956D01*
X0169448Y0111894D01*
X0169410Y0111831D01*
X0169375Y0111765D01*
X0169344Y0111698D01*
X0169316Y0111629D01*
X0169291Y0111559D01*
X0171462Y0110537D02*
X0171509Y0110584D01*
X0171553Y0110634D01*
X0171595Y0110686D01*
X0171634Y0110740D01*
X0171669Y0110796D01*
X0171702Y0110854D01*
X0171732Y0110914D01*
X0171758Y0110975D01*
X0171781Y0111038D01*
X0171800Y0111102D01*
X0171816Y0111166D01*
X0171829Y0111232D01*
X0171838Y0111298D01*
X0171843Y0111364D01*
X0171845Y0111431D01*
X0171846Y0111431D02*
X0171844Y0111498D01*
X0171838Y0111565D01*
X0171829Y0111631D01*
X0171815Y0111696D01*
X0171798Y0111761D01*
X0171777Y0111824D01*
X0171752Y0111886D01*
X0171724Y0111947D01*
X0171692Y0112006D01*
X0171657Y0112063D01*
X0171618Y0112118D01*
X0171577Y0112170D01*
X0171532Y0112220D01*
X0171485Y0112267D01*
X0171435Y0112312D01*
X0171383Y0112353D01*
X0171328Y0112392D01*
X0171271Y0112427D01*
X0171212Y0112459D01*
X0171151Y0112487D01*
X0171089Y0112512D01*
X0171026Y0112533D01*
X0170961Y0112550D01*
X0170896Y0112564D01*
X0170830Y0112573D01*
X0170763Y0112579D01*
X0170696Y0112581D01*
X0170430Y0104313D02*
X0168896Y0104313D01*
X0167178Y0104313D02*
X0166156Y0104313D01*
X0166094Y0104311D01*
X0166033Y0104306D01*
X0165972Y0104296D01*
X0165911Y0104283D01*
X0165852Y0104267D01*
X0165794Y0104247D01*
X0165737Y0104223D01*
X0165681Y0104196D01*
X0165627Y0104166D01*
X0165575Y0104132D01*
X0165526Y0104095D01*
X0165478Y0104056D01*
X0165433Y0104014D01*
X0165391Y0103969D01*
X0165351Y0103921D01*
X0165315Y0103872D01*
X0165281Y0103820D01*
X0165251Y0103766D01*
X0165224Y0103710D01*
X0165200Y0103653D01*
X0165180Y0103595D01*
X0165164Y0103536D01*
X0165151Y0103475D01*
X0165141Y0103414D01*
X0165136Y0103353D01*
X0165134Y0103291D01*
X0165133Y0103291D02*
X0165133Y0100736D01*
X0165134Y0100736D02*
X0165136Y0100674D01*
X0165141Y0100613D01*
X0165151Y0100552D01*
X0165164Y0100491D01*
X0165180Y0100432D01*
X0165200Y0100374D01*
X0165224Y0100317D01*
X0165251Y0100261D01*
X0165281Y0100207D01*
X0165315Y0100155D01*
X0165351Y0100106D01*
X0165391Y0100058D01*
X0165433Y0100013D01*
X0165478Y0099971D01*
X0165526Y0099931D01*
X0165575Y0099895D01*
X0165627Y0099861D01*
X0165681Y0099831D01*
X0165737Y0099804D01*
X0165794Y0099780D01*
X0165852Y0099760D01*
X0165911Y0099744D01*
X0165972Y0099731D01*
X0166033Y0099721D01*
X0166094Y0099716D01*
X0166156Y0099714D01*
X0166156Y0099713D02*
X0167178Y0099713D01*
X0168896Y0099713D02*
X0170174Y0099713D01*
X0170244Y0099715D01*
X0170315Y0099721D01*
X0170384Y0099730D01*
X0170453Y0099744D01*
X0170522Y0099761D01*
X0170589Y0099782D01*
X0170655Y0099807D01*
X0170719Y0099835D01*
X0170782Y0099867D01*
X0170843Y0099902D01*
X0170902Y0099941D01*
X0170959Y0099982D01*
X0171013Y0100027D01*
X0171065Y0100075D01*
X0171114Y0100125D01*
X0171161Y0100179D01*
X0171204Y0100234D01*
X0171244Y0100292D01*
X0171281Y0100352D01*
X0171314Y0100414D01*
X0171344Y0100478D01*
X0171371Y0100543D01*
X0171394Y0100609D01*
X0171413Y0100677D01*
X0171428Y0100746D01*
X0171440Y0100815D01*
X0171448Y0100885D01*
X0171452Y0100956D01*
X0171452Y0101026D01*
X0171448Y0101097D01*
X0171440Y0101167D01*
X0171428Y0101236D01*
X0171413Y0101305D01*
X0171394Y0101373D01*
X0171371Y0101439D01*
X0171344Y0101504D01*
X0171314Y0101568D01*
X0171281Y0101630D01*
X0171244Y0101690D01*
X0171204Y0101748D01*
X0171161Y0101803D01*
X0171114Y0101857D01*
X0171065Y0101907D01*
X0171013Y0101955D01*
X0170959Y0102000D01*
X0170902Y0102041D01*
X0170843Y0102080D01*
X0170782Y0102115D01*
X0170719Y0102147D01*
X0170655Y0102175D01*
X0170589Y0102200D01*
X0170522Y0102221D01*
X0170453Y0102238D01*
X0170384Y0102252D01*
X0170315Y0102261D01*
X0170244Y0102267D01*
X0170174Y0102269D01*
X0170430Y0102269D02*
X0169408Y0102269D01*
X0170430Y0102269D02*
X0170493Y0102271D01*
X0170556Y0102277D01*
X0170618Y0102286D01*
X0170679Y0102300D01*
X0170740Y0102317D01*
X0170799Y0102338D01*
X0170857Y0102363D01*
X0170914Y0102391D01*
X0170968Y0102422D01*
X0171020Y0102457D01*
X0171071Y0102495D01*
X0171119Y0102536D01*
X0171164Y0102580D01*
X0171206Y0102626D01*
X0171246Y0102675D01*
X0171282Y0102726D01*
X0171315Y0102780D01*
X0171345Y0102835D01*
X0171371Y0102893D01*
X0171394Y0102951D01*
X0171413Y0103011D01*
X0171428Y0103072D01*
X0171440Y0103134D01*
X0171448Y0103197D01*
X0171452Y0103260D01*
X0171452Y0103322D01*
X0171448Y0103385D01*
X0171440Y0103448D01*
X0171428Y0103510D01*
X0171413Y0103571D01*
X0171394Y0103631D01*
X0171371Y0103689D01*
X0171345Y0103747D01*
X0171315Y0103802D01*
X0171282Y0103856D01*
X0171246Y0103907D01*
X0171206Y0103956D01*
X0171164Y0104002D01*
X0171119Y0104046D01*
X0171071Y0104087D01*
X0171020Y0104125D01*
X0170968Y0104160D01*
X0170914Y0104191D01*
X0170857Y0104219D01*
X0170799Y0104244D01*
X0170740Y0104265D01*
X0170679Y0104282D01*
X0170618Y0104296D01*
X0170556Y0104305D01*
X0170493Y0104311D01*
X0170430Y0104313D01*
X0169919Y0096833D02*
X0168896Y0093255D01*
X0171452Y0093255D01*
X0170685Y0092233D02*
X0170685Y0094278D01*
X0167178Y0092233D02*
X0166156Y0092233D01*
X0166094Y0092235D01*
X0166033Y0092240D01*
X0165972Y0092250D01*
X0165911Y0092263D01*
X0165852Y0092279D01*
X0165794Y0092299D01*
X0165737Y0092323D01*
X0165681Y0092350D01*
X0165627Y0092380D01*
X0165575Y0092414D01*
X0165526Y0092450D01*
X0165478Y0092490D01*
X0165433Y0092532D01*
X0165391Y0092577D01*
X0165351Y0092625D01*
X0165315Y0092674D01*
X0165281Y0092726D01*
X0165251Y0092780D01*
X0165224Y0092836D01*
X0165200Y0092893D01*
X0165180Y0092951D01*
X0165164Y0093010D01*
X0165151Y0093071D01*
X0165141Y0093132D01*
X0165136Y0093193D01*
X0165134Y0093255D01*
X0165133Y0093255D02*
X0165133Y0095811D01*
X0165134Y0095811D02*
X0165136Y0095873D01*
X0165141Y0095934D01*
X0165151Y0095995D01*
X0165164Y0096056D01*
X0165180Y0096115D01*
X0165200Y0096173D01*
X0165224Y0096230D01*
X0165251Y0096286D01*
X0165281Y0096340D01*
X0165315Y0096392D01*
X0165351Y0096441D01*
X0165391Y0096489D01*
X0165433Y0096534D01*
X0165478Y0096576D01*
X0165526Y0096615D01*
X0165575Y0096652D01*
X0165627Y0096686D01*
X0165681Y0096716D01*
X0165737Y0096743D01*
X0165794Y0096767D01*
X0165852Y0096787D01*
X0165911Y0096803D01*
X0165972Y0096816D01*
X0166033Y0096826D01*
X0166094Y0096831D01*
X0166156Y0096833D01*
X0167178Y0096833D01*
X0158060Y0097116D02*
X0155632Y0097116D01*
X0153460Y0098649D01*
X0154482Y0100338D02*
X0153460Y0101616D01*
X0158060Y0101616D01*
X0158060Y0102893D02*
X0158060Y0100338D01*
X0155632Y0097116D02*
X0153460Y0095582D01*
X0149907Y0061389D02*
X0149907Y0060111D01*
X0149907Y0061389D02*
X0149905Y0061459D01*
X0149899Y0061530D01*
X0149890Y0061599D01*
X0149876Y0061668D01*
X0149859Y0061737D01*
X0149838Y0061804D01*
X0149813Y0061870D01*
X0149785Y0061934D01*
X0149753Y0061997D01*
X0149718Y0062058D01*
X0149679Y0062117D01*
X0149638Y0062174D01*
X0149593Y0062228D01*
X0149545Y0062280D01*
X0149495Y0062329D01*
X0149441Y0062376D01*
X0149386Y0062419D01*
X0149328Y0062459D01*
X0149268Y0062496D01*
X0149206Y0062529D01*
X0149142Y0062559D01*
X0149077Y0062586D01*
X0149011Y0062609D01*
X0148943Y0062628D01*
X0148874Y0062643D01*
X0148805Y0062655D01*
X0148735Y0062663D01*
X0148664Y0062667D01*
X0148594Y0062667D01*
X0148523Y0062663D01*
X0148453Y0062655D01*
X0148384Y0062643D01*
X0148315Y0062628D01*
X0148247Y0062609D01*
X0148181Y0062586D01*
X0148116Y0062559D01*
X0148052Y0062529D01*
X0147990Y0062496D01*
X0147930Y0062459D01*
X0147872Y0062419D01*
X0147817Y0062376D01*
X0147763Y0062329D01*
X0147713Y0062280D01*
X0147665Y0062228D01*
X0147620Y0062174D01*
X0147579Y0062117D01*
X0147540Y0062058D01*
X0147505Y0061997D01*
X0147473Y0061934D01*
X0147445Y0061870D01*
X0147420Y0061804D01*
X0147399Y0061737D01*
X0147382Y0061668D01*
X0147368Y0061599D01*
X0147359Y0061530D01*
X0147353Y0061459D01*
X0147351Y0061389D01*
X0147351Y0061645D02*
X0147351Y0060622D01*
X0147351Y0061645D02*
X0147349Y0061708D01*
X0147343Y0061771D01*
X0147334Y0061833D01*
X0147320Y0061894D01*
X0147303Y0061955D01*
X0147282Y0062014D01*
X0147257Y0062072D01*
X0147229Y0062129D01*
X0147198Y0062183D01*
X0147163Y0062235D01*
X0147125Y0062286D01*
X0147084Y0062334D01*
X0147040Y0062379D01*
X0146994Y0062421D01*
X0146945Y0062461D01*
X0146894Y0062497D01*
X0146840Y0062530D01*
X0146785Y0062560D01*
X0146727Y0062586D01*
X0146669Y0062609D01*
X0146609Y0062628D01*
X0146548Y0062643D01*
X0146486Y0062655D01*
X0146423Y0062663D01*
X0146360Y0062667D01*
X0146298Y0062667D01*
X0146235Y0062663D01*
X0146172Y0062655D01*
X0146110Y0062643D01*
X0146049Y0062628D01*
X0145989Y0062609D01*
X0145931Y0062586D01*
X0145873Y0062560D01*
X0145818Y0062530D01*
X0145764Y0062497D01*
X0145713Y0062461D01*
X0145664Y0062421D01*
X0145618Y0062379D01*
X0145574Y0062334D01*
X0145533Y0062286D01*
X0145495Y0062235D01*
X0145460Y0062183D01*
X0145429Y0062129D01*
X0145401Y0062072D01*
X0145376Y0062014D01*
X0145355Y0061955D01*
X0145338Y0061894D01*
X0145324Y0061833D01*
X0145315Y0061771D01*
X0145309Y0061708D01*
X0145307Y0061645D01*
X0145307Y0060111D01*
X0145307Y0058035D02*
X0148884Y0058035D01*
X0148946Y0058033D01*
X0149007Y0058028D01*
X0149068Y0058018D01*
X0149129Y0058005D01*
X0149188Y0057989D01*
X0149246Y0057969D01*
X0149303Y0057945D01*
X0149359Y0057918D01*
X0149413Y0057888D01*
X0149465Y0057854D01*
X0149514Y0057818D01*
X0149562Y0057778D01*
X0149607Y0057736D01*
X0149649Y0057691D01*
X0149689Y0057643D01*
X0149725Y0057594D01*
X0149759Y0057542D01*
X0149789Y0057488D01*
X0149816Y0057432D01*
X0149840Y0057375D01*
X0149860Y0057317D01*
X0149876Y0057258D01*
X0149889Y0057197D01*
X0149899Y0057136D01*
X0149904Y0057075D01*
X0149906Y0057013D01*
X0149907Y0057013D02*
X0149907Y0056502D01*
X0106889Y0037269D02*
X0104717Y0034713D01*
X0107273Y0034713D01*
X0104718Y0038291D02*
X0104743Y0038361D01*
X0104771Y0038430D01*
X0104802Y0038497D01*
X0104837Y0038563D01*
X0104875Y0038626D01*
X0104917Y0038688D01*
X0104961Y0038748D01*
X0105008Y0038805D01*
X0105058Y0038860D01*
X0105111Y0038912D01*
X0105167Y0038962D01*
X0105225Y0039008D01*
X0105285Y0039052D01*
X0105347Y0039093D01*
X0105411Y0039130D01*
X0105477Y0039164D01*
X0105545Y0039195D01*
X0105614Y0039222D01*
X0105684Y0039246D01*
X0105755Y0039267D01*
X0105828Y0039283D01*
X0105901Y0039296D01*
X0105975Y0039306D01*
X0106049Y0039311D01*
X0106123Y0039313D01*
X0106190Y0039311D01*
X0106257Y0039305D01*
X0106323Y0039296D01*
X0106388Y0039282D01*
X0106453Y0039265D01*
X0106516Y0039244D01*
X0106578Y0039219D01*
X0106639Y0039191D01*
X0106698Y0039159D01*
X0106755Y0039124D01*
X0106810Y0039085D01*
X0106862Y0039044D01*
X0106912Y0038999D01*
X0106959Y0038952D01*
X0107004Y0038902D01*
X0107045Y0038850D01*
X0107084Y0038795D01*
X0107119Y0038738D01*
X0107151Y0038679D01*
X0107179Y0038618D01*
X0107204Y0038556D01*
X0107225Y0038493D01*
X0107242Y0038428D01*
X0107256Y0038363D01*
X0107265Y0038297D01*
X0107271Y0038230D01*
X0107273Y0038163D01*
X0107272Y0038163D02*
X0107270Y0038096D01*
X0107265Y0038030D01*
X0107256Y0037964D01*
X0107243Y0037898D01*
X0107227Y0037834D01*
X0107208Y0037770D01*
X0107185Y0037707D01*
X0107159Y0037646D01*
X0107129Y0037586D01*
X0107096Y0037528D01*
X0107061Y0037472D01*
X0107022Y0037418D01*
X0106980Y0037366D01*
X0106936Y0037316D01*
X0106889Y0037269D01*
X0102773Y0034713D02*
X0100217Y0034713D01*
X0101495Y0034713D02*
X0101495Y0039313D01*
X0100217Y0038291D01*
X0097024Y0039314D02*
X0097094Y0039312D01*
X0097165Y0039306D01*
X0097234Y0039297D01*
X0097303Y0039283D01*
X0097372Y0039266D01*
X0097439Y0039245D01*
X0097505Y0039220D01*
X0097569Y0039192D01*
X0097632Y0039160D01*
X0097693Y0039125D01*
X0097752Y0039086D01*
X0097809Y0039045D01*
X0097863Y0039000D01*
X0097915Y0038952D01*
X0097964Y0038902D01*
X0098011Y0038848D01*
X0098054Y0038793D01*
X0098094Y0038735D01*
X0098131Y0038675D01*
X0098164Y0038613D01*
X0098194Y0038549D01*
X0098221Y0038484D01*
X0098244Y0038418D01*
X0098263Y0038350D01*
X0098278Y0038281D01*
X0098290Y0038212D01*
X0098298Y0038142D01*
X0098302Y0038071D01*
X0098302Y0038001D01*
X0098298Y0037930D01*
X0098290Y0037860D01*
X0098278Y0037791D01*
X0098263Y0037722D01*
X0098244Y0037654D01*
X0098221Y0037588D01*
X0098194Y0037523D01*
X0098164Y0037459D01*
X0098131Y0037397D01*
X0098094Y0037337D01*
X0098054Y0037279D01*
X0098011Y0037224D01*
X0097964Y0037170D01*
X0097915Y0037120D01*
X0097863Y0037072D01*
X0097809Y0037027D01*
X0097752Y0036986D01*
X0097693Y0036947D01*
X0097632Y0036912D01*
X0097569Y0036880D01*
X0097505Y0036852D01*
X0097439Y0036827D01*
X0097372Y0036806D01*
X0097303Y0036789D01*
X0097234Y0036775D01*
X0097165Y0036766D01*
X0097094Y0036760D01*
X0097024Y0036758D01*
X0095746Y0036758D01*
X0097279Y0036758D02*
X0098302Y0034713D01*
X0095746Y0034713D02*
X0095746Y0039313D01*
X0097024Y0039313D01*
D12*
X0126705Y0028765D02*
X0155051Y0028765D01*
X0176705Y0028765D02*
X0176705Y0084671D01*
X0160957Y0084671D02*
X0119618Y0084671D01*
X0111845Y0068053D02*
X0111847Y0068085D01*
X0111853Y0068116D01*
X0111862Y0068147D01*
X0111875Y0068176D01*
X0111892Y0068204D01*
X0111912Y0068229D01*
X0111934Y0068251D01*
X0111959Y0068271D01*
X0111987Y0068288D01*
X0112016Y0068301D01*
X0112047Y0068310D01*
X0112078Y0068316D01*
X0112110Y0068318D01*
X0112142Y0068316D01*
X0112173Y0068310D01*
X0112204Y0068301D01*
X0112233Y0068288D01*
X0112261Y0068271D01*
X0112286Y0068251D01*
X0112308Y0068229D01*
X0112328Y0068204D01*
X0112345Y0068176D01*
X0112358Y0068147D01*
X0112367Y0068116D01*
X0112373Y0068085D01*
X0112375Y0068053D01*
X0112373Y0068021D01*
X0112367Y0067990D01*
X0112358Y0067959D01*
X0112345Y0067930D01*
X0112328Y0067902D01*
X0112308Y0067877D01*
X0112286Y0067855D01*
X0112261Y0067835D01*
X0112233Y0067818D01*
X0112204Y0067805D01*
X0112173Y0067796D01*
X0112142Y0067790D01*
X0112110Y0067788D01*
X0112078Y0067790D01*
X0112047Y0067796D01*
X0112016Y0067805D01*
X0111987Y0067818D01*
X0111959Y0067835D01*
X0111934Y0067855D01*
X0111912Y0067877D01*
X0111892Y0067902D01*
X0111875Y0067930D01*
X0111862Y0067959D01*
X0111853Y0067990D01*
X0111847Y0068021D01*
X0111845Y0068053D01*
X0076823Y0087624D02*
X0040209Y0087624D01*
X0040209Y0124238D01*
X0076823Y0124238D01*
X0076823Y0087624D01*
X0036862Y0137820D02*
X0036864Y0137859D01*
X0036870Y0137898D01*
X0036880Y0137936D01*
X0036893Y0137973D01*
X0036910Y0138008D01*
X0036930Y0138042D01*
X0036954Y0138073D01*
X0036981Y0138102D01*
X0037010Y0138128D01*
X0037042Y0138151D01*
X0037076Y0138171D01*
X0037112Y0138187D01*
X0037149Y0138199D01*
X0037188Y0138208D01*
X0037227Y0138213D01*
X0037266Y0138214D01*
X0037305Y0138211D01*
X0037344Y0138204D01*
X0037381Y0138193D01*
X0037418Y0138179D01*
X0037453Y0138161D01*
X0037486Y0138140D01*
X0037517Y0138115D01*
X0037545Y0138088D01*
X0037570Y0138058D01*
X0037592Y0138025D01*
X0037611Y0137991D01*
X0037626Y0137955D01*
X0037638Y0137917D01*
X0037646Y0137879D01*
X0037650Y0137840D01*
X0037650Y0137800D01*
X0037646Y0137761D01*
X0037638Y0137723D01*
X0037626Y0137685D01*
X0037611Y0137649D01*
X0037592Y0137615D01*
X0037570Y0137582D01*
X0037545Y0137552D01*
X0037517Y0137525D01*
X0037486Y0137500D01*
X0037453Y0137479D01*
X0037418Y0137461D01*
X0037381Y0137447D01*
X0037344Y0137436D01*
X0037305Y0137429D01*
X0037266Y0137426D01*
X0037227Y0137427D01*
X0037188Y0137432D01*
X0037149Y0137441D01*
X0037112Y0137453D01*
X0037076Y0137469D01*
X0037042Y0137489D01*
X0037010Y0137512D01*
X0036981Y0137538D01*
X0036954Y0137567D01*
X0036930Y0137598D01*
X0036910Y0137632D01*
X0036893Y0137667D01*
X0036880Y0137704D01*
X0036870Y0137742D01*
X0036864Y0137781D01*
X0036862Y0137820D01*
D13*
X0033812Y0126403D02*
X0033814Y0126459D01*
X0033820Y0126514D01*
X0033830Y0126568D01*
X0033843Y0126622D01*
X0033861Y0126675D01*
X0033882Y0126726D01*
X0033906Y0126776D01*
X0033934Y0126824D01*
X0033966Y0126870D01*
X0034000Y0126914D01*
X0034038Y0126955D01*
X0034078Y0126993D01*
X0034121Y0127028D01*
X0034166Y0127060D01*
X0034214Y0127089D01*
X0034263Y0127115D01*
X0034314Y0127137D01*
X0034366Y0127155D01*
X0034420Y0127169D01*
X0034475Y0127180D01*
X0034530Y0127187D01*
X0034585Y0127190D01*
X0034641Y0127189D01*
X0034696Y0127184D01*
X0034751Y0127175D01*
X0034805Y0127163D01*
X0034858Y0127146D01*
X0034910Y0127126D01*
X0034960Y0127102D01*
X0035008Y0127075D01*
X0035055Y0127045D01*
X0035099Y0127011D01*
X0035141Y0126974D01*
X0035179Y0126934D01*
X0035216Y0126892D01*
X0035249Y0126847D01*
X0035278Y0126801D01*
X0035305Y0126752D01*
X0035327Y0126701D01*
X0035347Y0126649D01*
X0035362Y0126595D01*
X0035374Y0126541D01*
X0035382Y0126486D01*
X0035386Y0126431D01*
X0035386Y0126375D01*
X0035382Y0126320D01*
X0035374Y0126265D01*
X0035362Y0126211D01*
X0035347Y0126157D01*
X0035327Y0126105D01*
X0035305Y0126054D01*
X0035278Y0126005D01*
X0035249Y0125959D01*
X0035216Y0125914D01*
X0035179Y0125872D01*
X0035141Y0125832D01*
X0035099Y0125795D01*
X0035055Y0125761D01*
X0035008Y0125731D01*
X0034960Y0125704D01*
X0034910Y0125680D01*
X0034858Y0125660D01*
X0034805Y0125643D01*
X0034751Y0125631D01*
X0034696Y0125622D01*
X0034641Y0125617D01*
X0034585Y0125616D01*
X0034530Y0125619D01*
X0034475Y0125626D01*
X0034420Y0125637D01*
X0034366Y0125651D01*
X0034314Y0125669D01*
X0034263Y0125691D01*
X0034214Y0125717D01*
X0034166Y0125746D01*
X0034121Y0125778D01*
X0034078Y0125813D01*
X0034038Y0125851D01*
X0034000Y0125892D01*
X0033966Y0125936D01*
X0033934Y0125982D01*
X0033906Y0126030D01*
X0033882Y0126080D01*
X0033861Y0126131D01*
X0033843Y0126184D01*
X0033830Y0126238D01*
X0033820Y0126292D01*
X0033814Y0126347D01*
X0033812Y0126403D01*
D14*
X0033713Y0139789D02*
X0033713Y0154750D01*
X0048673Y0154750D01*
X0048673Y0139789D01*
X0033713Y0139789D01*
X0113608Y0147543D02*
X0113608Y0152043D01*
X0114858Y0152043D01*
X0114927Y0152041D01*
X0114996Y0152035D01*
X0115064Y0152026D01*
X0115131Y0152013D01*
X0115198Y0151996D01*
X0115264Y0151975D01*
X0115328Y0151951D01*
X0115391Y0151923D01*
X0115453Y0151892D01*
X0115513Y0151858D01*
X0115570Y0151820D01*
X0115626Y0151779D01*
X0115679Y0151736D01*
X0115730Y0151689D01*
X0115778Y0151640D01*
X0115823Y0151588D01*
X0115865Y0151533D01*
X0115904Y0151477D01*
X0115941Y0151418D01*
X0115973Y0151357D01*
X0116003Y0151295D01*
X0116029Y0151231D01*
X0116051Y0151166D01*
X0116070Y0151100D01*
X0116085Y0151033D01*
X0116096Y0150965D01*
X0116104Y0150896D01*
X0116108Y0150827D01*
X0116108Y0150759D01*
X0116104Y0150690D01*
X0116096Y0150621D01*
X0116085Y0150553D01*
X0116070Y0150486D01*
X0116051Y0150420D01*
X0116029Y0150355D01*
X0116003Y0150291D01*
X0115973Y0150229D01*
X0115941Y0150168D01*
X0115904Y0150109D01*
X0115865Y0150053D01*
X0115823Y0149998D01*
X0115778Y0149946D01*
X0115730Y0149897D01*
X0115679Y0149850D01*
X0115626Y0149807D01*
X0115570Y0149766D01*
X0115513Y0149728D01*
X0115453Y0149694D01*
X0115391Y0149663D01*
X0115328Y0149635D01*
X0115264Y0149611D01*
X0115198Y0149590D01*
X0115131Y0149573D01*
X0115064Y0149560D01*
X0114996Y0149551D01*
X0114927Y0149545D01*
X0114858Y0149543D01*
X0113608Y0149543D01*
X0118008Y0148668D02*
X0120258Y0148668D01*
X0120633Y0147543D02*
X0119133Y0152043D01*
X0117633Y0147543D01*
X0122533Y0147543D02*
X0122533Y0152043D01*
X0123783Y0152043D01*
X0123851Y0152041D01*
X0123918Y0152036D01*
X0123985Y0152027D01*
X0124052Y0152014D01*
X0124117Y0151997D01*
X0124182Y0151978D01*
X0124246Y0151954D01*
X0124308Y0151927D01*
X0124369Y0151897D01*
X0124427Y0151864D01*
X0124484Y0151828D01*
X0124539Y0151788D01*
X0124592Y0151746D01*
X0124643Y0151700D01*
X0124690Y0151653D01*
X0124736Y0151602D01*
X0124778Y0151549D01*
X0124818Y0151494D01*
X0124854Y0151437D01*
X0124887Y0151379D01*
X0124917Y0151318D01*
X0124944Y0151256D01*
X0124968Y0151192D01*
X0124987Y0151127D01*
X0125004Y0151062D01*
X0125017Y0150995D01*
X0125026Y0150928D01*
X0125031Y0150861D01*
X0125033Y0150793D01*
X0125033Y0148793D01*
X0125031Y0148725D01*
X0125026Y0148658D01*
X0125017Y0148591D01*
X0125004Y0148524D01*
X0124987Y0148459D01*
X0124968Y0148394D01*
X0124944Y0148330D01*
X0124917Y0148268D01*
X0124887Y0148207D01*
X0124854Y0148149D01*
X0124818Y0148092D01*
X0124778Y0148037D01*
X0124736Y0147984D01*
X0124690Y0147933D01*
X0124643Y0147886D01*
X0124592Y0147840D01*
X0124539Y0147798D01*
X0124484Y0147758D01*
X0124427Y0147722D01*
X0124369Y0147689D01*
X0124308Y0147659D01*
X0124246Y0147632D01*
X0124182Y0147608D01*
X0124117Y0147589D01*
X0124052Y0147572D01*
X0123985Y0147559D01*
X0123918Y0147550D01*
X0123851Y0147545D01*
X0123783Y0147543D01*
X0122533Y0147543D01*
X0127183Y0147543D02*
X0128433Y0147543D01*
X0128502Y0147545D01*
X0128571Y0147551D01*
X0128639Y0147560D01*
X0128706Y0147573D01*
X0128773Y0147590D01*
X0128839Y0147611D01*
X0128903Y0147635D01*
X0128966Y0147663D01*
X0129028Y0147694D01*
X0129088Y0147728D01*
X0129145Y0147766D01*
X0129201Y0147807D01*
X0129254Y0147850D01*
X0129305Y0147897D01*
X0129353Y0147946D01*
X0129398Y0147998D01*
X0129440Y0148053D01*
X0129479Y0148109D01*
X0129516Y0148168D01*
X0129548Y0148229D01*
X0129578Y0148291D01*
X0129604Y0148355D01*
X0129626Y0148420D01*
X0129645Y0148486D01*
X0129660Y0148553D01*
X0129671Y0148621D01*
X0129679Y0148690D01*
X0129683Y0148759D01*
X0129683Y0148827D01*
X0129679Y0148896D01*
X0129671Y0148965D01*
X0129660Y0149033D01*
X0129645Y0149100D01*
X0129626Y0149166D01*
X0129604Y0149231D01*
X0129578Y0149295D01*
X0129548Y0149357D01*
X0129516Y0149418D01*
X0129479Y0149477D01*
X0129440Y0149533D01*
X0129398Y0149588D01*
X0129353Y0149640D01*
X0129305Y0149689D01*
X0129254Y0149736D01*
X0129201Y0149779D01*
X0129145Y0149820D01*
X0129088Y0149858D01*
X0129028Y0149892D01*
X0128966Y0149923D01*
X0128903Y0149951D01*
X0128839Y0149975D01*
X0128773Y0149996D01*
X0128706Y0150013D01*
X0128639Y0150026D01*
X0128571Y0150035D01*
X0128502Y0150041D01*
X0128433Y0150043D01*
X0128683Y0150043D02*
X0127683Y0150043D01*
X0128683Y0150043D02*
X0128745Y0150045D01*
X0128806Y0150051D01*
X0128867Y0150060D01*
X0128927Y0150073D01*
X0128986Y0150090D01*
X0129044Y0150111D01*
X0129101Y0150135D01*
X0129156Y0150162D01*
X0129209Y0150193D01*
X0129261Y0150227D01*
X0129310Y0150264D01*
X0129357Y0150304D01*
X0129401Y0150347D01*
X0129442Y0150392D01*
X0129481Y0150440D01*
X0129517Y0150491D01*
X0129549Y0150543D01*
X0129578Y0150597D01*
X0129604Y0150653D01*
X0129626Y0150711D01*
X0129645Y0150769D01*
X0129660Y0150829D01*
X0129671Y0150890D01*
X0129679Y0150951D01*
X0129683Y0151012D01*
X0129683Y0151074D01*
X0129679Y0151135D01*
X0129671Y0151196D01*
X0129660Y0151257D01*
X0129645Y0151317D01*
X0129626Y0151375D01*
X0129604Y0151433D01*
X0129578Y0151489D01*
X0129549Y0151543D01*
X0129517Y0151595D01*
X0129481Y0151646D01*
X0129442Y0151694D01*
X0129401Y0151739D01*
X0129357Y0151782D01*
X0129310Y0151822D01*
X0129261Y0151859D01*
X0129209Y0151893D01*
X0129156Y0151924D01*
X0129101Y0151951D01*
X0129044Y0151975D01*
X0128986Y0151996D01*
X0128927Y0152013D01*
X0128867Y0152026D01*
X0128806Y0152035D01*
X0128745Y0152041D01*
X0128683Y0152043D01*
X0127183Y0152043D01*
X0136049Y0152830D02*
X0136049Y0148330D01*
X0136049Y0150330D02*
X0137299Y0150330D01*
X0137368Y0150332D01*
X0137437Y0150338D01*
X0137505Y0150347D01*
X0137572Y0150360D01*
X0137639Y0150377D01*
X0137705Y0150398D01*
X0137769Y0150422D01*
X0137832Y0150450D01*
X0137894Y0150481D01*
X0137954Y0150515D01*
X0138011Y0150553D01*
X0138067Y0150594D01*
X0138120Y0150637D01*
X0138171Y0150684D01*
X0138219Y0150733D01*
X0138264Y0150785D01*
X0138306Y0150840D01*
X0138345Y0150896D01*
X0138382Y0150955D01*
X0138414Y0151016D01*
X0138444Y0151078D01*
X0138470Y0151142D01*
X0138492Y0151207D01*
X0138511Y0151273D01*
X0138526Y0151340D01*
X0138537Y0151408D01*
X0138545Y0151477D01*
X0138549Y0151546D01*
X0138549Y0151614D01*
X0138545Y0151683D01*
X0138537Y0151752D01*
X0138526Y0151820D01*
X0138511Y0151887D01*
X0138492Y0151953D01*
X0138470Y0152018D01*
X0138444Y0152082D01*
X0138414Y0152144D01*
X0138382Y0152205D01*
X0138345Y0152264D01*
X0138306Y0152320D01*
X0138264Y0152375D01*
X0138219Y0152427D01*
X0138171Y0152476D01*
X0138120Y0152523D01*
X0138067Y0152566D01*
X0138011Y0152607D01*
X0137954Y0152645D01*
X0137894Y0152679D01*
X0137832Y0152710D01*
X0137769Y0152738D01*
X0137705Y0152762D01*
X0137639Y0152783D01*
X0137572Y0152800D01*
X0137505Y0152813D01*
X0137437Y0152822D01*
X0137368Y0152828D01*
X0137299Y0152830D01*
X0136049Y0152830D01*
X0141574Y0152830D02*
X0140074Y0148330D01*
X0140449Y0149455D02*
X0142699Y0149455D01*
X0143074Y0148330D02*
X0141574Y0152830D01*
X0144974Y0152830D02*
X0144974Y0148330D01*
X0146224Y0148330D01*
X0146292Y0148332D01*
X0146359Y0148337D01*
X0146426Y0148346D01*
X0146493Y0148359D01*
X0146558Y0148376D01*
X0146623Y0148395D01*
X0146687Y0148419D01*
X0146749Y0148446D01*
X0146810Y0148476D01*
X0146868Y0148509D01*
X0146925Y0148545D01*
X0146980Y0148585D01*
X0147033Y0148627D01*
X0147084Y0148673D01*
X0147131Y0148720D01*
X0147177Y0148771D01*
X0147219Y0148824D01*
X0147259Y0148879D01*
X0147295Y0148936D01*
X0147328Y0148994D01*
X0147358Y0149055D01*
X0147385Y0149117D01*
X0147409Y0149181D01*
X0147428Y0149246D01*
X0147445Y0149311D01*
X0147458Y0149378D01*
X0147467Y0149445D01*
X0147472Y0149512D01*
X0147474Y0149580D01*
X0147474Y0151580D01*
X0147472Y0151648D01*
X0147467Y0151715D01*
X0147458Y0151782D01*
X0147445Y0151849D01*
X0147428Y0151914D01*
X0147409Y0151979D01*
X0147385Y0152043D01*
X0147358Y0152105D01*
X0147328Y0152166D01*
X0147295Y0152224D01*
X0147259Y0152281D01*
X0147219Y0152336D01*
X0147177Y0152389D01*
X0147131Y0152440D01*
X0147084Y0152487D01*
X0147033Y0152533D01*
X0146980Y0152575D01*
X0146925Y0152615D01*
X0146868Y0152651D01*
X0146810Y0152684D01*
X0146749Y0152714D01*
X0146687Y0152741D01*
X0146623Y0152765D01*
X0146558Y0152784D01*
X0146493Y0152801D01*
X0146426Y0152814D01*
X0146359Y0152823D01*
X0146292Y0152828D01*
X0146224Y0152830D01*
X0144974Y0152830D01*
X0150624Y0152830D02*
X0149624Y0149330D01*
X0152124Y0149330D01*
X0151374Y0150330D02*
X0151374Y0148330D01*
X0160681Y0150813D02*
X0160681Y0141915D01*
X0160681Y0150813D02*
X0168437Y0150813D01*
X0177571Y0150813D02*
X0178792Y0150813D01*
X0178792Y0119317D01*
X0177650Y0119317D01*
X0168477Y0119317D02*
X0160681Y0119317D01*
X0160681Y0128450D01*
X0090254Y0065169D02*
X0090254Y0062669D01*
X0087754Y0064794D01*
X0085755Y0064044D02*
X0085757Y0063971D01*
X0085762Y0063899D01*
X0085771Y0063827D01*
X0085784Y0063755D01*
X0085800Y0063684D01*
X0085820Y0063614D01*
X0085844Y0063546D01*
X0085870Y0063478D01*
X0085901Y0063412D01*
X0085934Y0063347D01*
X0085971Y0063285D01*
X0086010Y0063224D01*
X0086053Y0063165D01*
X0086099Y0063108D01*
X0086147Y0063054D01*
X0086198Y0063003D01*
X0086252Y0062953D01*
X0086308Y0062907D01*
X0086366Y0062864D01*
X0086427Y0062823D01*
X0086489Y0062786D01*
X0086553Y0062752D01*
X0086619Y0062721D01*
X0086686Y0062693D01*
X0086755Y0062669D01*
X0087754Y0064794D02*
X0087708Y0064840D01*
X0087659Y0064884D01*
X0087608Y0064924D01*
X0087555Y0064962D01*
X0087500Y0064997D01*
X0087443Y0065029D01*
X0087385Y0065058D01*
X0087325Y0065084D01*
X0087263Y0065106D01*
X0087201Y0065125D01*
X0087138Y0065141D01*
X0087074Y0065153D01*
X0087009Y0065162D01*
X0086944Y0065167D01*
X0086879Y0065169D01*
X0086814Y0065167D01*
X0086748Y0065161D01*
X0086684Y0065152D01*
X0086620Y0065139D01*
X0086556Y0065122D01*
X0086494Y0065101D01*
X0086433Y0065077D01*
X0086374Y0065049D01*
X0086317Y0065018D01*
X0086261Y0064984D01*
X0086207Y0064946D01*
X0086156Y0064906D01*
X0086107Y0064862D01*
X0086061Y0064816D01*
X0086017Y0064767D01*
X0085977Y0064716D01*
X0085939Y0064662D01*
X0085905Y0064607D01*
X0085874Y0064549D01*
X0085846Y0064490D01*
X0085822Y0064429D01*
X0085801Y0064367D01*
X0085784Y0064303D01*
X0085771Y0064239D01*
X0085762Y0064175D01*
X0085756Y0064109D01*
X0085754Y0064044D01*
X0085754Y0059644D02*
X0085754Y0058394D01*
X0090254Y0058394D01*
X0088254Y0058394D02*
X0088254Y0059644D01*
X0088252Y0059713D01*
X0088246Y0059782D01*
X0088237Y0059850D01*
X0088224Y0059917D01*
X0088207Y0059984D01*
X0088186Y0060050D01*
X0088162Y0060114D01*
X0088134Y0060177D01*
X0088103Y0060239D01*
X0088069Y0060299D01*
X0088031Y0060356D01*
X0087990Y0060412D01*
X0087947Y0060465D01*
X0087900Y0060516D01*
X0087851Y0060564D01*
X0087799Y0060609D01*
X0087744Y0060651D01*
X0087688Y0060690D01*
X0087629Y0060727D01*
X0087568Y0060759D01*
X0087506Y0060789D01*
X0087442Y0060815D01*
X0087377Y0060837D01*
X0087311Y0060856D01*
X0087244Y0060871D01*
X0087176Y0060882D01*
X0087107Y0060890D01*
X0087038Y0060894D01*
X0086970Y0060894D01*
X0086901Y0060890D01*
X0086832Y0060882D01*
X0086764Y0060871D01*
X0086697Y0060856D01*
X0086631Y0060837D01*
X0086566Y0060815D01*
X0086502Y0060789D01*
X0086440Y0060759D01*
X0086379Y0060727D01*
X0086320Y0060690D01*
X0086264Y0060651D01*
X0086209Y0060609D01*
X0086157Y0060564D01*
X0086108Y0060516D01*
X0086061Y0060465D01*
X0086018Y0060412D01*
X0085977Y0060356D01*
X0085939Y0060299D01*
X0085905Y0060239D01*
X0085874Y0060177D01*
X0085846Y0060114D01*
X0085822Y0060050D01*
X0085801Y0059984D01*
X0085784Y0059917D01*
X0085771Y0059850D01*
X0085762Y0059782D01*
X0085756Y0059713D01*
X0085754Y0059644D01*
X0085754Y0056039D02*
X0089254Y0056039D01*
X0089314Y0056037D01*
X0089375Y0056032D01*
X0089434Y0056023D01*
X0089493Y0056010D01*
X0089552Y0055994D01*
X0089609Y0055974D01*
X0089664Y0055951D01*
X0089719Y0055924D01*
X0089771Y0055895D01*
X0089822Y0055862D01*
X0089871Y0055826D01*
X0089917Y0055788D01*
X0089961Y0055746D01*
X0090003Y0055702D01*
X0090041Y0055656D01*
X0090077Y0055607D01*
X0090110Y0055556D01*
X0090139Y0055504D01*
X0090166Y0055449D01*
X0090189Y0055394D01*
X0090209Y0055337D01*
X0090225Y0055278D01*
X0090238Y0055219D01*
X0090247Y0055160D01*
X0090252Y0055099D01*
X0090254Y0055039D01*
X0090254Y0054539D01*
D15*
X0083004Y0057919D02*
X0083004Y0047919D01*
X0073004Y0047919D01*
X0063004Y0047919D01*
X0053004Y0047919D01*
X0043004Y0047919D01*
X0033004Y0047919D01*
X0023004Y0047919D01*
X0023004Y0057919D01*
X0033004Y0057919D01*
X0033004Y0047919D01*
X0043004Y0047919D02*
X0043004Y0057919D01*
X0033004Y0057919D01*
X0043004Y0057919D02*
X0053004Y0057919D01*
X0053004Y0047919D01*
X0063004Y0047919D02*
X0063004Y0057919D01*
X0053004Y0057919D01*
X0063004Y0057919D02*
X0073004Y0057919D01*
X0073004Y0047919D01*
X0073004Y0057919D02*
X0083004Y0057919D01*
X0128313Y0092194D02*
X0132513Y0092194D01*
X0134913Y0092194D01*
X0139113Y0092194D01*
X0139113Y0111794D02*
X0128313Y0111794D01*
X0127107Y0118096D02*
X0122996Y0118096D01*
X0119823Y0118096D02*
X0119453Y0118096D01*
X0119453Y0124474D01*
X0119823Y0124474D01*
X0122996Y0124474D02*
X0123366Y0124474D01*
X0126736Y0124474D02*
X0127107Y0124474D01*
X0130280Y0124474D02*
X0130650Y0124474D01*
X0130650Y0118096D01*
X0130280Y0118096D01*
X0109179Y0132726D02*
X0109179Y0154726D01*
X0099979Y0154726D01*
X0099979Y0132726D01*
X0109179Y0132726D01*
X0099336Y0132726D02*
X0099336Y0154726D01*
X0090136Y0154726D01*
X0090136Y0132726D01*
X0099336Y0132726D01*
X0109721Y0145425D02*
X0131721Y0145425D01*
X0131721Y0154625D01*
X0109721Y0154625D01*
X0109721Y0145425D01*
X0132162Y0145425D02*
X0154162Y0145425D01*
X0154162Y0154625D01*
X0132162Y0154625D01*
X0132162Y0145425D01*
X0103929Y0111637D02*
X0098929Y0111637D01*
X0097929Y0106837D02*
X0097929Y0104237D01*
X0098929Y0099437D02*
X0100229Y0099437D01*
X0102629Y0099437D01*
X0103929Y0099437D01*
X0041736Y0144018D02*
X0039858Y0144018D01*
X0039858Y0145462D02*
X0041736Y0145462D01*
X0041789Y0145460D01*
X0041841Y0145454D01*
X0041893Y0145445D01*
X0041944Y0145431D01*
X0041994Y0145414D01*
X0042042Y0145394D01*
X0042089Y0145370D01*
X0042134Y0145342D01*
X0042177Y0145311D01*
X0042218Y0145278D01*
X0042256Y0145241D01*
X0042291Y0145202D01*
X0042323Y0145160D01*
X0042352Y0145116D01*
X0042378Y0145070D01*
X0042400Y0145022D01*
X0042419Y0144973D01*
X0042435Y0144923D01*
X0042446Y0144871D01*
X0042454Y0144819D01*
X0042458Y0144766D01*
X0042458Y0144714D01*
X0042454Y0144661D01*
X0042446Y0144609D01*
X0042435Y0144557D01*
X0042419Y0144507D01*
X0042400Y0144458D01*
X0042378Y0144410D01*
X0042352Y0144364D01*
X0042323Y0144320D01*
X0042291Y0144278D01*
X0042256Y0144239D01*
X0042218Y0144202D01*
X0042177Y0144169D01*
X0042134Y0144138D01*
X0042089Y0144110D01*
X0042042Y0144086D01*
X0041994Y0144066D01*
X0041944Y0144049D01*
X0041893Y0144035D01*
X0041841Y0144026D01*
X0041789Y0144020D01*
X0041736Y0144018D01*
X0040941Y0147163D02*
X0041158Y0147524D01*
X0041375Y0147885D01*
X0040292Y0148102D02*
X0040261Y0148046D01*
X0040233Y0147989D01*
X0040208Y0147931D01*
X0040187Y0147871D01*
X0040168Y0147810D01*
X0040154Y0147749D01*
X0040142Y0147686D01*
X0040134Y0147623D01*
X0040130Y0147560D01*
X0040129Y0147497D01*
X0040132Y0147433D01*
X0040138Y0147370D01*
X0040148Y0147307D01*
X0039858Y0147524D02*
X0042458Y0147524D01*
X0042169Y0147740D02*
X0042160Y0147780D01*
X0042147Y0147818D01*
X0042131Y0147854D01*
X0042112Y0147889D01*
X0042089Y0147923D01*
X0042063Y0147953D01*
X0042035Y0147982D01*
X0042004Y0148007D01*
X0041971Y0148030D01*
X0041936Y0148049D01*
X0041899Y0148065D01*
X0041861Y0148078D01*
X0041822Y0148087D01*
X0041782Y0148092D01*
X0041742Y0148094D01*
X0041702Y0148092D01*
X0041663Y0148086D01*
X0041624Y0148077D01*
X0041586Y0148063D01*
X0041549Y0148047D01*
X0041514Y0148027D01*
X0041481Y0148004D01*
X0041451Y0147978D01*
X0041423Y0147949D01*
X0041398Y0147918D01*
X0041375Y0147885D01*
X0042168Y0147741D02*
X0042178Y0147678D01*
X0042184Y0147615D01*
X0042187Y0147551D01*
X0042186Y0147488D01*
X0042182Y0147425D01*
X0042174Y0147362D01*
X0042162Y0147299D01*
X0042148Y0147238D01*
X0042129Y0147177D01*
X0042108Y0147117D01*
X0042083Y0147059D01*
X0042055Y0147002D01*
X0042024Y0146946D01*
X0040941Y0147163D02*
X0040918Y0147130D01*
X0040893Y0147099D01*
X0040865Y0147070D01*
X0040835Y0147044D01*
X0040802Y0147021D01*
X0040767Y0147001D01*
X0040730Y0146985D01*
X0040692Y0146971D01*
X0040653Y0146962D01*
X0040614Y0146956D01*
X0040574Y0146954D01*
X0040534Y0146956D01*
X0040494Y0146961D01*
X0040455Y0146970D01*
X0040417Y0146983D01*
X0040380Y0146999D01*
X0040345Y0147018D01*
X0040312Y0147041D01*
X0040281Y0147066D01*
X0040253Y0147095D01*
X0040227Y0147125D01*
X0040204Y0147159D01*
X0040185Y0147194D01*
X0040169Y0147230D01*
X0040156Y0147268D01*
X0040147Y0147308D01*
X0040147Y0149490D02*
X0039858Y0149490D01*
X0039858Y0150934D01*
X0042458Y0150212D01*
D16*
X0100229Y0099437D02*
X0100231Y0099506D01*
X0100237Y0099574D01*
X0100247Y0099642D01*
X0100260Y0099709D01*
X0100278Y0099775D01*
X0100299Y0099840D01*
X0100324Y0099904D01*
X0100352Y0099966D01*
X0100384Y0100027D01*
X0100419Y0100086D01*
X0100458Y0100142D01*
X0100500Y0100197D01*
X0100545Y0100248D01*
X0100593Y0100298D01*
X0100643Y0100344D01*
X0100696Y0100387D01*
X0100752Y0100428D01*
X0100809Y0100465D01*
X0100869Y0100498D01*
X0100931Y0100529D01*
X0100994Y0100555D01*
X0101058Y0100578D01*
X0101124Y0100598D01*
X0101191Y0100613D01*
X0101258Y0100625D01*
X0101326Y0100633D01*
X0101395Y0100637D01*
X0101463Y0100637D01*
X0101532Y0100633D01*
X0101600Y0100625D01*
X0101667Y0100613D01*
X0101734Y0100598D01*
X0101800Y0100578D01*
X0101864Y0100555D01*
X0101927Y0100529D01*
X0101989Y0100498D01*
X0102049Y0100465D01*
X0102106Y0100428D01*
X0102162Y0100387D01*
X0102215Y0100344D01*
X0102265Y0100298D01*
X0102313Y0100248D01*
X0102358Y0100197D01*
X0102400Y0100142D01*
X0102439Y0100086D01*
X0102474Y0100027D01*
X0102506Y0099966D01*
X0102534Y0099904D01*
X0102559Y0099840D01*
X0102580Y0099775D01*
X0102598Y0099709D01*
X0102611Y0099642D01*
X0102621Y0099574D01*
X0102627Y0099506D01*
X0102629Y0099437D01*
X0132513Y0092194D02*
X0132515Y0092263D01*
X0132521Y0092331D01*
X0132531Y0092399D01*
X0132544Y0092466D01*
X0132562Y0092532D01*
X0132583Y0092597D01*
X0132608Y0092661D01*
X0132636Y0092723D01*
X0132668Y0092784D01*
X0132703Y0092843D01*
X0132742Y0092899D01*
X0132784Y0092954D01*
X0132829Y0093005D01*
X0132877Y0093055D01*
X0132927Y0093101D01*
X0132980Y0093144D01*
X0133036Y0093185D01*
X0133093Y0093222D01*
X0133153Y0093255D01*
X0133215Y0093286D01*
X0133278Y0093312D01*
X0133342Y0093335D01*
X0133408Y0093355D01*
X0133475Y0093370D01*
X0133542Y0093382D01*
X0133610Y0093390D01*
X0133679Y0093394D01*
X0133747Y0093394D01*
X0133816Y0093390D01*
X0133884Y0093382D01*
X0133951Y0093370D01*
X0134018Y0093355D01*
X0134084Y0093335D01*
X0134148Y0093312D01*
X0134211Y0093286D01*
X0134273Y0093255D01*
X0134333Y0093222D01*
X0134390Y0093185D01*
X0134446Y0093144D01*
X0134499Y0093101D01*
X0134549Y0093055D01*
X0134597Y0093005D01*
X0134642Y0092954D01*
X0134684Y0092899D01*
X0134723Y0092843D01*
X0134758Y0092784D01*
X0134790Y0092723D01*
X0134818Y0092661D01*
X0134843Y0092597D01*
X0134864Y0092532D01*
X0134882Y0092466D01*
X0134895Y0092399D01*
X0134905Y0092331D01*
X0134911Y0092263D01*
X0134913Y0092194D01*
D17*
X0143691Y0090294D02*
X0145127Y0090816D01*
X0146563Y0090294D01*
X0145127Y0090816D02*
X0145127Y0089249D01*
X0145127Y0090816D02*
X0146041Y0091991D01*
X0145127Y0090816D02*
X0144213Y0091991D01*
X0109979Y0097637D02*
X0108543Y0098159D01*
X0107107Y0097637D01*
X0108543Y0098159D02*
X0109457Y0099334D01*
X0108543Y0098159D02*
X0107629Y0099334D01*
X0108543Y0098159D02*
X0108543Y0096593D01*
X0184880Y0133571D02*
X0187135Y0133571D01*
X0187183Y0133569D01*
X0187231Y0133564D01*
X0187278Y0133555D01*
X0187325Y0133542D01*
X0187370Y0133526D01*
X0187414Y0133507D01*
X0187457Y0133485D01*
X0187498Y0133459D01*
X0187537Y0133430D01*
X0187573Y0133399D01*
X0187607Y0133365D01*
X0187638Y0133329D01*
X0187667Y0133290D01*
X0187693Y0133249D01*
X0187715Y0133206D01*
X0187734Y0133162D01*
X0187750Y0133117D01*
X0187763Y0133070D01*
X0187772Y0133023D01*
X0187777Y0132975D01*
X0187779Y0132927D01*
X0187780Y0132927D02*
X0187780Y0132604D01*
X0187780Y0134923D02*
X0187780Y0136534D01*
X0187780Y0135729D02*
X0184880Y0135729D01*
X0185524Y0134923D01*
D18*
X0138103Y0099071D02*
X0133992Y0099071D01*
X0136048Y0099071D02*
X0136048Y0106471D01*
X0133992Y0104826D01*
X0130848Y0106471D02*
X0130848Y0101126D01*
X0130846Y0101036D01*
X0130840Y0100947D01*
X0130830Y0100858D01*
X0130817Y0100769D01*
X0130799Y0100681D01*
X0130778Y0100594D01*
X0130753Y0100508D01*
X0130724Y0100423D01*
X0130691Y0100339D01*
X0130655Y0100257D01*
X0130616Y0100177D01*
X0130573Y0100098D01*
X0130526Y0100021D01*
X0130476Y0099947D01*
X0130423Y0099874D01*
X0130367Y0099804D01*
X0130308Y0099737D01*
X0130246Y0099672D01*
X0130181Y0099610D01*
X0130114Y0099551D01*
X0130044Y0099495D01*
X0129971Y0099442D01*
X0129897Y0099392D01*
X0129820Y0099345D01*
X0129741Y0099302D01*
X0129661Y0099263D01*
X0129579Y0099227D01*
X0129495Y0099194D01*
X0129410Y0099165D01*
X0129324Y0099140D01*
X0129237Y0099119D01*
X0129149Y0099101D01*
X0129060Y0099088D01*
X0128971Y0099078D01*
X0128882Y0099072D01*
X0128792Y0099070D01*
X0128702Y0099072D01*
X0128613Y0099078D01*
X0128524Y0099088D01*
X0128435Y0099101D01*
X0128347Y0099119D01*
X0128260Y0099140D01*
X0128174Y0099165D01*
X0128089Y0099194D01*
X0128005Y0099227D01*
X0127923Y0099263D01*
X0127843Y0099302D01*
X0127764Y0099345D01*
X0127687Y0099392D01*
X0127613Y0099442D01*
X0127540Y0099495D01*
X0127470Y0099551D01*
X0127403Y0099610D01*
X0127338Y0099672D01*
X0127276Y0099737D01*
X0127217Y0099804D01*
X0127161Y0099874D01*
X0127108Y0099947D01*
X0127058Y0100021D01*
X0127011Y0100098D01*
X0126968Y0100177D01*
X0126929Y0100257D01*
X0126893Y0100339D01*
X0126860Y0100423D01*
X0126831Y0100508D01*
X0126806Y0100594D01*
X0126785Y0100681D01*
X0126767Y0100769D01*
X0126754Y0100858D01*
X0126744Y0100947D01*
X0126738Y0101036D01*
X0126736Y0101126D01*
X0126736Y0106471D01*
X0104931Y0104305D02*
X0104931Y0103894D01*
X0104931Y0104305D02*
X0104929Y0104383D01*
X0104924Y0104461D01*
X0104914Y0104539D01*
X0104901Y0104616D01*
X0104885Y0104693D01*
X0104864Y0104768D01*
X0104841Y0104843D01*
X0104813Y0104916D01*
X0104782Y0104988D01*
X0104748Y0105058D01*
X0104711Y0105127D01*
X0104670Y0105194D01*
X0104626Y0105259D01*
X0104579Y0105321D01*
X0104529Y0105382D01*
X0104477Y0105439D01*
X0104421Y0105495D01*
X0104364Y0105547D01*
X0104303Y0105597D01*
X0104241Y0105644D01*
X0104176Y0105688D01*
X0104109Y0105729D01*
X0104040Y0105766D01*
X0103970Y0105800D01*
X0103898Y0105831D01*
X0103825Y0105859D01*
X0103750Y0105882D01*
X0103675Y0105903D01*
X0103598Y0105919D01*
X0103521Y0105932D01*
X0103443Y0105942D01*
X0103365Y0105947D01*
X0103287Y0105949D01*
X0103287Y0105950D02*
X0100820Y0105950D01*
X0100820Y0103894D01*
X0100822Y0103804D01*
X0100828Y0103715D01*
X0100838Y0103626D01*
X0100851Y0103537D01*
X0100869Y0103449D01*
X0100890Y0103362D01*
X0100915Y0103276D01*
X0100944Y0103191D01*
X0100977Y0103107D01*
X0101013Y0103025D01*
X0101052Y0102945D01*
X0101095Y0102866D01*
X0101142Y0102789D01*
X0101192Y0102715D01*
X0101245Y0102642D01*
X0101301Y0102572D01*
X0101360Y0102505D01*
X0101422Y0102440D01*
X0101487Y0102378D01*
X0101554Y0102319D01*
X0101624Y0102263D01*
X0101697Y0102210D01*
X0101771Y0102160D01*
X0101848Y0102113D01*
X0101927Y0102070D01*
X0102007Y0102031D01*
X0102089Y0101995D01*
X0102173Y0101962D01*
X0102258Y0101933D01*
X0102344Y0101908D01*
X0102431Y0101887D01*
X0102519Y0101869D01*
X0102608Y0101856D01*
X0102697Y0101846D01*
X0102786Y0101840D01*
X0102876Y0101838D01*
X0102966Y0101840D01*
X0103055Y0101846D01*
X0103144Y0101856D01*
X0103233Y0101869D01*
X0103321Y0101887D01*
X0103408Y0101908D01*
X0103494Y0101933D01*
X0103579Y0101962D01*
X0103663Y0101995D01*
X0103745Y0102031D01*
X0103825Y0102070D01*
X0103904Y0102113D01*
X0103981Y0102160D01*
X0104055Y0102210D01*
X0104128Y0102263D01*
X0104198Y0102319D01*
X0104265Y0102378D01*
X0104330Y0102440D01*
X0104392Y0102505D01*
X0104451Y0102572D01*
X0104507Y0102642D01*
X0104560Y0102715D01*
X0104610Y0102789D01*
X0104657Y0102866D01*
X0104700Y0102945D01*
X0104739Y0103025D01*
X0104775Y0103107D01*
X0104808Y0103191D01*
X0104837Y0103276D01*
X0104862Y0103362D01*
X0104883Y0103449D01*
X0104901Y0103537D01*
X0104914Y0103626D01*
X0104924Y0103715D01*
X0104930Y0103804D01*
X0104932Y0103894D01*
X0100820Y0105950D02*
X0100822Y0106062D01*
X0100828Y0106174D01*
X0100837Y0106286D01*
X0100851Y0106398D01*
X0100868Y0106509D01*
X0100889Y0106619D01*
X0100914Y0106729D01*
X0100942Y0106837D01*
X0100974Y0106945D01*
X0101010Y0107051D01*
X0101049Y0107157D01*
X0101092Y0107260D01*
X0101139Y0107363D01*
X0101189Y0107463D01*
X0101242Y0107562D01*
X0101299Y0107659D01*
X0101359Y0107754D01*
X0101422Y0107847D01*
X0101488Y0107937D01*
X0101558Y0108026D01*
X0101630Y0108112D01*
X0101705Y0108195D01*
X0101783Y0108276D01*
X0101864Y0108354D01*
X0101947Y0108429D01*
X0102033Y0108501D01*
X0102122Y0108571D01*
X0102212Y0108637D01*
X0102305Y0108700D01*
X0102400Y0108760D01*
X0102497Y0108817D01*
X0102596Y0108870D01*
X0102696Y0108920D01*
X0102799Y0108967D01*
X0102902Y0109010D01*
X0103008Y0109049D01*
X0103114Y0109085D01*
X0103222Y0109117D01*
X0103330Y0109145D01*
X0103440Y0109170D01*
X0103550Y0109191D01*
X0103661Y0109208D01*
X0103773Y0109222D01*
X0103885Y0109231D01*
X0103997Y0109237D01*
X0104109Y0109239D01*
X0097350Y0104922D02*
X0096322Y0105539D01*
X0095294Y0106155D01*
X0094677Y0103072D02*
X0094774Y0103016D01*
X0094873Y0102964D01*
X0094973Y0102915D01*
X0095075Y0102869D01*
X0095179Y0102827D01*
X0095284Y0102788D01*
X0095390Y0102754D01*
X0095498Y0102722D01*
X0095606Y0102695D01*
X0095715Y0102671D01*
X0095825Y0102651D01*
X0095936Y0102635D01*
X0096047Y0102622D01*
X0096159Y0102614D01*
X0096271Y0102609D01*
X0096382Y0102608D01*
X0096494Y0102611D01*
X0096606Y0102618D01*
X0096717Y0102628D01*
X0096828Y0102643D01*
X0096938Y0102661D01*
X0096322Y0101839D02*
X0096322Y0109239D01*
X0095705Y0108416D02*
X0095638Y0108402D01*
X0095571Y0108384D01*
X0095505Y0108362D01*
X0095441Y0108336D01*
X0095378Y0108307D01*
X0095317Y0108275D01*
X0095258Y0108239D01*
X0095202Y0108200D01*
X0095147Y0108157D01*
X0095095Y0108112D01*
X0095045Y0108064D01*
X0094998Y0108013D01*
X0094955Y0107959D01*
X0094914Y0107903D01*
X0094876Y0107845D01*
X0094842Y0107785D01*
X0094811Y0107723D01*
X0094784Y0107660D01*
X0094761Y0107595D01*
X0094741Y0107529D01*
X0094724Y0107462D01*
X0094712Y0107394D01*
X0094704Y0107325D01*
X0094699Y0107256D01*
X0094698Y0107187D01*
X0094701Y0107118D01*
X0094708Y0107049D01*
X0094719Y0106981D01*
X0094734Y0106913D01*
X0094752Y0106847D01*
X0094775Y0106781D01*
X0094800Y0106717D01*
X0094830Y0106655D01*
X0094863Y0106594D01*
X0094899Y0106535D01*
X0094938Y0106478D01*
X0094981Y0106424D01*
X0095027Y0106372D01*
X0095075Y0106323D01*
X0095126Y0106276D01*
X0095180Y0106233D01*
X0095236Y0106192D01*
X0095294Y0106155D01*
X0095706Y0108416D02*
X0095816Y0108434D01*
X0095927Y0108449D01*
X0096038Y0108459D01*
X0096150Y0108466D01*
X0096262Y0108469D01*
X0096373Y0108468D01*
X0096485Y0108463D01*
X0096597Y0108455D01*
X0096708Y0108442D01*
X0096819Y0108426D01*
X0096929Y0108406D01*
X0097038Y0108382D01*
X0097146Y0108355D01*
X0097254Y0108323D01*
X0097360Y0108289D01*
X0097465Y0108250D01*
X0097568Y0108208D01*
X0097671Y0108162D01*
X0097771Y0108113D01*
X0097870Y0108061D01*
X0097967Y0108005D01*
X0097350Y0104922D02*
X0097408Y0104885D01*
X0097464Y0104844D01*
X0097518Y0104801D01*
X0097569Y0104754D01*
X0097617Y0104705D01*
X0097663Y0104653D01*
X0097706Y0104599D01*
X0097745Y0104542D01*
X0097781Y0104483D01*
X0097814Y0104422D01*
X0097844Y0104360D01*
X0097869Y0104296D01*
X0097892Y0104230D01*
X0097910Y0104164D01*
X0097925Y0104096D01*
X0097936Y0104028D01*
X0097943Y0103959D01*
X0097946Y0103890D01*
X0097945Y0103821D01*
X0097940Y0103752D01*
X0097932Y0103683D01*
X0097920Y0103615D01*
X0097903Y0103548D01*
X0097883Y0103482D01*
X0097860Y0103417D01*
X0097833Y0103354D01*
X0097802Y0103292D01*
X0097768Y0103232D01*
X0097730Y0103174D01*
X0097689Y0103118D01*
X0097646Y0103064D01*
X0097599Y0103013D01*
X0097549Y0102965D01*
X0097497Y0102920D01*
X0097442Y0102877D01*
X0097386Y0102838D01*
X0097327Y0102802D01*
X0097266Y0102770D01*
X0097203Y0102741D01*
X0097139Y0102715D01*
X0097073Y0102693D01*
X0097006Y0102675D01*
X0096939Y0102661D01*
X0091590Y0103894D02*
X0091590Y0109239D01*
X0087479Y0109239D02*
X0087479Y0103894D01*
X0087481Y0103804D01*
X0087487Y0103715D01*
X0087497Y0103626D01*
X0087510Y0103537D01*
X0087528Y0103449D01*
X0087549Y0103362D01*
X0087574Y0103276D01*
X0087603Y0103191D01*
X0087636Y0103107D01*
X0087672Y0103025D01*
X0087711Y0102945D01*
X0087754Y0102866D01*
X0087801Y0102789D01*
X0087851Y0102715D01*
X0087904Y0102642D01*
X0087960Y0102572D01*
X0088019Y0102505D01*
X0088081Y0102440D01*
X0088146Y0102378D01*
X0088213Y0102319D01*
X0088283Y0102263D01*
X0088356Y0102210D01*
X0088430Y0102160D01*
X0088507Y0102113D01*
X0088586Y0102070D01*
X0088666Y0102031D01*
X0088748Y0101995D01*
X0088832Y0101962D01*
X0088917Y0101933D01*
X0089003Y0101908D01*
X0089090Y0101887D01*
X0089178Y0101869D01*
X0089267Y0101856D01*
X0089356Y0101846D01*
X0089445Y0101840D01*
X0089535Y0101838D01*
X0089625Y0101840D01*
X0089714Y0101846D01*
X0089803Y0101856D01*
X0089892Y0101869D01*
X0089980Y0101887D01*
X0090067Y0101908D01*
X0090153Y0101933D01*
X0090238Y0101962D01*
X0090322Y0101995D01*
X0090404Y0102031D01*
X0090484Y0102070D01*
X0090563Y0102113D01*
X0090640Y0102160D01*
X0090714Y0102210D01*
X0090787Y0102263D01*
X0090857Y0102319D01*
X0090924Y0102378D01*
X0090989Y0102440D01*
X0091051Y0102505D01*
X0091110Y0102572D01*
X0091166Y0102642D01*
X0091219Y0102715D01*
X0091269Y0102789D01*
X0091316Y0102866D01*
X0091359Y0102945D01*
X0091398Y0103025D01*
X0091434Y0103107D01*
X0091467Y0103191D01*
X0091496Y0103276D01*
X0091521Y0103362D01*
X0091542Y0103449D01*
X0091560Y0103537D01*
X0091573Y0103626D01*
X0091583Y0103715D01*
X0091589Y0103804D01*
X0091591Y0103894D01*
D19*
X0028004Y0045419D02*
X0028004Y0022919D01*
X0038004Y0022919D02*
X0038004Y0045419D01*
X0048004Y0045419D02*
X0048004Y0022919D01*
X0058004Y0022919D02*
X0058004Y0045419D01*
X0068004Y0045419D02*
X0068004Y0022919D01*
X0078004Y0022919D02*
X0078004Y0045419D01*
D20*
X0078004Y0046919D03*
X0068004Y0046919D03*
X0058004Y0046919D03*
X0048004Y0046919D03*
X0038004Y0046919D03*
X0028004Y0046919D03*
D21*
X0028004Y0059919D03*
X0038004Y0059919D03*
X0048004Y0059919D03*
X0058004Y0059919D03*
X0068004Y0059919D03*
X0078004Y0059919D03*
D22*
X0152807Y0097269D02*
X0152807Y0101206D01*
X0158713Y0101206D02*
X0158713Y0097269D01*
D23*
X0166528Y0128846D02*
X0166039Y0129457D01*
X0168239Y0129457D01*
X0168239Y0128846D02*
X0168239Y0130068D01*
M02*
