G75*
%MOIN*%
%OFA0B0*%
%FSLAX25Y25*%
%IPPOS*%
%LPD*%
%AMOC8*
5,1,8,0,0,1.08239X$1,22.5*
%
%ADD10C,0.00600*%
%ADD11R,0.05906X0.05118*%
%ADD12C,0.06000*%
%ADD13C,0.01200*%
%ADD14C,0.03962*%
D10*
X0129899Y0030155D02*
X0136299Y0030155D01*
X0132743Y0032288D01*
X0136299Y0034421D01*
X0129899Y0034421D01*
X0129899Y0037568D02*
X0136299Y0037568D01*
X0133810Y0038990D02*
X0129899Y0041124D01*
X0129899Y0043434D02*
X0129899Y0046989D01*
X0129899Y0045212D02*
X0136299Y0045212D01*
X0134876Y0043434D01*
X0136299Y0041124D02*
X0132388Y0037568D01*
X0140399Y0037675D02*
X0140399Y0039275D01*
X0143599Y0039275D01*
X0142888Y0039275D02*
X0142888Y0037675D01*
X0143599Y0039275D02*
X0143663Y0039273D01*
X0143728Y0039267D01*
X0143791Y0039258D01*
X0143854Y0039244D01*
X0143916Y0039227D01*
X0143977Y0039206D01*
X0144037Y0039181D01*
X0144095Y0039153D01*
X0144151Y0039121D01*
X0144205Y0039086D01*
X0144257Y0039048D01*
X0144307Y0039007D01*
X0144353Y0038962D01*
X0144398Y0038916D01*
X0144439Y0038866D01*
X0144477Y0038814D01*
X0144512Y0038760D01*
X0144544Y0038704D01*
X0144572Y0038646D01*
X0144597Y0038586D01*
X0144618Y0038525D01*
X0144635Y0038463D01*
X0144649Y0038400D01*
X0144658Y0038337D01*
X0144664Y0038272D01*
X0144666Y0038208D01*
X0144665Y0038208D02*
X0144665Y0036786D01*
X0145021Y0033710D02*
X0142176Y0033710D01*
X0142176Y0033711D02*
X0142094Y0033709D01*
X0142012Y0033703D01*
X0141930Y0033694D01*
X0141849Y0033681D01*
X0141769Y0033664D01*
X0141689Y0033643D01*
X0141611Y0033619D01*
X0141534Y0033591D01*
X0141458Y0033560D01*
X0141383Y0033525D01*
X0141311Y0033486D01*
X0141240Y0033445D01*
X0141171Y0033400D01*
X0141105Y0033352D01*
X0141040Y0033301D01*
X0140978Y0033247D01*
X0140919Y0033190D01*
X0140862Y0033131D01*
X0140808Y0033069D01*
X0140757Y0033004D01*
X0140709Y0032938D01*
X0140664Y0032869D01*
X0140623Y0032798D01*
X0140584Y0032726D01*
X0140549Y0032651D01*
X0140518Y0032575D01*
X0140490Y0032498D01*
X0140466Y0032420D01*
X0140445Y0032340D01*
X0140428Y0032260D01*
X0140415Y0032179D01*
X0140406Y0032097D01*
X0140400Y0032015D01*
X0140398Y0031933D01*
X0140399Y0031933D02*
X0140399Y0030155D01*
X0146799Y0030155D01*
X0146799Y0031933D01*
X0146797Y0032015D01*
X0146791Y0032097D01*
X0146782Y0032179D01*
X0146769Y0032260D01*
X0146752Y0032340D01*
X0146731Y0032420D01*
X0146707Y0032498D01*
X0146679Y0032575D01*
X0146648Y0032651D01*
X0146613Y0032726D01*
X0146574Y0032798D01*
X0146533Y0032869D01*
X0146488Y0032938D01*
X0146440Y0033004D01*
X0146389Y0033069D01*
X0146335Y0033131D01*
X0146278Y0033190D01*
X0146219Y0033247D01*
X0146157Y0033301D01*
X0146092Y0033352D01*
X0146026Y0033400D01*
X0145957Y0033445D01*
X0145886Y0033486D01*
X0145814Y0033525D01*
X0145739Y0033560D01*
X0145663Y0033591D01*
X0145586Y0033619D01*
X0145508Y0033643D01*
X0145428Y0033664D01*
X0145348Y0033681D01*
X0145267Y0033694D01*
X0145185Y0033703D01*
X0145103Y0033709D01*
X0145021Y0033711D01*
X0142887Y0037675D02*
X0142885Y0037605D01*
X0142879Y0037536D01*
X0142869Y0037467D01*
X0142856Y0037398D01*
X0142838Y0037331D01*
X0142817Y0037264D01*
X0142792Y0037199D01*
X0142764Y0037135D01*
X0142732Y0037073D01*
X0142696Y0037013D01*
X0142658Y0036955D01*
X0142616Y0036899D01*
X0142571Y0036846D01*
X0142523Y0036795D01*
X0142472Y0036747D01*
X0142419Y0036702D01*
X0142363Y0036660D01*
X0142305Y0036622D01*
X0142245Y0036586D01*
X0142183Y0036554D01*
X0142119Y0036526D01*
X0142054Y0036501D01*
X0141987Y0036480D01*
X0141920Y0036462D01*
X0141851Y0036449D01*
X0141782Y0036439D01*
X0141713Y0036433D01*
X0141643Y0036431D01*
X0141573Y0036433D01*
X0141504Y0036439D01*
X0141435Y0036449D01*
X0141366Y0036462D01*
X0141299Y0036480D01*
X0141232Y0036501D01*
X0141167Y0036526D01*
X0141103Y0036554D01*
X0141041Y0036586D01*
X0140981Y0036622D01*
X0140923Y0036660D01*
X0140867Y0036702D01*
X0140814Y0036747D01*
X0140763Y0036795D01*
X0140715Y0036846D01*
X0140670Y0036899D01*
X0140628Y0036955D01*
X0140590Y0037013D01*
X0140554Y0037073D01*
X0140522Y0037135D01*
X0140494Y0037199D01*
X0140469Y0037264D01*
X0140448Y0037331D01*
X0140430Y0037398D01*
X0140417Y0037467D01*
X0140407Y0037536D01*
X0140401Y0037605D01*
X0140399Y0037675D01*
X0141465Y0042198D02*
X0146799Y0042198D01*
X0144665Y0041487D02*
X0144665Y0043620D01*
X0143243Y0045895D02*
X0141465Y0045895D01*
X0142532Y0045895D02*
X0142532Y0048740D01*
X0143243Y0048740D01*
X0143317Y0048738D01*
X0143392Y0048732D01*
X0143465Y0048722D01*
X0143539Y0048709D01*
X0143611Y0048692D01*
X0143682Y0048670D01*
X0143753Y0048646D01*
X0143821Y0048617D01*
X0143889Y0048585D01*
X0143954Y0048549D01*
X0144017Y0048511D01*
X0144079Y0048468D01*
X0144138Y0048423D01*
X0144195Y0048375D01*
X0144249Y0048324D01*
X0144300Y0048270D01*
X0144348Y0048213D01*
X0144393Y0048154D01*
X0144436Y0048092D01*
X0144474Y0048029D01*
X0144510Y0047964D01*
X0144542Y0047896D01*
X0144571Y0047828D01*
X0144595Y0047757D01*
X0144617Y0047686D01*
X0144634Y0047614D01*
X0144647Y0047540D01*
X0144657Y0047467D01*
X0144663Y0047392D01*
X0144665Y0047318D01*
X0144663Y0047244D01*
X0144657Y0047169D01*
X0144647Y0047096D01*
X0144634Y0047022D01*
X0144617Y0046950D01*
X0144595Y0046879D01*
X0144571Y0046808D01*
X0144542Y0046740D01*
X0144510Y0046672D01*
X0144474Y0046607D01*
X0144436Y0046544D01*
X0144393Y0046482D01*
X0144348Y0046423D01*
X0144300Y0046366D01*
X0144249Y0046312D01*
X0144195Y0046261D01*
X0144138Y0046213D01*
X0144079Y0046168D01*
X0144017Y0046125D01*
X0143954Y0046087D01*
X0143889Y0046051D01*
X0143821Y0046019D01*
X0143753Y0045990D01*
X0143682Y0045966D01*
X0143611Y0045944D01*
X0143539Y0045927D01*
X0143465Y0045914D01*
X0143392Y0045904D01*
X0143317Y0045898D01*
X0143243Y0045896D01*
X0141465Y0045895D02*
X0141401Y0045897D01*
X0141336Y0045903D01*
X0141273Y0045912D01*
X0141210Y0045926D01*
X0141148Y0045943D01*
X0141087Y0045964D01*
X0141027Y0045989D01*
X0140969Y0046017D01*
X0140913Y0046049D01*
X0140859Y0046084D01*
X0140807Y0046122D01*
X0140757Y0046163D01*
X0140711Y0046208D01*
X0140666Y0046254D01*
X0140625Y0046304D01*
X0140587Y0046356D01*
X0140552Y0046410D01*
X0140520Y0046466D01*
X0140492Y0046524D01*
X0140467Y0046584D01*
X0140446Y0046645D01*
X0140429Y0046707D01*
X0140415Y0046770D01*
X0140406Y0046833D01*
X0140400Y0046898D01*
X0140398Y0046962D01*
X0140399Y0046962D02*
X0140399Y0048740D01*
X0140399Y0051434D02*
X0144665Y0051434D01*
X0144665Y0053212D01*
X0144666Y0053212D02*
X0144664Y0053276D01*
X0144658Y0053341D01*
X0144649Y0053404D01*
X0144635Y0053467D01*
X0144618Y0053529D01*
X0144597Y0053590D01*
X0144572Y0053650D01*
X0144544Y0053708D01*
X0144512Y0053764D01*
X0144477Y0053818D01*
X0144439Y0053870D01*
X0144398Y0053920D01*
X0144353Y0053966D01*
X0144307Y0054011D01*
X0144257Y0054052D01*
X0144205Y0054090D01*
X0144151Y0054125D01*
X0144095Y0054157D01*
X0144037Y0054185D01*
X0143977Y0054210D01*
X0143916Y0054231D01*
X0143854Y0054248D01*
X0143791Y0054262D01*
X0143728Y0054271D01*
X0143663Y0054277D01*
X0143599Y0054279D01*
X0143599Y0054278D02*
X0140399Y0054278D01*
X0141465Y0057066D02*
X0146799Y0057066D01*
X0143243Y0060255D02*
X0141821Y0060255D01*
X0141747Y0060257D01*
X0141672Y0060263D01*
X0141599Y0060273D01*
X0141525Y0060286D01*
X0141453Y0060303D01*
X0141382Y0060325D01*
X0141311Y0060349D01*
X0141243Y0060378D01*
X0141175Y0060410D01*
X0141110Y0060446D01*
X0141047Y0060484D01*
X0140985Y0060527D01*
X0140926Y0060572D01*
X0140869Y0060620D01*
X0140815Y0060671D01*
X0140764Y0060725D01*
X0140716Y0060782D01*
X0140671Y0060841D01*
X0140628Y0060903D01*
X0140590Y0060966D01*
X0140554Y0061031D01*
X0140522Y0061099D01*
X0140493Y0061167D01*
X0140469Y0061238D01*
X0140447Y0061309D01*
X0140430Y0061381D01*
X0140417Y0061455D01*
X0140407Y0061528D01*
X0140401Y0061603D01*
X0140399Y0061677D01*
X0140401Y0061751D01*
X0140407Y0061826D01*
X0140417Y0061899D01*
X0140430Y0061973D01*
X0140447Y0062045D01*
X0140469Y0062116D01*
X0140493Y0062187D01*
X0140522Y0062255D01*
X0140554Y0062323D01*
X0140590Y0062388D01*
X0140628Y0062451D01*
X0140671Y0062513D01*
X0140716Y0062572D01*
X0140764Y0062629D01*
X0140815Y0062683D01*
X0140869Y0062734D01*
X0140926Y0062782D01*
X0140985Y0062827D01*
X0141047Y0062870D01*
X0141110Y0062908D01*
X0141175Y0062944D01*
X0141243Y0062976D01*
X0141311Y0063005D01*
X0141382Y0063029D01*
X0141453Y0063051D01*
X0141525Y0063068D01*
X0141599Y0063081D01*
X0141672Y0063091D01*
X0141747Y0063097D01*
X0141821Y0063099D01*
X0143243Y0063099D01*
X0143317Y0063097D01*
X0143392Y0063091D01*
X0143465Y0063081D01*
X0143539Y0063068D01*
X0143611Y0063051D01*
X0143682Y0063029D01*
X0143753Y0063005D01*
X0143821Y0062976D01*
X0143889Y0062944D01*
X0143954Y0062908D01*
X0144017Y0062870D01*
X0144079Y0062827D01*
X0144138Y0062782D01*
X0144195Y0062734D01*
X0144249Y0062683D01*
X0144300Y0062629D01*
X0144348Y0062572D01*
X0144393Y0062513D01*
X0144436Y0062451D01*
X0144474Y0062388D01*
X0144510Y0062323D01*
X0144542Y0062255D01*
X0144571Y0062187D01*
X0144595Y0062116D01*
X0144617Y0062045D01*
X0144634Y0061973D01*
X0144647Y0061899D01*
X0144657Y0061826D01*
X0144663Y0061751D01*
X0144665Y0061677D01*
X0144663Y0061603D01*
X0144657Y0061528D01*
X0144647Y0061455D01*
X0144634Y0061381D01*
X0144617Y0061309D01*
X0144595Y0061238D01*
X0144571Y0061167D01*
X0144542Y0061099D01*
X0144510Y0061031D01*
X0144474Y0060966D01*
X0144436Y0060903D01*
X0144393Y0060841D01*
X0144348Y0060782D01*
X0144300Y0060725D01*
X0144249Y0060671D01*
X0144195Y0060620D01*
X0144138Y0060572D01*
X0144079Y0060527D01*
X0144017Y0060484D01*
X0143954Y0060446D01*
X0143889Y0060410D01*
X0143821Y0060378D01*
X0143753Y0060349D01*
X0143682Y0060325D01*
X0143611Y0060303D01*
X0143539Y0060286D01*
X0143465Y0060273D01*
X0143392Y0060263D01*
X0143317Y0060257D01*
X0143243Y0060255D01*
X0140398Y0058133D02*
X0140400Y0058069D01*
X0140406Y0058004D01*
X0140415Y0057941D01*
X0140429Y0057878D01*
X0140446Y0057816D01*
X0140467Y0057755D01*
X0140492Y0057695D01*
X0140520Y0057637D01*
X0140552Y0057581D01*
X0140587Y0057527D01*
X0140625Y0057475D01*
X0140666Y0057425D01*
X0140711Y0057379D01*
X0140757Y0057334D01*
X0140807Y0057293D01*
X0140859Y0057255D01*
X0140913Y0057220D01*
X0140969Y0057188D01*
X0141027Y0057160D01*
X0141087Y0057135D01*
X0141148Y0057114D01*
X0141210Y0057097D01*
X0141273Y0057083D01*
X0141336Y0057074D01*
X0141401Y0057068D01*
X0141465Y0057066D01*
X0136299Y0056781D02*
X0129899Y0054648D01*
X0136299Y0052514D01*
X0134876Y0059024D02*
X0136299Y0060802D01*
X0129899Y0060802D01*
X0129899Y0059024D02*
X0129899Y0062580D01*
X0129899Y0064932D02*
X0129899Y0065287D01*
X0130254Y0065287D01*
X0130254Y0064932D01*
X0129899Y0064932D01*
X0129899Y0067640D02*
X0129899Y0071195D01*
X0129899Y0069417D02*
X0136299Y0069417D01*
X0134876Y0067640D01*
X0138265Y0067337D02*
X0138265Y0065915D01*
X0138265Y0067337D02*
X0138267Y0067401D01*
X0138273Y0067466D01*
X0138282Y0067529D01*
X0138296Y0067592D01*
X0138313Y0067654D01*
X0138334Y0067715D01*
X0138359Y0067775D01*
X0138387Y0067833D01*
X0138419Y0067889D01*
X0138454Y0067943D01*
X0138492Y0067995D01*
X0138533Y0068045D01*
X0138578Y0068091D01*
X0138624Y0068136D01*
X0138674Y0068177D01*
X0138726Y0068215D01*
X0138780Y0068250D01*
X0138836Y0068282D01*
X0138894Y0068310D01*
X0138954Y0068335D01*
X0139015Y0068356D01*
X0139077Y0068373D01*
X0139140Y0068387D01*
X0139203Y0068396D01*
X0139268Y0068402D01*
X0139332Y0068404D01*
X0144665Y0068404D01*
X0144665Y0066626D01*
X0144666Y0066626D02*
X0144664Y0066562D01*
X0144658Y0066497D01*
X0144649Y0066434D01*
X0144635Y0066371D01*
X0144618Y0066309D01*
X0144597Y0066248D01*
X0144572Y0066188D01*
X0144544Y0066130D01*
X0144512Y0066074D01*
X0144477Y0066020D01*
X0144439Y0065968D01*
X0144398Y0065918D01*
X0144353Y0065872D01*
X0144307Y0065827D01*
X0144257Y0065786D01*
X0144205Y0065748D01*
X0144151Y0065713D01*
X0144095Y0065681D01*
X0144037Y0065653D01*
X0143977Y0065628D01*
X0143916Y0065607D01*
X0143854Y0065590D01*
X0143791Y0065576D01*
X0143728Y0065567D01*
X0143663Y0065561D01*
X0143599Y0065559D01*
X0141465Y0065559D01*
X0141401Y0065561D01*
X0141336Y0065567D01*
X0141273Y0065576D01*
X0141210Y0065590D01*
X0141148Y0065607D01*
X0141087Y0065628D01*
X0141027Y0065653D01*
X0140969Y0065681D01*
X0140913Y0065713D01*
X0140859Y0065748D01*
X0140807Y0065786D01*
X0140757Y0065827D01*
X0140711Y0065872D01*
X0140666Y0065918D01*
X0140625Y0065968D01*
X0140587Y0066020D01*
X0140552Y0066074D01*
X0140520Y0066130D01*
X0140492Y0066188D01*
X0140467Y0066248D01*
X0140446Y0066309D01*
X0140429Y0066371D01*
X0140415Y0066434D01*
X0140406Y0066497D01*
X0140400Y0066562D01*
X0140398Y0066626D01*
X0140399Y0066626D02*
X0140399Y0068404D01*
X0141465Y0071098D02*
X0143599Y0071098D01*
X0143663Y0071100D01*
X0143728Y0071106D01*
X0143791Y0071115D01*
X0143854Y0071129D01*
X0143916Y0071146D01*
X0143977Y0071167D01*
X0144037Y0071192D01*
X0144095Y0071220D01*
X0144151Y0071252D01*
X0144205Y0071287D01*
X0144257Y0071325D01*
X0144307Y0071366D01*
X0144353Y0071411D01*
X0144398Y0071457D01*
X0144439Y0071507D01*
X0144477Y0071559D01*
X0144512Y0071613D01*
X0144544Y0071669D01*
X0144572Y0071727D01*
X0144597Y0071787D01*
X0144618Y0071848D01*
X0144635Y0071910D01*
X0144649Y0071973D01*
X0144658Y0072036D01*
X0144664Y0072101D01*
X0144666Y0072165D01*
X0144665Y0072165D02*
X0144665Y0073942D01*
X0139332Y0073942D01*
X0139332Y0073943D02*
X0139268Y0073941D01*
X0139203Y0073935D01*
X0139140Y0073926D01*
X0139077Y0073912D01*
X0139015Y0073895D01*
X0138954Y0073874D01*
X0138894Y0073849D01*
X0138836Y0073821D01*
X0138780Y0073789D01*
X0138726Y0073754D01*
X0138674Y0073716D01*
X0138624Y0073675D01*
X0138578Y0073630D01*
X0138533Y0073584D01*
X0138492Y0073534D01*
X0138454Y0073482D01*
X0138419Y0073428D01*
X0138387Y0073372D01*
X0138359Y0073314D01*
X0138334Y0073254D01*
X0138313Y0073193D01*
X0138296Y0073131D01*
X0138282Y0073068D01*
X0138273Y0073005D01*
X0138267Y0072940D01*
X0138265Y0072876D01*
X0138265Y0071454D01*
X0140399Y0072165D02*
X0140399Y0073942D01*
X0140398Y0072165D02*
X0140400Y0072101D01*
X0140406Y0072036D01*
X0140415Y0071973D01*
X0140429Y0071910D01*
X0140446Y0071848D01*
X0140467Y0071787D01*
X0140492Y0071727D01*
X0140520Y0071669D01*
X0140552Y0071613D01*
X0140587Y0071559D01*
X0140625Y0071507D01*
X0140666Y0071457D01*
X0140711Y0071411D01*
X0140757Y0071366D01*
X0140807Y0071325D01*
X0140859Y0071287D01*
X0140913Y0071252D01*
X0140969Y0071220D01*
X0141027Y0071192D01*
X0141087Y0071167D01*
X0141148Y0071146D01*
X0141210Y0071129D01*
X0141273Y0071115D01*
X0141336Y0071106D01*
X0141401Y0071100D01*
X0141465Y0071098D01*
X0141465Y0076666D02*
X0143243Y0076666D01*
X0142532Y0076666D02*
X0142532Y0079510D01*
X0143243Y0079510D01*
X0143317Y0079508D01*
X0143392Y0079502D01*
X0143465Y0079492D01*
X0143539Y0079479D01*
X0143611Y0079462D01*
X0143682Y0079440D01*
X0143753Y0079416D01*
X0143821Y0079387D01*
X0143889Y0079355D01*
X0143954Y0079319D01*
X0144017Y0079281D01*
X0144079Y0079238D01*
X0144138Y0079193D01*
X0144195Y0079145D01*
X0144249Y0079094D01*
X0144300Y0079040D01*
X0144348Y0078983D01*
X0144393Y0078924D01*
X0144436Y0078862D01*
X0144474Y0078799D01*
X0144510Y0078734D01*
X0144542Y0078666D01*
X0144571Y0078598D01*
X0144595Y0078527D01*
X0144617Y0078456D01*
X0144634Y0078384D01*
X0144647Y0078310D01*
X0144657Y0078237D01*
X0144663Y0078162D01*
X0144665Y0078088D01*
X0144663Y0078014D01*
X0144657Y0077939D01*
X0144647Y0077866D01*
X0144634Y0077792D01*
X0144617Y0077720D01*
X0144595Y0077649D01*
X0144571Y0077578D01*
X0144542Y0077510D01*
X0144510Y0077442D01*
X0144474Y0077377D01*
X0144436Y0077314D01*
X0144393Y0077252D01*
X0144348Y0077193D01*
X0144300Y0077136D01*
X0144249Y0077082D01*
X0144195Y0077031D01*
X0144138Y0076983D01*
X0144079Y0076938D01*
X0144017Y0076895D01*
X0143954Y0076857D01*
X0143889Y0076821D01*
X0143821Y0076789D01*
X0143753Y0076760D01*
X0143682Y0076736D01*
X0143611Y0076714D01*
X0143539Y0076697D01*
X0143465Y0076684D01*
X0143392Y0076674D01*
X0143317Y0076668D01*
X0143243Y0076666D01*
X0141465Y0076665D02*
X0141401Y0076667D01*
X0141336Y0076673D01*
X0141273Y0076682D01*
X0141210Y0076696D01*
X0141148Y0076713D01*
X0141087Y0076734D01*
X0141027Y0076759D01*
X0140969Y0076787D01*
X0140913Y0076819D01*
X0140859Y0076854D01*
X0140807Y0076892D01*
X0140757Y0076933D01*
X0140711Y0076978D01*
X0140666Y0077024D01*
X0140625Y0077074D01*
X0140587Y0077126D01*
X0140552Y0077180D01*
X0140520Y0077236D01*
X0140492Y0077294D01*
X0140467Y0077354D01*
X0140446Y0077415D01*
X0140429Y0077477D01*
X0140415Y0077540D01*
X0140406Y0077603D01*
X0140400Y0077668D01*
X0140398Y0077732D01*
X0140399Y0077732D02*
X0140399Y0079510D01*
X0140399Y0082238D02*
X0144665Y0082238D01*
X0144665Y0084371D01*
X0143954Y0084371D01*
X0140399Y0043620D02*
X0140399Y0043265D01*
X0140398Y0043265D02*
X0140400Y0043201D01*
X0140406Y0043136D01*
X0140415Y0043073D01*
X0140429Y0043010D01*
X0140446Y0042948D01*
X0140467Y0042887D01*
X0140492Y0042827D01*
X0140520Y0042769D01*
X0140552Y0042713D01*
X0140587Y0042659D01*
X0140625Y0042607D01*
X0140666Y0042557D01*
X0140711Y0042511D01*
X0140757Y0042466D01*
X0140807Y0042425D01*
X0140859Y0042387D01*
X0140913Y0042352D01*
X0140969Y0042320D01*
X0141027Y0042292D01*
X0141087Y0042267D01*
X0141148Y0042246D01*
X0141210Y0042229D01*
X0141273Y0042215D01*
X0141336Y0042206D01*
X0141401Y0042200D01*
X0141465Y0042198D01*
D11*
X0070327Y0094317D03*
X0070327Y0101797D03*
X0070327Y0110065D03*
X0070327Y0117545D03*
X0062453Y0117545D03*
X0062453Y0110065D03*
X0054579Y0110065D03*
X0054579Y0117545D03*
X0046705Y0117545D03*
X0046705Y0110065D03*
X0046705Y0101797D03*
X0046705Y0094317D03*
X0054579Y0094317D03*
X0054579Y0101797D03*
D12*
X0058004Y0068419D02*
X0058004Y0062419D01*
X0048004Y0062419D02*
X0048004Y0068419D01*
X0038004Y0068419D02*
X0038004Y0062419D01*
X0028004Y0062419D02*
X0028004Y0068419D01*
X0068004Y0068419D02*
X0068004Y0062419D01*
X0078004Y0062419D02*
X0078004Y0068419D01*
D13*
X0027732Y0026360D02*
X0171978Y0026360D01*
X0171160Y0025542D02*
X0171160Y0025542D01*
X0175895Y0030277D01*
X0175895Y0154412D01*
X0172152Y0154412D01*
X0171160Y0154823D01*
X0170400Y0155582D01*
X0170310Y0155799D01*
X0170068Y0155799D01*
X0168862Y0156299D01*
X0168752Y0156409D01*
X0168642Y0156299D01*
X0167436Y0155799D01*
X0166131Y0155799D01*
X0164925Y0156299D01*
X0164815Y0156409D01*
X0164705Y0156299D01*
X0163499Y0155799D01*
X0162194Y0155799D01*
X0160988Y0156299D01*
X0160878Y0156409D01*
X0160768Y0156299D01*
X0159562Y0155799D01*
X0158257Y0155799D01*
X0157051Y0156299D01*
X0156941Y0156409D01*
X0156831Y0156299D01*
X0155625Y0155799D01*
X0155383Y0155799D01*
X0155293Y0155582D01*
X0154534Y0154823D01*
X0153541Y0154412D01*
X0057489Y0154412D01*
X0057629Y0154075D01*
X0057766Y0153383D01*
X0057766Y0153031D01*
X0054185Y0153031D01*
X0054185Y0153031D01*
X0050604Y0153031D01*
X0050604Y0153383D01*
X0050742Y0154075D01*
X0050881Y0154412D01*
X0046168Y0154412D01*
X0045176Y0154823D01*
X0044416Y0155582D01*
X0044326Y0155799D01*
X0044084Y0155799D01*
X0042878Y0156299D01*
X0042768Y0156409D01*
X0042658Y0156299D01*
X0041452Y0155799D01*
X0040147Y0155799D01*
X0038941Y0156299D01*
X0038831Y0156409D01*
X0038721Y0156299D01*
X0037515Y0155799D01*
X0036210Y0155799D01*
X0035004Y0156299D01*
X0034894Y0156409D01*
X0034784Y0156299D01*
X0033578Y0155799D01*
X0032273Y0155799D01*
X0031067Y0156299D01*
X0030957Y0156409D01*
X0030847Y0156299D01*
X0029641Y0155799D01*
X0029399Y0155799D01*
X0029309Y0155582D01*
X0028549Y0154823D01*
X0028549Y0154823D01*
X0023814Y0150088D01*
X0023814Y0069802D01*
X0024274Y0070911D01*
X0025304Y0071941D01*
X0025304Y0072661D01*
X0025165Y0072800D01*
X0024620Y0074116D01*
X0024620Y0075541D01*
X0025165Y0076857D01*
X0026173Y0077864D01*
X0027489Y0078409D01*
X0027964Y0078409D01*
X0034893Y0085339D01*
X0035653Y0086098D01*
X0036645Y0086509D01*
X0058898Y0086509D01*
X0059753Y0087364D01*
X0059753Y0099097D01*
X0058932Y0099097D01*
X0058932Y0098658D01*
X0058331Y0098057D01*
X0058932Y0097455D01*
X0058932Y0091178D01*
X0058112Y0090357D01*
X0051046Y0090357D01*
X0050642Y0090762D01*
X0050238Y0090357D01*
X0043172Y0090357D01*
X0042352Y0091178D01*
X0042352Y0091420D01*
X0042231Y0091420D01*
X0041239Y0091831D01*
X0040479Y0092590D01*
X0038511Y0094559D01*
X0038099Y0095551D01*
X0038099Y0122567D01*
X0035088Y0125578D01*
X0034613Y0125578D01*
X0033297Y0126123D01*
X0032290Y0127131D01*
X0031744Y0128447D01*
X0031744Y0129871D01*
X0032290Y0131188D01*
X0033297Y0132195D01*
X0034613Y0132740D01*
X0036038Y0132740D01*
X0037354Y0132195D01*
X0038361Y0131188D01*
X0038907Y0129871D01*
X0038907Y0129396D01*
X0042329Y0125974D01*
X0043088Y0125214D01*
X0043499Y0124222D01*
X0043499Y0121504D01*
X0050238Y0121504D01*
X0050642Y0121100D01*
X0051046Y0121504D01*
X0058112Y0121504D01*
X0058516Y0121100D01*
X0058920Y0121504D01*
X0065986Y0121504D01*
X0066390Y0121100D01*
X0066794Y0121504D01*
X0073860Y0121504D01*
X0074680Y0120684D01*
X0074680Y0120442D01*
X0076376Y0120442D01*
X0077368Y0120031D01*
X0078128Y0119271D01*
X0078406Y0118599D01*
X0079281Y0117724D01*
X0079281Y0117724D01*
X0080040Y0116965D01*
X0080451Y0115972D01*
X0080451Y0105250D01*
X0084556Y0105250D01*
X0084556Y0126940D01*
X0084967Y0127933D01*
X0090057Y0133023D01*
X0091050Y0133434D01*
X0093159Y0133434D01*
X0093495Y0133770D01*
X0094812Y0134315D01*
X0096236Y0134315D01*
X0097552Y0133770D01*
X0098560Y0132762D01*
X0099105Y0131446D01*
X0099105Y0130022D01*
X0098560Y0128705D01*
X0097552Y0127698D01*
X0096236Y0127153D01*
X0094812Y0127153D01*
X0093495Y0127698D01*
X0093159Y0128034D01*
X0092705Y0128034D01*
X0089956Y0125285D01*
X0089956Y0104914D01*
X0090292Y0104578D01*
X0090837Y0103262D01*
X0090837Y0101837D01*
X0090825Y0101808D01*
X0091682Y0101808D01*
X0092998Y0101263D01*
X0093334Y0100927D01*
X0112292Y0100927D01*
X0113922Y0102556D01*
X0113922Y0103844D01*
X0113165Y0103531D01*
X0111741Y0103531D01*
X0110424Y0104076D01*
X0110089Y0104412D01*
X0108373Y0104412D01*
X0107380Y0104823D01*
X0106621Y0105582D01*
X0105412Y0106791D01*
X0104652Y0107551D01*
X0104241Y0108543D01*
X0104241Y0126976D01*
X0104049Y0126897D01*
X0103357Y0126759D01*
X0103004Y0126759D01*
X0103004Y0130340D01*
X0099423Y0130340D01*
X0099423Y0129987D01*
X0099561Y0129296D01*
X0099831Y0128644D01*
X0100223Y0128057D01*
X0100721Y0127559D01*
X0101308Y0127167D01*
X0101960Y0126897D01*
X0102651Y0126759D01*
X0103004Y0126759D01*
X0103004Y0130340D01*
X0103004Y0130340D01*
X0103004Y0130340D01*
X0099423Y0130340D01*
X0099423Y0130693D01*
X0099561Y0131385D01*
X0099831Y0132036D01*
X0100223Y0132623D01*
X0100721Y0133122D01*
X0101308Y0133514D01*
X0101739Y0133692D01*
X0099973Y0135458D01*
X0081626Y0135458D01*
X0080957Y0134789D01*
X0080957Y0134314D01*
X0080412Y0132998D01*
X0079417Y0132004D01*
X0079912Y0132209D01*
X0080604Y0132346D01*
X0080957Y0132346D01*
X0080957Y0128765D01*
X0080957Y0125184D01*
X0081310Y0125184D01*
X0082002Y0125322D01*
X0082653Y0125592D01*
X0083240Y0125984D01*
X0083739Y0126483D01*
X0084130Y0127069D01*
X0084400Y0127721D01*
X0084538Y0128413D01*
X0084538Y0128765D01*
X0080957Y0128765D01*
X0080957Y0128765D01*
X0080957Y0125184D01*
X0080604Y0125184D01*
X0079912Y0125322D01*
X0079261Y0125592D01*
X0078674Y0125984D01*
X0078175Y0126483D01*
X0077783Y0127069D01*
X0077513Y0127721D01*
X0077376Y0128413D01*
X0077376Y0128765D01*
X0080957Y0128765D01*
X0080957Y0128765D01*
X0080957Y0128765D01*
X0059303Y0128765D01*
X0059303Y0153031D01*
X0156941Y0153031D01*
X0156548Y0152637D01*
X0156548Y0150813D01*
X0160129Y0150813D01*
X0160129Y0151165D01*
X0159991Y0151857D01*
X0159721Y0152509D01*
X0159329Y0153095D01*
X0158830Y0153594D01*
X0158244Y0153986D01*
X0157592Y0154256D01*
X0156900Y0154394D01*
X0156548Y0154394D01*
X0156548Y0150813D01*
X0156548Y0150813D01*
X0156547Y0150813D01*
X0156547Y0150813D01*
X0152966Y0150813D01*
X0152966Y0151165D01*
X0153104Y0151857D01*
X0153374Y0152509D01*
X0153766Y0153095D01*
X0154265Y0153594D01*
X0154851Y0153986D01*
X0155503Y0154256D01*
X0156195Y0154394D01*
X0156547Y0154394D01*
X0156547Y0150813D01*
X0152966Y0150813D01*
X0152966Y0150460D01*
X0153104Y0149768D01*
X0153374Y0149116D01*
X0153766Y0148530D01*
X0154265Y0148031D01*
X0154851Y0147639D01*
X0155503Y0147369D01*
X0156195Y0147231D01*
X0156547Y0147231D01*
X0156547Y0150812D01*
X0156548Y0150812D01*
X0156548Y0150813D02*
X0160129Y0150813D01*
X0160129Y0150460D01*
X0159991Y0149768D01*
X0159721Y0149116D01*
X0159329Y0148530D01*
X0158830Y0148031D01*
X0158244Y0147639D01*
X0157592Y0147369D01*
X0156900Y0147231D01*
X0156548Y0147231D01*
X0156548Y0150812D01*
X0156547Y0151006D02*
X0156548Y0151006D01*
X0156547Y0152204D02*
X0156548Y0152204D01*
X0156941Y0153031D02*
X0166140Y0153031D01*
X0168359Y0150813D01*
X0168359Y0038608D01*
X0156154Y0026403D01*
X0038437Y0026403D01*
X0032925Y0031915D01*
X0032925Y0075222D01*
X0038813Y0081109D01*
X0047886Y0081109D01*
X0047886Y0065537D01*
X0048004Y0065419D01*
X0047604Y0065819D02*
X0047604Y0065019D01*
X0043404Y0065019D01*
X0043404Y0062057D01*
X0043517Y0061342D01*
X0043741Y0060653D01*
X0044070Y0060008D01*
X0044496Y0059422D01*
X0045007Y0058910D01*
X0045593Y0058485D01*
X0046238Y0058156D01*
X0046927Y0057932D01*
X0047604Y0057825D01*
X0047604Y0065019D01*
X0048404Y0065019D01*
X0048404Y0057825D01*
X0049081Y0057932D01*
X0049770Y0058156D01*
X0050415Y0058485D01*
X0051001Y0058910D01*
X0051513Y0059422D01*
X0051938Y0060008D01*
X0052267Y0060653D01*
X0052491Y0061342D01*
X0052604Y0062057D01*
X0052604Y0065019D01*
X0048404Y0065019D01*
X0048404Y0065819D01*
X0047604Y0065819D01*
X0043404Y0065819D01*
X0043404Y0068781D01*
X0043517Y0069496D01*
X0043741Y0070185D01*
X0044070Y0070830D01*
X0044496Y0071416D01*
X0045007Y0071928D01*
X0045593Y0072353D01*
X0046238Y0072682D01*
X0046927Y0072906D01*
X0047604Y0073013D01*
X0047604Y0065819D01*
X0047604Y0065911D02*
X0048404Y0065911D01*
X0048404Y0065819D02*
X0048404Y0073013D01*
X0049081Y0072906D01*
X0049770Y0072682D01*
X0050415Y0072353D01*
X0051001Y0071928D01*
X0051513Y0071416D01*
X0051938Y0070830D01*
X0052267Y0070185D01*
X0052491Y0069496D01*
X0052604Y0068781D01*
X0052604Y0065819D01*
X0048404Y0065819D01*
X0048404Y0064713D02*
X0047604Y0064713D01*
X0047604Y0063514D02*
X0048404Y0063514D01*
X0048404Y0062316D02*
X0047604Y0062316D01*
X0047604Y0061117D02*
X0048404Y0061117D01*
X0048404Y0059919D02*
X0047604Y0059919D01*
X0047604Y0058720D02*
X0048404Y0058720D01*
X0050739Y0058720D02*
X0055480Y0058720D01*
X0055512Y0058689D02*
X0057129Y0058019D01*
X0058879Y0058019D01*
X0060497Y0058689D01*
X0061734Y0059926D01*
X0062404Y0061544D01*
X0062404Y0066001D01*
X0063604Y0067201D01*
X0063604Y0061544D01*
X0064274Y0059926D01*
X0065512Y0058689D01*
X0067129Y0058019D01*
X0068879Y0058019D01*
X0070497Y0058689D01*
X0071734Y0059926D01*
X0072404Y0061544D01*
X0072404Y0069294D01*
X0071846Y0070642D01*
X0071846Y0072464D01*
X0072182Y0072800D01*
X0072727Y0074116D01*
X0072727Y0075541D01*
X0072182Y0076857D01*
X0071174Y0077864D01*
X0069858Y0078409D01*
X0068434Y0078409D01*
X0067117Y0077864D01*
X0066110Y0076857D01*
X0065996Y0076582D01*
X0065883Y0076857D01*
X0064875Y0077864D01*
X0063559Y0078409D01*
X0062134Y0078409D01*
X0060818Y0077864D01*
X0059811Y0076857D01*
X0059266Y0075541D01*
X0059266Y0074116D01*
X0059811Y0072800D01*
X0060147Y0072464D01*
X0060147Y0072294D01*
X0058879Y0072819D01*
X0057129Y0072819D01*
X0055512Y0072149D01*
X0054274Y0070911D01*
X0053604Y0069294D01*
X0053604Y0061544D01*
X0054274Y0059926D01*
X0055512Y0058689D01*
X0054282Y0059919D02*
X0051874Y0059919D01*
X0052418Y0061117D02*
X0053781Y0061117D01*
X0053604Y0062316D02*
X0052604Y0062316D01*
X0052604Y0063514D02*
X0053604Y0063514D01*
X0053604Y0064713D02*
X0052604Y0064713D01*
X0052604Y0065911D02*
X0053604Y0065911D01*
X0053604Y0067110D02*
X0052604Y0067110D01*
X0052604Y0068308D02*
X0053604Y0068308D01*
X0053692Y0069507D02*
X0052487Y0069507D01*
X0052002Y0070705D02*
X0054189Y0070705D01*
X0055267Y0071904D02*
X0051025Y0071904D01*
X0048404Y0071904D02*
X0047604Y0071904D01*
X0047604Y0070705D02*
X0048404Y0070705D01*
X0048404Y0069507D02*
X0047604Y0069507D01*
X0047604Y0068308D02*
X0048404Y0068308D01*
X0048404Y0067110D02*
X0047604Y0067110D01*
X0043521Y0069507D02*
X0042316Y0069507D01*
X0042404Y0069294D02*
X0041734Y0070911D01*
X0040497Y0072149D01*
X0038879Y0072819D01*
X0037129Y0072819D01*
X0035512Y0072149D01*
X0034274Y0070911D01*
X0033604Y0069294D01*
X0033604Y0061544D01*
X0034274Y0059926D01*
X0035344Y0058857D01*
X0035344Y0041220D01*
X0035755Y0040228D01*
X0036514Y0039469D01*
X0041239Y0034744D01*
X0042231Y0034333D01*
X0108514Y0034333D01*
X0108850Y0033997D01*
X0110166Y0033452D01*
X0111591Y0033452D01*
X0112907Y0033997D01*
X0113914Y0035005D01*
X0114459Y0036321D01*
X0114459Y0037745D01*
X0113914Y0039062D01*
X0113578Y0039398D01*
X0113578Y0052779D01*
X0113914Y0053115D01*
X0114459Y0054431D01*
X0114459Y0055856D01*
X0113914Y0057172D01*
X0113578Y0057508D01*
X0113578Y0074104D01*
X0114770Y0075295D01*
X0115529Y0076055D01*
X0115940Y0077047D01*
X0115940Y0086302D01*
X0142491Y0086302D01*
X0141920Y0085730D01*
X0141554Y0084848D01*
X0141554Y0084638D01*
X0139921Y0084638D01*
X0139039Y0084272D01*
X0138364Y0083597D01*
X0137999Y0082715D01*
X0137999Y0081760D01*
X0138364Y0080878D01*
X0138368Y0080874D01*
X0138364Y0080869D01*
X0137999Y0079987D01*
X0137999Y0076803D01*
X0138299Y0076283D01*
X0136794Y0075414D01*
X0135865Y0073805D01*
X0135865Y0072876D01*
X0135865Y0072398D01*
X0135865Y0071817D01*
X0132239Y0071817D01*
X0131933Y0072555D01*
X0131258Y0073230D01*
X0130376Y0073595D01*
X0129421Y0073595D01*
X0128539Y0073230D01*
X0127864Y0072555D01*
X0127499Y0071673D01*
X0127499Y0067162D01*
X0127788Y0066463D01*
X0127499Y0065765D01*
X0127499Y0064454D01*
X0127788Y0063756D01*
X0127499Y0063057D01*
X0127499Y0058547D01*
X0127864Y0057664D01*
X0128539Y0056989D01*
X0128894Y0056843D01*
X0128687Y0056774D01*
X0128555Y0056659D01*
X0128398Y0056581D01*
X0128197Y0056349D01*
X0127966Y0056148D01*
X0127887Y0055992D01*
X0127773Y0055860D01*
X0127676Y0055569D01*
X0127539Y0055294D01*
X0127526Y0055120D01*
X0127471Y0054954D01*
X0127493Y0054648D01*
X0127471Y0054342D01*
X0127526Y0054176D01*
X0127539Y0054001D01*
X0127676Y0053727D01*
X0127773Y0053436D01*
X0127887Y0053304D01*
X0127966Y0053147D01*
X0128197Y0052946D01*
X0128398Y0052715D01*
X0128555Y0052636D01*
X0128687Y0052522D01*
X0128978Y0052425D01*
X0129252Y0052288D01*
X0129427Y0052275D01*
X0135993Y0050087D01*
X0136945Y0050154D01*
X0137799Y0050581D01*
X0138039Y0050858D01*
X0138359Y0050087D01*
X0137999Y0049217D01*
X0137999Y0046925D01*
X0137902Y0047003D01*
X0137658Y0047246D01*
X0137532Y0047298D01*
X0137425Y0047384D01*
X0137094Y0047480D01*
X0136776Y0047612D01*
X0136639Y0047612D01*
X0136508Y0047650D01*
X0136166Y0047612D01*
X0132239Y0047612D01*
X0131933Y0048349D01*
X0131258Y0049024D01*
X0130376Y0049389D01*
X0129421Y0049389D01*
X0128539Y0049024D01*
X0127864Y0048349D01*
X0127499Y0047467D01*
X0127499Y0042956D01*
X0127786Y0042262D01*
X0127563Y0041854D01*
X0127462Y0040904D01*
X0127731Y0039988D01*
X0128264Y0039327D01*
X0127864Y0038927D01*
X0127499Y0038045D01*
X0127499Y0037091D01*
X0127864Y0036208D01*
X0128078Y0035995D01*
X0127864Y0035781D01*
X0127499Y0034899D01*
X0127499Y0033944D01*
X0127864Y0033062D01*
X0128539Y0032387D01*
X0128778Y0032288D01*
X0128539Y0032189D01*
X0127864Y0031514D01*
X0127499Y0030632D01*
X0127499Y0029677D01*
X0127864Y0028795D01*
X0128539Y0028120D01*
X0129421Y0027755D01*
X0136121Y0027755D01*
X0136418Y0027711D01*
X0136594Y0027755D01*
X0136776Y0027755D01*
X0137053Y0027870D01*
X0137344Y0027942D01*
X0137490Y0028051D01*
X0137658Y0028120D01*
X0137870Y0028332D01*
X0138111Y0028511D01*
X0138205Y0028667D01*
X0138333Y0028795D01*
X0138349Y0028832D01*
X0138364Y0028795D01*
X0139039Y0028120D01*
X0139921Y0027755D01*
X0147276Y0027755D01*
X0148158Y0028120D01*
X0148833Y0028795D01*
X0149199Y0029677D01*
X0149199Y0033052D01*
X0148079Y0034991D01*
X0146821Y0035718D01*
X0147065Y0036309D01*
X0147065Y0037731D01*
X0147065Y0039137D01*
X0146684Y0039798D01*
X0147276Y0039798D01*
X0148158Y0040164D01*
X0148833Y0040839D01*
X0149199Y0041721D01*
X0149199Y0042676D01*
X0148833Y0043558D01*
X0148158Y0044233D01*
X0147276Y0044598D01*
X0146858Y0044598D01*
X0146700Y0044980D01*
X0146451Y0045229D01*
X0147065Y0046293D01*
X0147065Y0048342D01*
X0146297Y0049672D01*
X0146700Y0050075D01*
X0147065Y0050957D01*
X0147065Y0054141D01*
X0146762Y0054666D01*
X0147276Y0054666D01*
X0148158Y0055031D01*
X0148833Y0055706D01*
X0149199Y0056588D01*
X0149199Y0057543D01*
X0148833Y0058425D01*
X0148158Y0059101D01*
X0147276Y0059466D01*
X0146380Y0059466D01*
X0147065Y0060653D01*
X0147065Y0062701D01*
X0146200Y0064199D01*
X0147065Y0065697D01*
X0147065Y0068881D01*
X0146700Y0069763D01*
X0146393Y0070071D01*
X0147065Y0071236D01*
X0147065Y0074420D01*
X0146700Y0075302D01*
X0146287Y0075715D01*
X0147065Y0077064D01*
X0147065Y0079112D01*
X0146285Y0080463D01*
X0146700Y0080878D01*
X0147065Y0081760D01*
X0147065Y0084848D01*
X0146700Y0085730D01*
X0146129Y0086302D01*
X0153935Y0086302D01*
X0154927Y0086713D01*
X0160411Y0092197D01*
X0160822Y0093189D01*
X0160822Y0108291D01*
X0161158Y0108627D01*
X0161703Y0109943D01*
X0161703Y0111367D01*
X0161158Y0112684D01*
X0160151Y0113691D01*
X0158835Y0114236D01*
X0157410Y0114236D01*
X0156094Y0113691D01*
X0155704Y0113301D01*
X0155704Y0113474D01*
X0161592Y0119362D01*
X0162003Y0120354D01*
X0162003Y0123725D01*
X0162745Y0123417D01*
X0164129Y0123417D01*
X0165407Y0123947D01*
X0166386Y0124925D01*
X0166915Y0126203D01*
X0166915Y0127587D01*
X0166386Y0128865D01*
X0165407Y0129844D01*
X0164129Y0130373D01*
X0162745Y0130373D01*
X0162003Y0130066D01*
X0162003Y0138751D01*
X0161592Y0139744D01*
X0160833Y0140503D01*
X0158077Y0143259D01*
X0157085Y0143670D01*
X0113636Y0143670D01*
X0113300Y0144006D01*
X0111984Y0144551D01*
X0110560Y0144551D01*
X0109243Y0144006D01*
X0108236Y0142999D01*
X0107691Y0141682D01*
X0107691Y0140258D01*
X0108236Y0138942D01*
X0109243Y0137934D01*
X0110560Y0137389D01*
X0111984Y0137389D01*
X0113300Y0137934D01*
X0113636Y0138270D01*
X0155429Y0138270D01*
X0156603Y0137096D01*
X0156603Y0122010D01*
X0150715Y0116122D01*
X0150304Y0115129D01*
X0150304Y0113020D01*
X0149968Y0112684D01*
X0149423Y0111367D01*
X0149423Y0109943D01*
X0149968Y0108627D01*
X0150976Y0107619D01*
X0152292Y0107074D01*
X0153717Y0107074D01*
X0155033Y0107619D01*
X0155422Y0108009D01*
X0155422Y0094844D01*
X0152280Y0091702D01*
X0115605Y0091702D01*
X0115269Y0092037D01*
X0113953Y0092583D01*
X0112528Y0092583D01*
X0111212Y0092037D01*
X0110876Y0091702D01*
X0080838Y0091702D01*
X0080451Y0092088D01*
X0080451Y0099850D01*
X0084892Y0099850D01*
X0085228Y0099514D01*
X0086544Y0098969D01*
X0087401Y0098969D01*
X0087388Y0098939D01*
X0087388Y0097514D01*
X0087934Y0096198D01*
X0088941Y0095191D01*
X0090257Y0094646D01*
X0091682Y0094646D01*
X0092998Y0095191D01*
X0093334Y0095527D01*
X0113947Y0095527D01*
X0114940Y0095938D01*
X0118910Y0099908D01*
X0119322Y0100901D01*
X0119322Y0107325D01*
X0119657Y0107661D01*
X0120203Y0108978D01*
X0120203Y0110402D01*
X0119657Y0111718D01*
X0118650Y0112726D01*
X0117334Y0113271D01*
X0115909Y0113271D01*
X0115900Y0113267D01*
X0115489Y0114258D01*
X0115153Y0114594D01*
X0115153Y0124104D01*
X0117508Y0126459D01*
X0150640Y0126459D01*
X0150976Y0126123D01*
X0152292Y0125578D01*
X0153717Y0125578D01*
X0155033Y0126123D01*
X0156040Y0127131D01*
X0156585Y0128447D01*
X0156585Y0129871D01*
X0156040Y0131188D01*
X0155033Y0132195D01*
X0153717Y0132740D01*
X0152292Y0132740D01*
X0150976Y0132195D01*
X0150640Y0131859D01*
X0115853Y0131859D01*
X0114861Y0131448D01*
X0114101Y0130688D01*
X0110164Y0126751D01*
X0109753Y0125759D01*
X0109753Y0114594D01*
X0109641Y0114483D01*
X0109641Y0132846D01*
X0109230Y0133838D01*
X0108471Y0134598D01*
X0102621Y0140447D01*
X0101629Y0140858D01*
X0079970Y0140858D01*
X0078978Y0140447D01*
X0078218Y0139688D01*
X0077139Y0138608D01*
X0076664Y0138608D01*
X0075347Y0138063D01*
X0074340Y0137055D01*
X0073795Y0135739D01*
X0073795Y0134314D01*
X0074340Y0132998D01*
X0075347Y0131991D01*
X0076664Y0131446D01*
X0078088Y0131446D01*
X0079231Y0131919D01*
X0078674Y0131547D01*
X0078175Y0131048D01*
X0077783Y0130462D01*
X0077513Y0129810D01*
X0077376Y0129118D01*
X0077376Y0128765D01*
X0080957Y0128765D01*
X0087650Y0135458D01*
X0099855Y0135458D01*
X0103004Y0132309D01*
X0103004Y0130340D01*
X0103004Y0132427D01*
X0103004Y0130340D01*
X0103004Y0130340D01*
X0103004Y0130631D02*
X0103004Y0130631D01*
X0103004Y0131829D02*
X0103004Y0131829D01*
X0103004Y0132427D02*
X0103004Y0132427D01*
X0101205Y0134226D02*
X0096450Y0134226D01*
X0094598Y0134226D02*
X0080920Y0134226D01*
X0080424Y0133028D02*
X0090070Y0133028D01*
X0088864Y0131829D02*
X0082817Y0131829D01*
X0082653Y0131939D02*
X0082002Y0132209D01*
X0081310Y0132346D01*
X0080957Y0132346D01*
X0080957Y0128765D01*
X0080901Y0128709D01*
X0080957Y0128765D02*
X0080957Y0128765D01*
X0084538Y0128765D01*
X0084538Y0129118D01*
X0084400Y0129810D01*
X0084130Y0130462D01*
X0083739Y0131048D01*
X0083240Y0131547D01*
X0082653Y0131939D01*
X0080957Y0131829D02*
X0080957Y0131829D01*
X0080957Y0130631D02*
X0080957Y0130631D01*
X0080957Y0129432D02*
X0080957Y0129432D01*
X0080957Y0128234D02*
X0080957Y0128234D01*
X0080957Y0127035D02*
X0080957Y0127035D01*
X0080957Y0125837D02*
X0080957Y0125837D01*
X0078894Y0125837D02*
X0042466Y0125837D01*
X0043327Y0124638D02*
X0084556Y0124638D01*
X0084556Y0123440D02*
X0043499Y0123440D01*
X0043499Y0122241D02*
X0084556Y0122241D01*
X0084556Y0121043D02*
X0074321Y0121043D01*
X0077555Y0119844D02*
X0084556Y0119844D01*
X0084556Y0118646D02*
X0078387Y0118646D01*
X0079558Y0117447D02*
X0084556Y0117447D01*
X0084556Y0116249D02*
X0080337Y0116249D01*
X0080451Y0115050D02*
X0084556Y0115050D01*
X0084556Y0113852D02*
X0080451Y0113852D01*
X0080451Y0112653D02*
X0084556Y0112653D01*
X0084556Y0111455D02*
X0080451Y0111455D01*
X0080451Y0110256D02*
X0084556Y0110256D01*
X0084556Y0109058D02*
X0080451Y0109058D01*
X0080451Y0107859D02*
X0084556Y0107859D01*
X0084556Y0106661D02*
X0080451Y0106661D01*
X0080451Y0105462D02*
X0084556Y0105462D01*
X0087256Y0102550D02*
X0087256Y0126403D01*
X0091587Y0130734D01*
X0095524Y0130734D01*
X0098088Y0128234D02*
X0100105Y0128234D01*
X0099534Y0129432D02*
X0098861Y0129432D01*
X0099105Y0130631D02*
X0099423Y0130631D01*
X0099745Y0131829D02*
X0098946Y0131829D01*
X0098294Y0133028D02*
X0100627Y0133028D01*
X0100007Y0135425D02*
X0081592Y0135425D01*
X0080507Y0138158D02*
X0101092Y0138158D01*
X0106941Y0132309D01*
X0106941Y0109080D01*
X0108910Y0107112D01*
X0112453Y0107112D01*
X0110237Y0104264D02*
X0090422Y0104264D01*
X0090837Y0103065D02*
X0113922Y0103065D01*
X0113232Y0101867D02*
X0090837Y0101867D01*
X0087256Y0102550D02*
X0077983Y0102550D01*
X0077751Y0102781D01*
X0077751Y0115435D01*
X0075839Y0117348D01*
X0075839Y0117742D01*
X0070524Y0117742D01*
X0070327Y0117545D01*
X0062453Y0117545D01*
X0054579Y0117545D01*
X0055798Y0118764D01*
X0054579Y0117545D02*
X0046705Y0117545D01*
X0040996Y0117545D01*
X0040799Y0117742D01*
X0040799Y0123685D01*
X0035325Y0129159D01*
X0035288Y0129197D01*
X0032059Y0130631D02*
X0030507Y0130631D01*
X0030507Y0131072D02*
X0030507Y0127246D01*
X0035681Y0122072D01*
X0035681Y0093726D01*
X0032138Y0090183D01*
X0027807Y0090183D01*
X0027807Y0090183D01*
X0024226Y0090183D01*
X0024226Y0090535D01*
X0024364Y0091227D01*
X0024634Y0091879D01*
X0025026Y0092465D01*
X0025525Y0092964D01*
X0026111Y0093356D01*
X0026763Y0093626D01*
X0027455Y0093764D01*
X0027807Y0093764D01*
X0027807Y0090183D01*
X0027807Y0090183D01*
X0027807Y0093764D01*
X0028160Y0093764D01*
X0028852Y0093626D01*
X0029504Y0093356D01*
X0030090Y0092964D01*
X0030589Y0092465D01*
X0030981Y0091879D01*
X0031251Y0091227D01*
X0031388Y0090535D01*
X0031388Y0090183D01*
X0027807Y0090183D01*
X0024226Y0090183D01*
X0024226Y0089830D01*
X0024364Y0089138D01*
X0024634Y0088486D01*
X0025026Y0087900D01*
X0025525Y0087401D01*
X0026111Y0087009D01*
X0026763Y0086739D01*
X0027455Y0086602D01*
X0027807Y0086602D01*
X0027807Y0090183D01*
X0027807Y0090183D01*
X0027807Y0090183D01*
X0027807Y0086602D01*
X0028160Y0086602D01*
X0028852Y0086739D01*
X0029504Y0087009D01*
X0030090Y0087401D01*
X0030589Y0087900D01*
X0030981Y0088486D01*
X0031251Y0089138D01*
X0031388Y0089830D01*
X0031388Y0090183D01*
X0027807Y0090183D01*
X0027807Y0089881D02*
X0027807Y0089881D01*
X0027807Y0088683D02*
X0027807Y0088683D01*
X0027807Y0087484D02*
X0027807Y0087484D01*
X0030174Y0087484D02*
X0059753Y0087484D01*
X0059753Y0088683D02*
X0031062Y0088683D01*
X0031388Y0089881D02*
X0059753Y0089881D01*
X0059753Y0091080D02*
X0058834Y0091080D01*
X0058932Y0092278D02*
X0059753Y0092278D01*
X0059753Y0093477D02*
X0058932Y0093477D01*
X0058932Y0094675D02*
X0059753Y0094675D01*
X0059753Y0095874D02*
X0058932Y0095874D01*
X0058932Y0097073D02*
X0059753Y0097073D01*
X0059753Y0098271D02*
X0058545Y0098271D01*
X0061075Y0101797D02*
X0054579Y0101797D01*
X0055179Y0105906D02*
X0057742Y0105906D01*
X0058149Y0106015D01*
X0058514Y0106225D01*
X0058516Y0106227D01*
X0058518Y0106225D01*
X0058883Y0106015D01*
X0059290Y0105906D01*
X0061853Y0105906D01*
X0061853Y0109465D01*
X0057900Y0109465D01*
X0055179Y0109465D01*
X0055179Y0110665D01*
X0061853Y0110665D01*
X0061853Y0109465D01*
X0063053Y0109465D01*
X0063053Y0110665D01*
X0067006Y0110665D01*
X0069727Y0110665D01*
X0069727Y0109465D01*
X0063053Y0109465D01*
X0063053Y0105906D01*
X0065616Y0105906D01*
X0066023Y0106015D01*
X0066388Y0106225D01*
X0066390Y0106227D01*
X0066392Y0106225D01*
X0066757Y0106015D01*
X0067070Y0105931D01*
X0066757Y0105847D01*
X0066392Y0105636D01*
X0066094Y0105338D01*
X0065883Y0104973D01*
X0065774Y0104567D01*
X0065774Y0102397D01*
X0069727Y0102397D01*
X0069727Y0105906D01*
X0069727Y0109465D01*
X0070927Y0109465D01*
X0070927Y0110665D01*
X0074880Y0110665D01*
X0074880Y0112834D01*
X0074771Y0113241D01*
X0074560Y0113606D01*
X0074262Y0113904D01*
X0074209Y0113935D01*
X0074680Y0114406D01*
X0074680Y0114689D01*
X0075051Y0114317D01*
X0075051Y0090433D01*
X0075462Y0089441D01*
X0076222Y0088681D01*
X0077431Y0087472D01*
X0078191Y0086713D01*
X0079183Y0086302D01*
X0110540Y0086302D01*
X0110540Y0078703D01*
X0108589Y0076751D01*
X0108178Y0075759D01*
X0108178Y0057508D01*
X0107842Y0057172D01*
X0107297Y0055856D01*
X0107297Y0054431D01*
X0107842Y0053115D01*
X0108178Y0052779D01*
X0108178Y0039733D01*
X0043886Y0039733D01*
X0040744Y0042876D01*
X0040744Y0058936D01*
X0041734Y0059926D01*
X0042404Y0061544D01*
X0042404Y0069294D01*
X0042404Y0068308D02*
X0043404Y0068308D01*
X0043404Y0067110D02*
X0042404Y0067110D01*
X0042404Y0065911D02*
X0043404Y0065911D01*
X0043404Y0064713D02*
X0042404Y0064713D01*
X0042404Y0063514D02*
X0043404Y0063514D01*
X0043404Y0062316D02*
X0042404Y0062316D01*
X0042228Y0061117D02*
X0043590Y0061117D01*
X0044135Y0059919D02*
X0041726Y0059919D01*
X0040744Y0058720D02*
X0045269Y0058720D01*
X0040744Y0057522D02*
X0108178Y0057522D01*
X0108178Y0058720D02*
X0080528Y0058720D01*
X0080497Y0058689D02*
X0081734Y0059926D01*
X0082404Y0061544D01*
X0082404Y0069294D01*
X0081734Y0070911D01*
X0080497Y0072149D01*
X0078879Y0072819D01*
X0077129Y0072819D01*
X0075512Y0072149D01*
X0074274Y0070911D01*
X0073604Y0069294D01*
X0073604Y0061544D01*
X0074274Y0059926D01*
X0075512Y0058689D01*
X0077129Y0058019D01*
X0078879Y0058019D01*
X0080497Y0058689D01*
X0081726Y0059919D02*
X0108178Y0059919D01*
X0108178Y0061117D02*
X0082228Y0061117D01*
X0082404Y0062316D02*
X0108178Y0062316D01*
X0108178Y0063514D02*
X0082404Y0063514D01*
X0082404Y0064713D02*
X0108178Y0064713D01*
X0108178Y0065911D02*
X0082404Y0065911D01*
X0082404Y0067110D02*
X0108178Y0067110D01*
X0108178Y0068308D02*
X0082404Y0068308D01*
X0082316Y0069507D02*
X0108178Y0069507D01*
X0108178Y0070705D02*
X0081820Y0070705D01*
X0080742Y0071904D02*
X0108178Y0071904D01*
X0108178Y0073102D02*
X0072307Y0073102D01*
X0072727Y0074301D02*
X0108178Y0074301D01*
X0108178Y0075499D02*
X0072727Y0075499D01*
X0072248Y0076698D02*
X0108567Y0076698D01*
X0109734Y0077896D02*
X0071097Y0077896D01*
X0071096Y0081109D02*
X0047886Y0081109D01*
X0038301Y0081109D02*
X0060554Y0081109D01*
X0061546Y0081520D01*
X0064742Y0084716D01*
X0065153Y0085709D01*
X0065153Y0091617D01*
X0065974Y0091617D01*
X0065974Y0091178D01*
X0066794Y0090357D01*
X0073860Y0090357D01*
X0074680Y0091178D01*
X0074680Y0097455D01*
X0074209Y0097927D01*
X0074262Y0097957D01*
X0074560Y0098255D01*
X0074771Y0098620D01*
X0074880Y0099027D01*
X0074880Y0101197D01*
X0070927Y0101197D01*
X0070927Y0102397D01*
X0069727Y0102397D01*
X0069727Y0101197D01*
X0065774Y0101197D01*
X0065774Y0099027D01*
X0065883Y0098620D01*
X0066094Y0098255D01*
X0066392Y0097957D01*
X0066445Y0097927D01*
X0065974Y0097455D01*
X0065974Y0097017D01*
X0065153Y0097017D01*
X0065153Y0100956D01*
X0064742Y0101948D01*
X0063982Y0102708D01*
X0062604Y0104086D01*
X0061612Y0104497D01*
X0058932Y0104497D01*
X0058932Y0104936D01*
X0058112Y0105756D01*
X0051046Y0105756D01*
X0050783Y0105493D01*
X0050640Y0105636D01*
X0050275Y0105847D01*
X0049962Y0105931D01*
X0050275Y0106015D01*
X0050640Y0106225D01*
X0050642Y0106227D01*
X0050644Y0106225D01*
X0051009Y0106015D01*
X0051416Y0105906D01*
X0053979Y0105906D01*
X0053979Y0109465D01*
X0047305Y0109465D01*
X0047305Y0110665D01*
X0051258Y0110665D01*
X0053979Y0110665D01*
X0053979Y0109465D01*
X0055179Y0109465D01*
X0055179Y0105906D01*
X0055179Y0106661D02*
X0053979Y0106661D01*
X0053979Y0107859D02*
X0055179Y0107859D01*
X0055179Y0109058D02*
X0053979Y0109058D01*
X0054579Y0110065D02*
X0062453Y0110065D01*
X0070327Y0110065D01*
X0073673Y0110065D01*
X0075051Y0108687D01*
X0075051Y0085065D01*
X0071096Y0081109D01*
X0067195Y0077896D02*
X0064798Y0077896D01*
X0065948Y0076698D02*
X0066044Y0076698D01*
X0069146Y0074828D02*
X0069146Y0066561D01*
X0068004Y0065419D01*
X0063604Y0065911D02*
X0062404Y0065911D01*
X0062404Y0064713D02*
X0063604Y0064713D01*
X0063604Y0063514D02*
X0062404Y0063514D01*
X0062404Y0062316D02*
X0063604Y0062316D01*
X0063781Y0061117D02*
X0062228Y0061117D01*
X0061726Y0059919D02*
X0064282Y0059919D01*
X0065480Y0058720D02*
X0060528Y0058720D01*
X0058004Y0065419D02*
X0062847Y0070261D01*
X0062847Y0074828D01*
X0059686Y0073102D02*
X0031362Y0073102D01*
X0031237Y0072800D02*
X0031782Y0074116D01*
X0031782Y0074591D01*
X0038301Y0081109D01*
X0037484Y0080293D02*
X0110540Y0080293D01*
X0110540Y0079095D02*
X0036286Y0079095D01*
X0035087Y0077896D02*
X0060896Y0077896D01*
X0059745Y0076698D02*
X0033889Y0076698D01*
X0032690Y0075499D02*
X0059266Y0075499D01*
X0059266Y0074301D02*
X0031782Y0074301D01*
X0031237Y0072800D02*
X0030704Y0072267D01*
X0030704Y0071941D01*
X0031734Y0070911D01*
X0032404Y0069294D01*
X0032404Y0061544D01*
X0031734Y0059926D01*
X0030497Y0058689D01*
X0028879Y0058019D01*
X0027129Y0058019D01*
X0025512Y0058689D01*
X0024274Y0059926D01*
X0023814Y0061036D01*
X0023814Y0030277D01*
X0028138Y0025954D01*
X0094486Y0025954D01*
X0095478Y0025542D01*
X0096238Y0024783D01*
X0096328Y0024566D01*
X0096570Y0024566D01*
X0097776Y0024067D01*
X0097886Y0023957D01*
X0097996Y0024067D01*
X0099202Y0024566D01*
X0100507Y0024566D01*
X0101713Y0024067D01*
X0101823Y0023957D01*
X0101933Y0024067D01*
X0103139Y0024566D01*
X0104444Y0024566D01*
X0105650Y0024067D01*
X0105760Y0023957D01*
X0105870Y0024067D01*
X0107076Y0024566D01*
X0108381Y0024566D01*
X0109587Y0024067D01*
X0109697Y0023957D01*
X0109807Y0024067D01*
X0111013Y0024566D01*
X0111255Y0024566D01*
X0111345Y0024783D01*
X0112105Y0025542D01*
X0113097Y0025954D01*
X0153541Y0025954D01*
X0154534Y0025542D01*
X0155293Y0024783D01*
X0155383Y0024566D01*
X0155625Y0024566D01*
X0156831Y0024067D01*
X0156941Y0023957D01*
X0157051Y0024067D01*
X0158257Y0024566D01*
X0159562Y0024566D01*
X0160768Y0024067D01*
X0160878Y0023957D01*
X0160988Y0024067D01*
X0162194Y0024566D01*
X0163499Y0024566D01*
X0164705Y0024067D01*
X0164815Y0023957D01*
X0164925Y0024067D01*
X0166131Y0024566D01*
X0167436Y0024566D01*
X0168642Y0024067D01*
X0168752Y0023957D01*
X0168862Y0024067D01*
X0170068Y0024566D01*
X0170310Y0024566D01*
X0170400Y0024783D01*
X0171160Y0025542D01*
X0170779Y0025162D02*
X0154914Y0025162D01*
X0156935Y0023963D02*
X0156948Y0023963D01*
X0160872Y0023963D02*
X0160885Y0023963D01*
X0164809Y0023963D02*
X0164822Y0023963D01*
X0168746Y0023963D02*
X0168759Y0023963D01*
X0173176Y0027559D02*
X0026533Y0027559D01*
X0025334Y0028757D02*
X0127902Y0028757D01*
X0127499Y0029956D02*
X0024136Y0029956D01*
X0023814Y0031154D02*
X0127715Y0031154D01*
X0128621Y0032353D02*
X0023814Y0032353D01*
X0023814Y0033551D02*
X0109926Y0033551D01*
X0111831Y0033551D02*
X0127661Y0033551D01*
X0127499Y0034750D02*
X0113659Y0034750D01*
X0114305Y0035948D02*
X0128032Y0035948D01*
X0127499Y0037147D02*
X0114459Y0037147D01*
X0114211Y0038345D02*
X0127623Y0038345D01*
X0128089Y0039544D02*
X0113578Y0039544D01*
X0113578Y0040742D02*
X0127509Y0040742D01*
X0127611Y0041941D02*
X0113578Y0041941D01*
X0113578Y0043139D02*
X0127499Y0043139D01*
X0127499Y0044338D02*
X0113578Y0044338D01*
X0113578Y0045537D02*
X0127499Y0045537D01*
X0127499Y0046735D02*
X0113578Y0046735D01*
X0113578Y0047934D02*
X0127692Y0047934D01*
X0128800Y0049132D02*
X0113578Y0049132D01*
X0113578Y0050331D02*
X0135261Y0050331D01*
X0137298Y0050331D02*
X0138258Y0050331D01*
X0137999Y0049132D02*
X0130997Y0049132D01*
X0132105Y0047934D02*
X0137999Y0047934D01*
X0131665Y0051529D02*
X0113578Y0051529D01*
X0113578Y0052728D02*
X0128387Y0052728D01*
X0127576Y0053926D02*
X0114250Y0053926D01*
X0114459Y0055125D02*
X0127527Y0055125D01*
X0128167Y0056323D02*
X0114266Y0056323D01*
X0113578Y0057522D02*
X0128007Y0057522D01*
X0127499Y0058720D02*
X0113578Y0058720D01*
X0113578Y0059919D02*
X0127499Y0059919D01*
X0127499Y0061117D02*
X0113578Y0061117D01*
X0113578Y0062316D02*
X0127499Y0062316D01*
X0127688Y0063514D02*
X0113578Y0063514D01*
X0113578Y0064713D02*
X0127499Y0064713D01*
X0127559Y0065911D02*
X0113578Y0065911D01*
X0113578Y0067110D02*
X0127520Y0067110D01*
X0127499Y0068308D02*
X0113578Y0068308D01*
X0113578Y0069507D02*
X0127499Y0069507D01*
X0127499Y0070705D02*
X0113578Y0070705D01*
X0113578Y0071904D02*
X0127594Y0071904D01*
X0128412Y0073102D02*
X0113578Y0073102D01*
X0113775Y0074301D02*
X0136152Y0074301D01*
X0135865Y0073805D02*
X0135865Y0073805D01*
X0135865Y0073102D02*
X0131386Y0073102D01*
X0132203Y0071904D02*
X0135865Y0071904D01*
X0135865Y0072398D02*
X0135865Y0072398D01*
X0136794Y0075414D02*
X0136794Y0075414D01*
X0136943Y0075499D02*
X0114974Y0075499D01*
X0115796Y0076698D02*
X0138060Y0076698D01*
X0137999Y0077896D02*
X0115940Y0077896D01*
X0115940Y0079095D02*
X0137999Y0079095D01*
X0138125Y0080293D02*
X0115940Y0080293D01*
X0115940Y0081492D02*
X0138110Y0081492D01*
X0137999Y0082690D02*
X0115940Y0082690D01*
X0115940Y0083889D02*
X0138656Y0083889D01*
X0141653Y0085087D02*
X0115940Y0085087D01*
X0115940Y0086286D02*
X0142475Y0086286D01*
X0146144Y0086286D02*
X0175895Y0086286D01*
X0175895Y0087484D02*
X0155699Y0087484D01*
X0156898Y0088683D02*
X0175895Y0088683D01*
X0175895Y0089881D02*
X0158096Y0089881D01*
X0159295Y0091080D02*
X0175895Y0091080D01*
X0175895Y0092278D02*
X0160445Y0092278D01*
X0160822Y0093477D02*
X0175895Y0093477D01*
X0175895Y0094675D02*
X0160822Y0094675D01*
X0160822Y0095874D02*
X0175895Y0095874D01*
X0175895Y0097073D02*
X0160822Y0097073D01*
X0160822Y0098271D02*
X0175895Y0098271D01*
X0175895Y0099470D02*
X0160822Y0099470D01*
X0160822Y0100668D02*
X0175895Y0100668D01*
X0175895Y0101867D02*
X0160822Y0101867D01*
X0160822Y0103065D02*
X0175895Y0103065D01*
X0175895Y0104264D02*
X0160822Y0104264D01*
X0160822Y0105462D02*
X0175895Y0105462D01*
X0175895Y0106661D02*
X0160822Y0106661D01*
X0160822Y0107859D02*
X0175895Y0107859D01*
X0175895Y0109058D02*
X0161337Y0109058D01*
X0161703Y0110256D02*
X0175895Y0110256D01*
X0175895Y0111455D02*
X0161667Y0111455D01*
X0161171Y0112653D02*
X0175895Y0112653D01*
X0175895Y0113852D02*
X0159763Y0113852D01*
X0158479Y0116249D02*
X0175895Y0116249D01*
X0175895Y0117447D02*
X0159678Y0117447D01*
X0160876Y0118646D02*
X0175895Y0118646D01*
X0175895Y0119844D02*
X0161792Y0119844D01*
X0162003Y0121043D02*
X0175895Y0121043D01*
X0175895Y0122241D02*
X0162003Y0122241D01*
X0162003Y0123440D02*
X0162691Y0123440D01*
X0164183Y0123440D02*
X0175895Y0123440D01*
X0175895Y0124638D02*
X0166099Y0124638D01*
X0166763Y0125837D02*
X0175895Y0125837D01*
X0175895Y0127035D02*
X0166915Y0127035D01*
X0166647Y0128234D02*
X0175895Y0128234D01*
X0175895Y0129432D02*
X0165819Y0129432D01*
X0162003Y0130631D02*
X0175895Y0130631D01*
X0175895Y0131829D02*
X0162003Y0131829D01*
X0162003Y0133028D02*
X0175895Y0133028D01*
X0175895Y0134226D02*
X0162003Y0134226D01*
X0162003Y0135425D02*
X0175895Y0135425D01*
X0175895Y0136623D02*
X0162003Y0136623D01*
X0162003Y0137822D02*
X0175895Y0137822D01*
X0175895Y0139020D02*
X0161892Y0139020D01*
X0162745Y0139756D02*
X0161467Y0140285D01*
X0160489Y0141264D01*
X0159959Y0142542D01*
X0159959Y0143926D01*
X0160489Y0145204D01*
X0161467Y0146182D01*
X0162745Y0146712D01*
X0164129Y0146712D01*
X0165407Y0146182D01*
X0166386Y0145204D01*
X0166915Y0143926D01*
X0166915Y0142542D01*
X0166386Y0141264D01*
X0165407Y0140285D01*
X0164129Y0139756D01*
X0162745Y0139756D01*
X0161628Y0140219D02*
X0161117Y0140219D01*
X0160425Y0141417D02*
X0159919Y0141417D01*
X0159959Y0142616D02*
X0158720Y0142616D01*
X0159959Y0143814D02*
X0113492Y0143814D01*
X0111272Y0140970D02*
X0156548Y0140970D01*
X0159303Y0138214D01*
X0159303Y0120891D01*
X0153004Y0114592D01*
X0153004Y0110655D01*
X0149790Y0109058D02*
X0120203Y0109058D01*
X0120203Y0110256D02*
X0149423Y0110256D01*
X0149459Y0111455D02*
X0119767Y0111455D01*
X0118723Y0112653D02*
X0149956Y0112653D01*
X0150304Y0113852D02*
X0115657Y0113852D01*
X0115153Y0115050D02*
X0150304Y0115050D01*
X0150842Y0116249D02*
X0115153Y0116249D01*
X0115153Y0117447D02*
X0152041Y0117447D01*
X0153239Y0118646D02*
X0115153Y0118646D01*
X0115153Y0119844D02*
X0154438Y0119844D01*
X0155636Y0121043D02*
X0115153Y0121043D01*
X0115153Y0122241D02*
X0156603Y0122241D01*
X0156603Y0123440D02*
X0115153Y0123440D01*
X0115688Y0124638D02*
X0156603Y0124638D01*
X0156603Y0125837D02*
X0154341Y0125837D01*
X0155945Y0127035D02*
X0156603Y0127035D01*
X0156603Y0128234D02*
X0156497Y0128234D01*
X0156585Y0129432D02*
X0156603Y0129432D01*
X0156603Y0130631D02*
X0156271Y0130631D01*
X0156603Y0131829D02*
X0155398Y0131829D01*
X0156603Y0133028D02*
X0109566Y0133028D01*
X0109641Y0131829D02*
X0115781Y0131829D01*
X0114043Y0130631D02*
X0109641Y0130631D01*
X0109641Y0129432D02*
X0112845Y0129432D01*
X0111646Y0128234D02*
X0109641Y0128234D01*
X0109641Y0127035D02*
X0110448Y0127035D01*
X0109785Y0125837D02*
X0109641Y0125837D01*
X0109641Y0124638D02*
X0109753Y0124638D01*
X0109753Y0123440D02*
X0109641Y0123440D01*
X0109641Y0122241D02*
X0109753Y0122241D01*
X0109753Y0121043D02*
X0109641Y0121043D01*
X0109641Y0119844D02*
X0109753Y0119844D01*
X0109753Y0118646D02*
X0109641Y0118646D01*
X0109641Y0117447D02*
X0109753Y0117447D01*
X0109753Y0116249D02*
X0109641Y0116249D01*
X0109641Y0115050D02*
X0109753Y0115050D01*
X0112453Y0112230D02*
X0112453Y0125222D01*
X0116390Y0129159D01*
X0153004Y0129159D01*
X0151667Y0125837D02*
X0116886Y0125837D01*
X0108842Y0134226D02*
X0156603Y0134226D01*
X0156603Y0135425D02*
X0107643Y0135425D01*
X0106445Y0136623D02*
X0156603Y0136623D01*
X0155877Y0137822D02*
X0113029Y0137822D01*
X0109514Y0137822D02*
X0105246Y0137822D01*
X0104048Y0139020D02*
X0108203Y0139020D01*
X0107707Y0140219D02*
X0102849Y0140219D01*
X0107691Y0141417D02*
X0056541Y0141417D01*
X0056541Y0140219D02*
X0078750Y0140219D01*
X0077551Y0139020D02*
X0056541Y0139020D01*
X0056541Y0137822D02*
X0075107Y0137822D01*
X0074161Y0136623D02*
X0056247Y0136623D01*
X0056130Y0136340D02*
X0056541Y0137333D01*
X0056541Y0143379D01*
X0056877Y0143715D01*
X0057422Y0145031D01*
X0057422Y0146456D01*
X0056877Y0147772D01*
X0055869Y0148780D01*
X0054553Y0149325D01*
X0053128Y0149325D01*
X0051812Y0148780D01*
X0050805Y0147772D01*
X0050260Y0146456D01*
X0050260Y0145031D01*
X0050805Y0143715D01*
X0051141Y0143379D01*
X0051141Y0139339D01*
X0030814Y0139339D01*
X0029821Y0138928D01*
X0029062Y0138169D01*
X0025518Y0134625D01*
X0025107Y0133633D01*
X0025107Y0123110D01*
X0025518Y0122118D01*
X0026195Y0121441D01*
X0026195Y0120966D01*
X0026740Y0119650D01*
X0027747Y0118643D01*
X0029064Y0118098D01*
X0030488Y0118098D01*
X0031804Y0118643D01*
X0032812Y0119650D01*
X0033357Y0120966D01*
X0033357Y0122391D01*
X0032812Y0123707D01*
X0031804Y0124715D01*
X0030507Y0125252D01*
X0030507Y0131978D01*
X0032469Y0133939D01*
X0053148Y0133939D01*
X0054140Y0134350D01*
X0056130Y0136340D01*
X0055214Y0135425D02*
X0073795Y0135425D01*
X0073831Y0134226D02*
X0053840Y0134226D01*
X0052610Y0136639D02*
X0053841Y0137870D01*
X0053841Y0145744D01*
X0057027Y0147410D02*
X0155404Y0147410D01*
X0156547Y0147410D02*
X0156548Y0147410D01*
X0157691Y0147410D02*
X0175895Y0147410D01*
X0175895Y0148608D02*
X0159382Y0148608D01*
X0159999Y0149807D02*
X0175895Y0149807D01*
X0175895Y0151006D02*
X0160129Y0151006D01*
X0159847Y0152204D02*
X0175895Y0152204D01*
X0175895Y0153403D02*
X0159022Y0153403D01*
X0159563Y0155800D02*
X0162193Y0155800D01*
X0163500Y0155800D02*
X0166130Y0155800D01*
X0167437Y0155800D02*
X0170067Y0155800D01*
X0171695Y0154601D02*
X0153998Y0154601D01*
X0154073Y0153403D02*
X0057763Y0153403D01*
X0057766Y0153031D02*
X0054185Y0153031D01*
X0050604Y0153031D01*
X0050604Y0152678D01*
X0050742Y0151986D01*
X0051012Y0151334D01*
X0051404Y0150748D01*
X0051902Y0150249D01*
X0052489Y0149857D01*
X0053141Y0149587D01*
X0053833Y0149450D01*
X0054185Y0149450D01*
X0054185Y0153031D01*
X0059303Y0153031D01*
X0057766Y0153031D02*
X0057766Y0152678D01*
X0057629Y0151986D01*
X0057359Y0151334D01*
X0056967Y0150748D01*
X0056468Y0150249D01*
X0055882Y0149857D01*
X0055230Y0149587D01*
X0054538Y0149450D01*
X0054185Y0149450D01*
X0054185Y0153031D01*
X0054185Y0153031D01*
X0054185Y0153031D01*
X0054185Y0152204D02*
X0054185Y0152204D01*
X0054185Y0151006D02*
X0054185Y0151006D01*
X0054185Y0149807D02*
X0054185Y0149807D01*
X0052610Y0149807D02*
X0023814Y0149807D01*
X0023814Y0148608D02*
X0051641Y0148608D01*
X0050655Y0147410D02*
X0023814Y0147410D01*
X0023814Y0146211D02*
X0050260Y0146211D01*
X0050267Y0145013D02*
X0023814Y0145013D01*
X0023814Y0143814D02*
X0050764Y0143814D01*
X0051141Y0142616D02*
X0023814Y0142616D01*
X0023814Y0141417D02*
X0051141Y0141417D01*
X0051141Y0140219D02*
X0023814Y0140219D01*
X0023814Y0139020D02*
X0030044Y0139020D01*
X0028715Y0137822D02*
X0023814Y0137822D01*
X0023814Y0136623D02*
X0027516Y0136623D01*
X0026318Y0135425D02*
X0023814Y0135425D01*
X0023814Y0134226D02*
X0025353Y0134226D01*
X0025107Y0133028D02*
X0023814Y0133028D01*
X0023814Y0131829D02*
X0025107Y0131829D01*
X0025107Y0130631D02*
X0023814Y0130631D01*
X0023814Y0129432D02*
X0025107Y0129432D01*
X0025107Y0128234D02*
X0023814Y0128234D01*
X0023814Y0127035D02*
X0025107Y0127035D01*
X0025107Y0125837D02*
X0023814Y0125837D01*
X0023814Y0124638D02*
X0025107Y0124638D01*
X0025107Y0123440D02*
X0023814Y0123440D01*
X0023814Y0122241D02*
X0025467Y0122241D01*
X0026195Y0121043D02*
X0023814Y0121043D01*
X0023814Y0119844D02*
X0026660Y0119844D01*
X0027744Y0118646D02*
X0023814Y0118646D01*
X0023814Y0117447D02*
X0038099Y0117447D01*
X0038099Y0116249D02*
X0023814Y0116249D01*
X0023814Y0115050D02*
X0038099Y0115050D01*
X0038099Y0113852D02*
X0023814Y0113852D01*
X0023814Y0112653D02*
X0038099Y0112653D01*
X0038099Y0111455D02*
X0023814Y0111455D01*
X0023814Y0110256D02*
X0038099Y0110256D01*
X0038099Y0109058D02*
X0023814Y0109058D01*
X0023814Y0107859D02*
X0038099Y0107859D01*
X0038099Y0106661D02*
X0023814Y0106661D01*
X0023814Y0105462D02*
X0038099Y0105462D01*
X0038099Y0104264D02*
X0023814Y0104264D01*
X0023814Y0103065D02*
X0038099Y0103065D01*
X0038099Y0101867D02*
X0023814Y0101867D01*
X0023814Y0100668D02*
X0038099Y0100668D01*
X0038099Y0099470D02*
X0023814Y0099470D01*
X0023814Y0098271D02*
X0038099Y0098271D01*
X0038099Y0097073D02*
X0023814Y0097073D01*
X0023814Y0095874D02*
X0038099Y0095874D01*
X0038462Y0094675D02*
X0023814Y0094675D01*
X0023814Y0093477D02*
X0026403Y0093477D01*
X0027807Y0093477D02*
X0027807Y0093477D01*
X0027807Y0092278D02*
X0027807Y0092278D01*
X0027807Y0091080D02*
X0027807Y0091080D01*
X0029212Y0093477D02*
X0039592Y0093477D01*
X0040791Y0092278D02*
X0030714Y0092278D01*
X0031280Y0091080D02*
X0042450Y0091080D01*
X0042768Y0094120D02*
X0046508Y0094120D01*
X0046705Y0094317D01*
X0054579Y0094317D01*
X0062453Y0094513D02*
X0062453Y0086246D01*
X0060017Y0083809D01*
X0037182Y0083809D01*
X0028201Y0074828D01*
X0028004Y0074631D01*
X0028004Y0065419D01*
X0032404Y0065911D02*
X0033604Y0065911D01*
X0033604Y0064713D02*
X0032404Y0064713D01*
X0032404Y0063514D02*
X0033604Y0063514D01*
X0033604Y0062316D02*
X0032404Y0062316D01*
X0032228Y0061117D02*
X0033781Y0061117D01*
X0034282Y0059919D02*
X0031726Y0059919D01*
X0030528Y0058720D02*
X0035344Y0058720D01*
X0035344Y0057522D02*
X0023814Y0057522D01*
X0023814Y0058720D02*
X0025480Y0058720D01*
X0024282Y0059919D02*
X0023814Y0059919D01*
X0023814Y0056323D02*
X0035344Y0056323D01*
X0035344Y0055125D02*
X0023814Y0055125D01*
X0023814Y0053926D02*
X0035344Y0053926D01*
X0035344Y0052728D02*
X0023814Y0052728D01*
X0023814Y0051529D02*
X0035344Y0051529D01*
X0035344Y0050331D02*
X0023814Y0050331D01*
X0023814Y0049132D02*
X0035344Y0049132D01*
X0035344Y0047934D02*
X0023814Y0047934D01*
X0023814Y0046735D02*
X0035344Y0046735D01*
X0035344Y0045537D02*
X0023814Y0045537D01*
X0023814Y0044338D02*
X0035344Y0044338D01*
X0035344Y0043139D02*
X0023814Y0043139D01*
X0023814Y0041941D02*
X0035344Y0041941D01*
X0035542Y0040742D02*
X0023814Y0040742D01*
X0023814Y0039544D02*
X0036439Y0039544D01*
X0037637Y0038345D02*
X0023814Y0038345D01*
X0023814Y0037147D02*
X0038836Y0037147D01*
X0040034Y0035948D02*
X0023814Y0035948D01*
X0023814Y0034750D02*
X0041233Y0034750D01*
X0042768Y0037033D02*
X0038044Y0041757D01*
X0038044Y0065380D01*
X0038004Y0065419D01*
X0033604Y0067110D02*
X0032404Y0067110D01*
X0032404Y0068308D02*
X0033604Y0068308D01*
X0033692Y0069507D02*
X0032316Y0069507D01*
X0031820Y0070705D02*
X0034189Y0070705D01*
X0035267Y0071904D02*
X0030742Y0071904D01*
X0025267Y0071904D02*
X0023814Y0071904D01*
X0023814Y0073102D02*
X0025040Y0073102D01*
X0024620Y0074301D02*
X0023814Y0074301D01*
X0023814Y0075499D02*
X0024620Y0075499D01*
X0025099Y0076698D02*
X0023814Y0076698D01*
X0023814Y0077896D02*
X0026250Y0077896D01*
X0028649Y0079095D02*
X0023814Y0079095D01*
X0023814Y0080293D02*
X0029848Y0080293D01*
X0031046Y0081492D02*
X0023814Y0081492D01*
X0023814Y0082690D02*
X0032245Y0082690D01*
X0033443Y0083889D02*
X0023814Y0083889D01*
X0023814Y0085087D02*
X0034642Y0085087D01*
X0036105Y0086286D02*
X0023814Y0086286D01*
X0023814Y0087484D02*
X0025441Y0087484D01*
X0024552Y0088683D02*
X0023814Y0088683D01*
X0023814Y0089881D02*
X0024226Y0089881D01*
X0024335Y0091080D02*
X0023814Y0091080D01*
X0023814Y0092278D02*
X0024901Y0092278D01*
X0040799Y0096088D02*
X0040799Y0117742D01*
X0038099Y0118646D02*
X0031807Y0118646D01*
X0032892Y0119844D02*
X0038099Y0119844D01*
X0038099Y0121043D02*
X0033357Y0121043D01*
X0033357Y0122241D02*
X0038099Y0122241D01*
X0037226Y0123440D02*
X0032923Y0123440D01*
X0031881Y0124638D02*
X0036028Y0124638D01*
X0033988Y0125837D02*
X0030507Y0125837D01*
X0030507Y0127035D02*
X0032385Y0127035D01*
X0031833Y0128234D02*
X0030507Y0128234D01*
X0030507Y0129432D02*
X0031744Y0129432D01*
X0030507Y0131072D02*
X0032925Y0133490D01*
X0038831Y0133490D01*
X0043555Y0128765D01*
X0059303Y0128765D01*
X0052610Y0136639D02*
X0031351Y0136639D01*
X0027807Y0133096D01*
X0027807Y0123647D01*
X0029776Y0121679D01*
X0038907Y0129432D02*
X0077438Y0129432D01*
X0077411Y0128234D02*
X0040069Y0128234D01*
X0041268Y0127035D02*
X0077806Y0127035D01*
X0077896Y0130631D02*
X0038592Y0130631D01*
X0037720Y0131829D02*
X0075737Y0131829D01*
X0074328Y0133028D02*
X0031557Y0133028D01*
X0030507Y0131829D02*
X0032931Y0131829D01*
X0024732Y0151006D02*
X0051232Y0151006D01*
X0050698Y0152204D02*
X0025931Y0152204D01*
X0027129Y0153403D02*
X0050608Y0153403D01*
X0045711Y0154601D02*
X0028328Y0154601D01*
X0029642Y0155800D02*
X0032272Y0155800D01*
X0033579Y0155800D02*
X0036209Y0155800D01*
X0037516Y0155800D02*
X0040146Y0155800D01*
X0041453Y0155800D02*
X0044083Y0155800D01*
X0055760Y0149807D02*
X0153096Y0149807D01*
X0152966Y0151006D02*
X0057139Y0151006D01*
X0057672Y0152204D02*
X0153248Y0152204D01*
X0156547Y0153403D02*
X0156548Y0153403D01*
X0155626Y0155800D02*
X0158256Y0155800D01*
X0156547Y0149807D02*
X0156548Y0149807D01*
X0156547Y0148608D02*
X0156548Y0148608D01*
X0153713Y0148608D02*
X0056040Y0148608D01*
X0057422Y0146211D02*
X0161538Y0146211D01*
X0160410Y0145013D02*
X0057414Y0145013D01*
X0056918Y0143814D02*
X0109052Y0143814D01*
X0108077Y0142616D02*
X0056541Y0142616D01*
X0077376Y0135027D02*
X0080507Y0138158D01*
X0079097Y0131829D02*
X0079014Y0131829D01*
X0084017Y0130631D02*
X0087665Y0130631D01*
X0086467Y0129432D02*
X0084476Y0129432D01*
X0084502Y0128234D02*
X0085268Y0128234D01*
X0084596Y0127035D02*
X0084108Y0127035D01*
X0084556Y0125837D02*
X0083020Y0125837D01*
X0089956Y0124638D02*
X0104241Y0124638D01*
X0104241Y0123440D02*
X0089956Y0123440D01*
X0089956Y0122241D02*
X0104241Y0122241D01*
X0104241Y0121043D02*
X0089956Y0121043D01*
X0089956Y0119844D02*
X0104241Y0119844D01*
X0104241Y0118646D02*
X0089956Y0118646D01*
X0089956Y0117447D02*
X0104241Y0117447D01*
X0104241Y0116249D02*
X0089956Y0116249D01*
X0089956Y0115050D02*
X0104241Y0115050D01*
X0104241Y0113852D02*
X0089956Y0113852D01*
X0089956Y0112653D02*
X0104241Y0112653D01*
X0104241Y0111455D02*
X0089956Y0111455D01*
X0089956Y0110256D02*
X0104241Y0110256D01*
X0104241Y0109058D02*
X0089956Y0109058D01*
X0089956Y0107859D02*
X0104525Y0107859D01*
X0105543Y0106661D02*
X0089956Y0106661D01*
X0089956Y0105462D02*
X0106741Y0105462D01*
X0113410Y0098227D02*
X0116622Y0101438D01*
X0116622Y0109690D01*
X0119739Y0107859D02*
X0150736Y0107859D01*
X0155273Y0107859D02*
X0155422Y0107859D01*
X0155422Y0106661D02*
X0119322Y0106661D01*
X0119322Y0105462D02*
X0155422Y0105462D01*
X0155422Y0104264D02*
X0119322Y0104264D01*
X0119322Y0103065D02*
X0155422Y0103065D01*
X0155422Y0101867D02*
X0119322Y0101867D01*
X0119225Y0100668D02*
X0155422Y0100668D01*
X0155422Y0099470D02*
X0118472Y0099470D01*
X0117273Y0098271D02*
X0155422Y0098271D01*
X0155422Y0097073D02*
X0116075Y0097073D01*
X0114786Y0095874D02*
X0155422Y0095874D01*
X0155253Y0094675D02*
X0091754Y0094675D01*
X0090185Y0094675D02*
X0080451Y0094675D01*
X0080451Y0093477D02*
X0154055Y0093477D01*
X0152856Y0092278D02*
X0114687Y0092278D01*
X0111794Y0092278D02*
X0080451Y0092278D01*
X0077751Y0090970D02*
X0079720Y0089002D01*
X0113240Y0089002D01*
X0113240Y0077584D01*
X0110878Y0075222D01*
X0110878Y0055143D01*
X0110878Y0037033D01*
X0042768Y0037033D01*
X0042877Y0040742D02*
X0108178Y0040742D01*
X0108178Y0041941D02*
X0041678Y0041941D01*
X0040744Y0043139D02*
X0108178Y0043139D01*
X0108178Y0044338D02*
X0040744Y0044338D01*
X0040744Y0045537D02*
X0108178Y0045537D01*
X0108178Y0046735D02*
X0040744Y0046735D01*
X0040744Y0047934D02*
X0108178Y0047934D01*
X0108178Y0049132D02*
X0040744Y0049132D01*
X0040744Y0050331D02*
X0108178Y0050331D01*
X0108178Y0051529D02*
X0040744Y0051529D01*
X0040744Y0052728D02*
X0108178Y0052728D01*
X0107506Y0053926D02*
X0040744Y0053926D01*
X0040744Y0055125D02*
X0107297Y0055125D01*
X0107491Y0056323D02*
X0040744Y0056323D01*
X0041820Y0070705D02*
X0044006Y0070705D01*
X0044984Y0071904D02*
X0040742Y0071904D01*
X0024189Y0070705D02*
X0023814Y0070705D01*
X0042768Y0094120D02*
X0040799Y0096088D01*
X0046705Y0101797D02*
X0046705Y0110065D01*
X0054579Y0110065D01*
X0055179Y0110256D02*
X0061853Y0110256D01*
X0061853Y0109058D02*
X0063053Y0109058D01*
X0063053Y0110256D02*
X0069727Y0110256D01*
X0070327Y0110065D02*
X0070327Y0101797D01*
X0072492Y0101797D01*
X0070927Y0101867D02*
X0075051Y0101867D01*
X0074880Y0102397D02*
X0074880Y0104567D01*
X0074771Y0104973D01*
X0074560Y0105338D01*
X0074262Y0105636D01*
X0073897Y0105847D01*
X0073584Y0105931D01*
X0073897Y0106015D01*
X0074262Y0106225D01*
X0074560Y0106523D01*
X0074771Y0106888D01*
X0074880Y0107295D01*
X0074880Y0109465D01*
X0070927Y0109465D01*
X0070927Y0102397D01*
X0074880Y0102397D01*
X0074880Y0103065D02*
X0075051Y0103065D01*
X0075051Y0104264D02*
X0074880Y0104264D01*
X0075051Y0105462D02*
X0074436Y0105462D01*
X0074639Y0106661D02*
X0075051Y0106661D01*
X0075051Y0107859D02*
X0074880Y0107859D01*
X0074880Y0109058D02*
X0075051Y0109058D01*
X0075051Y0110256D02*
X0070927Y0110256D01*
X0070927Y0109058D02*
X0069727Y0109058D01*
X0069727Y0107859D02*
X0070927Y0107859D01*
X0070927Y0106661D02*
X0069727Y0106661D01*
X0069727Y0105462D02*
X0070927Y0105462D01*
X0070927Y0104264D02*
X0069727Y0104264D01*
X0069727Y0103065D02*
X0070927Y0103065D01*
X0069727Y0101867D02*
X0064776Y0101867D01*
X0065153Y0100668D02*
X0065774Y0100668D01*
X0065774Y0099470D02*
X0065153Y0099470D01*
X0065153Y0098271D02*
X0066085Y0098271D01*
X0065974Y0097073D02*
X0065153Y0097073D01*
X0062453Y0094513D02*
X0062650Y0094317D01*
X0070327Y0094317D01*
X0069933Y0094317D01*
X0074680Y0094675D02*
X0075051Y0094675D01*
X0075051Y0093477D02*
X0074680Y0093477D01*
X0074680Y0092278D02*
X0075051Y0092278D01*
X0075051Y0091080D02*
X0074582Y0091080D01*
X0075280Y0089881D02*
X0065153Y0089881D01*
X0065153Y0088683D02*
X0076220Y0088683D01*
X0076222Y0088681D02*
X0076222Y0088681D01*
X0077419Y0087484D02*
X0065153Y0087484D01*
X0065153Y0086286D02*
X0110540Y0086286D01*
X0110540Y0085087D02*
X0064896Y0085087D01*
X0063915Y0083889D02*
X0110540Y0083889D01*
X0110540Y0082690D02*
X0062716Y0082690D01*
X0061477Y0081492D02*
X0110540Y0081492D01*
X0113240Y0089002D02*
X0153398Y0089002D01*
X0158122Y0093726D01*
X0158122Y0110655D01*
X0156482Y0113852D02*
X0156082Y0113852D01*
X0157281Y0115050D02*
X0175895Y0115050D01*
X0175895Y0140219D02*
X0165247Y0140219D01*
X0166449Y0141417D02*
X0175895Y0141417D01*
X0175895Y0142616D02*
X0166915Y0142616D01*
X0166915Y0143814D02*
X0175895Y0143814D01*
X0175895Y0145013D02*
X0166465Y0145013D01*
X0165337Y0146211D02*
X0175895Y0146211D01*
X0113410Y0098227D02*
X0090969Y0098227D01*
X0087388Y0098271D02*
X0080451Y0098271D01*
X0080451Y0097073D02*
X0087571Y0097073D01*
X0088258Y0095874D02*
X0080451Y0095874D01*
X0080451Y0099470D02*
X0085334Y0099470D01*
X0077751Y0102781D02*
X0077751Y0090970D01*
X0075051Y0095874D02*
X0074680Y0095874D01*
X0074680Y0097073D02*
X0075051Y0097073D01*
X0075051Y0098271D02*
X0074569Y0098271D01*
X0074880Y0099470D02*
X0075051Y0099470D01*
X0075051Y0100668D02*
X0074880Y0100668D01*
X0065774Y0103065D02*
X0063625Y0103065D01*
X0062175Y0104264D02*
X0065774Y0104264D01*
X0066218Y0105462D02*
X0058405Y0105462D01*
X0061853Y0106661D02*
X0063053Y0106661D01*
X0063053Y0107859D02*
X0061853Y0107859D01*
X0061075Y0101797D02*
X0062453Y0100419D01*
X0062453Y0094513D01*
X0065153Y0091080D02*
X0066072Y0091080D01*
X0047305Y0102397D02*
X0046105Y0102397D01*
X0046105Y0109465D01*
X0047305Y0109465D01*
X0047305Y0105906D01*
X0047305Y0102397D01*
X0047305Y0103065D02*
X0046105Y0103065D01*
X0046105Y0104264D02*
X0047305Y0104264D01*
X0047305Y0105462D02*
X0046105Y0105462D01*
X0046105Y0106661D02*
X0047305Y0106661D01*
X0047305Y0107859D02*
X0046105Y0107859D01*
X0046105Y0109058D02*
X0047305Y0109058D01*
X0047305Y0110256D02*
X0053979Y0110256D01*
X0074314Y0113852D02*
X0075051Y0113852D01*
X0075051Y0112653D02*
X0074880Y0112653D01*
X0074880Y0111455D02*
X0075051Y0111455D01*
X0090508Y0125837D02*
X0104241Y0125837D01*
X0103004Y0127035D02*
X0103004Y0127035D01*
X0103004Y0128234D02*
X0103004Y0128234D01*
X0103004Y0129432D02*
X0103004Y0129432D01*
X0101625Y0127035D02*
X0091707Y0127035D01*
X0146966Y0085087D02*
X0175895Y0085087D01*
X0175895Y0083889D02*
X0147065Y0083889D01*
X0147065Y0082690D02*
X0175895Y0082690D01*
X0175895Y0081492D02*
X0146954Y0081492D01*
X0146383Y0080293D02*
X0175895Y0080293D01*
X0175895Y0079095D02*
X0147065Y0079095D01*
X0147065Y0077896D02*
X0175895Y0077896D01*
X0175895Y0076698D02*
X0146854Y0076698D01*
X0146503Y0075499D02*
X0175895Y0075499D01*
X0175895Y0074301D02*
X0147065Y0074301D01*
X0147065Y0073102D02*
X0175895Y0073102D01*
X0175895Y0071904D02*
X0147065Y0071904D01*
X0146759Y0070705D02*
X0175895Y0070705D01*
X0175895Y0069507D02*
X0146806Y0069507D01*
X0147065Y0068308D02*
X0175895Y0068308D01*
X0175895Y0067110D02*
X0147065Y0067110D01*
X0147065Y0065911D02*
X0175895Y0065911D01*
X0175895Y0064713D02*
X0146497Y0064713D01*
X0146596Y0063514D02*
X0175895Y0063514D01*
X0175895Y0062316D02*
X0147065Y0062316D01*
X0147065Y0061117D02*
X0175895Y0061117D01*
X0175895Y0059919D02*
X0146641Y0059919D01*
X0148539Y0058720D02*
X0175895Y0058720D01*
X0175895Y0057522D02*
X0149199Y0057522D01*
X0149089Y0056323D02*
X0175895Y0056323D01*
X0175895Y0055125D02*
X0148252Y0055125D01*
X0147065Y0053926D02*
X0175895Y0053926D01*
X0175895Y0052728D02*
X0147065Y0052728D01*
X0147065Y0051529D02*
X0175895Y0051529D01*
X0175895Y0050331D02*
X0146806Y0050331D01*
X0146609Y0049132D02*
X0175895Y0049132D01*
X0175895Y0047934D02*
X0147065Y0047934D01*
X0147065Y0046735D02*
X0175895Y0046735D01*
X0175895Y0045537D02*
X0146628Y0045537D01*
X0147904Y0044338D02*
X0175895Y0044338D01*
X0175895Y0043139D02*
X0149007Y0043139D01*
X0149199Y0041941D02*
X0175895Y0041941D01*
X0175895Y0040742D02*
X0148737Y0040742D01*
X0146830Y0039544D02*
X0175895Y0039544D01*
X0175895Y0038345D02*
X0147065Y0038345D01*
X0147065Y0037731D02*
X0147065Y0037731D01*
X0147065Y0037147D02*
X0175895Y0037147D01*
X0175895Y0035948D02*
X0146916Y0035948D01*
X0148079Y0034991D02*
X0148079Y0034991D01*
X0148079Y0034991D01*
X0148218Y0034750D02*
X0175895Y0034750D01*
X0175895Y0033551D02*
X0148910Y0033551D01*
X0149199Y0032353D02*
X0175895Y0032353D01*
X0175895Y0031154D02*
X0149199Y0031154D01*
X0149199Y0029956D02*
X0175573Y0029956D01*
X0174375Y0028757D02*
X0148795Y0028757D01*
X0138402Y0028757D02*
X0138295Y0028757D01*
X0111724Y0025162D02*
X0095859Y0025162D01*
X0097879Y0023963D02*
X0097893Y0023963D01*
X0101816Y0023963D02*
X0101830Y0023963D01*
X0105753Y0023963D02*
X0105767Y0023963D01*
X0109690Y0023963D02*
X0109704Y0023963D01*
X0075480Y0058720D02*
X0070528Y0058720D01*
X0071726Y0059919D02*
X0074282Y0059919D01*
X0073781Y0061117D02*
X0072228Y0061117D01*
X0072404Y0062316D02*
X0073604Y0062316D01*
X0073604Y0063514D02*
X0072404Y0063514D01*
X0072404Y0064713D02*
X0073604Y0064713D01*
X0073604Y0065911D02*
X0072404Y0065911D01*
X0072404Y0067110D02*
X0073604Y0067110D01*
X0073604Y0068308D02*
X0072404Y0068308D01*
X0072316Y0069507D02*
X0073692Y0069507D01*
X0074189Y0070705D02*
X0071846Y0070705D01*
X0071846Y0071904D02*
X0075267Y0071904D01*
X0063604Y0067110D02*
X0063513Y0067110D01*
D14*
X0062847Y0074828D03*
X0069146Y0074828D03*
X0090969Y0098227D03*
X0087256Y0102550D03*
X0112453Y0107112D03*
X0116622Y0109690D03*
X0112453Y0112230D03*
X0103004Y0130340D03*
X0095524Y0130734D03*
X0080957Y0128765D03*
X0077376Y0135027D03*
X0053841Y0145744D03*
X0054185Y0153031D03*
X0035325Y0129159D03*
X0029776Y0121679D03*
X0027807Y0090183D03*
X0028201Y0074828D03*
X0110878Y0055143D03*
X0110878Y0037033D03*
X0113240Y0089002D03*
X0153004Y0110655D03*
X0158122Y0110655D03*
X0153004Y0129159D03*
X0156548Y0150813D03*
X0111272Y0140970D03*
M02*
