G75*
%MOIN*%
%OFA0B0*%
%FSLAX25Y25*%
%IPPOS*%
%LPD*%
%AMOC8*
5,1,8,0,0,1.08239X$1,22.5*
%
%ADD10R,0.04724X0.04724*%
%ADD11R,0.05906X0.05118*%
%ADD12R,0.05807X0.02362*%
%ADD13R,0.02362X0.05807*%
%ADD14R,0.05118X0.05906*%
%ADD15R,0.04567X0.03150*%
%ADD16R,0.04921X0.04134*%
%ADD17R,0.08661X0.03937*%
%ADD18R,0.09843X0.03937*%
%ADD19R,0.04567X0.07874*%
%ADD20R,0.04567X0.06299*%
%ADD21R,0.01181X0.01772*%
%ADD22R,0.01772X0.01181*%
%ADD23R,0.05200X0.02200*%
%ADD24C,0.06000*%
%ADD25R,0.07800X0.02200*%
%ADD26R,0.07087X0.03937*%
%ADD27R,0.02165X0.04724*%
%ADD28R,0.05315X0.01575*%
%ADD29R,0.07480X0.07087*%
%ADD30R,0.07480X0.07480*%
%ADD31R,0.03937X0.04331*%
%ADD32R,0.07200X0.20000*%
%ADD33R,0.20000X0.07200*%
D10*
X0144540Y0133096D03*
X0152807Y0133096D03*
X0153004Y0125419D03*
X0153004Y0117151D03*
X0152807Y0140970D03*
X0144540Y0140970D03*
X0055957Y0136246D03*
X0047689Y0136246D03*
D11*
X0029382Y0143529D03*
X0029382Y0151009D03*
X0027807Y0103372D03*
X0027807Y0095891D03*
X0097492Y0117545D03*
X0097492Y0125025D03*
X0105366Y0125025D03*
X0105366Y0117545D03*
X0113240Y0117545D03*
X0113240Y0125025D03*
X0136862Y0125025D03*
X0136862Y0117545D03*
X0144736Y0117545D03*
X0144736Y0125025D03*
X0113240Y0101797D03*
X0113240Y0094317D03*
D12*
X0081107Y0093332D03*
X0081107Y0090183D03*
X0081107Y0096482D03*
X0081107Y0099631D03*
X0081107Y0102781D03*
X0081107Y0105931D03*
X0081107Y0109080D03*
X0081107Y0112230D03*
X0081107Y0115380D03*
X0081107Y0118529D03*
X0081107Y0121679D03*
X0035925Y0121679D03*
X0035925Y0118529D03*
X0035925Y0115380D03*
X0035925Y0112230D03*
X0035925Y0109080D03*
X0035925Y0105931D03*
X0035925Y0102781D03*
X0035925Y0099631D03*
X0035925Y0096482D03*
X0035925Y0093332D03*
X0035925Y0090183D03*
D13*
X0042768Y0083340D03*
X0045918Y0083340D03*
X0049067Y0083340D03*
X0052217Y0083340D03*
X0055366Y0083340D03*
X0058516Y0083340D03*
X0061666Y0083340D03*
X0064815Y0083340D03*
X0067965Y0083340D03*
X0071114Y0083340D03*
X0074264Y0083340D03*
X0074264Y0128521D03*
X0071114Y0128521D03*
X0067965Y0128521D03*
X0064815Y0128521D03*
X0061666Y0128521D03*
X0058516Y0128521D03*
X0055366Y0128521D03*
X0052217Y0128521D03*
X0049067Y0128521D03*
X0045918Y0128521D03*
X0042768Y0128521D03*
D14*
X0062650Y0136246D03*
X0070130Y0136246D03*
X0113437Y0133096D03*
X0120918Y0133096D03*
X0129185Y0133096D03*
X0136666Y0133096D03*
X0136666Y0140970D03*
X0129185Y0140970D03*
X0165406Y0109868D03*
X0172886Y0109868D03*
X0172886Y0101994D03*
X0165406Y0101994D03*
X0165406Y0094120D03*
X0172886Y0094120D03*
X0105170Y0094120D03*
X0097689Y0094120D03*
X0097689Y0086246D03*
X0105170Y0086246D03*
X0105170Y0078372D03*
X0097689Y0078372D03*
X0097689Y0069710D03*
X0105170Y0069710D03*
X0104776Y0036639D03*
X0097296Y0036639D03*
D15*
X0115996Y0037820D03*
X0115996Y0042151D03*
X0115996Y0046482D03*
X0115996Y0050813D03*
X0115996Y0055143D03*
X0115996Y0059474D03*
X0115996Y0063805D03*
X0115996Y0068135D03*
D16*
X0122866Y0029612D03*
X0158792Y0029612D03*
D17*
X0167453Y0027978D03*
D18*
X0166862Y0085458D03*
D19*
X0115996Y0080380D03*
D20*
X0115996Y0032151D03*
D21*
X0042374Y0141659D03*
X0040012Y0141659D03*
X0040012Y0152880D03*
X0042374Y0152880D03*
D22*
X0046803Y0149631D03*
X0046803Y0147269D03*
X0046803Y0144907D03*
X0035583Y0144907D03*
X0035583Y0147269D03*
X0035583Y0149631D03*
D23*
X0096029Y0109237D03*
X0096029Y0101837D03*
X0106829Y0101837D03*
X0106829Y0105537D03*
X0106829Y0109237D03*
D24*
X0028004Y0068419D02*
X0028004Y0062419D01*
X0038004Y0062419D02*
X0038004Y0068419D01*
X0048004Y0068419D02*
X0048004Y0062419D01*
X0058004Y0062419D02*
X0058004Y0068419D01*
X0068004Y0068419D02*
X0068004Y0062419D01*
X0078004Y0062419D02*
X0078004Y0068419D01*
D25*
X0124013Y0094494D03*
X0124013Y0099494D03*
X0124013Y0104494D03*
X0124013Y0109494D03*
X0143413Y0109494D03*
X0143413Y0104494D03*
X0143413Y0099494D03*
X0143413Y0094494D03*
D26*
X0155760Y0094317D03*
X0155760Y0104159D03*
D27*
X0128792Y0116167D03*
X0121311Y0116167D03*
X0121311Y0126403D03*
X0125051Y0126403D03*
X0128792Y0126403D03*
D28*
X0162551Y0129946D03*
X0162551Y0132506D03*
X0162551Y0135065D03*
X0162551Y0137624D03*
X0162551Y0140183D03*
D29*
X0173083Y0150813D03*
X0173083Y0119317D03*
D30*
X0173083Y0130340D03*
X0173083Y0139789D03*
D31*
X0122492Y0140970D03*
X0115799Y0140970D03*
D32*
X0104579Y0143726D03*
X0094736Y0143726D03*
D33*
X0120721Y0150025D03*
X0143162Y0150025D03*
M02*
