%
M48
M72
T24C0.0240
T28C0.0280
T40C0.0400
T138C0.1380
%
T24
X2820Y7483
X2781Y9018
X6285Y7483
X6915Y7483
X9097Y9823
X8726Y10255
X11245Y10711
X11662Y10969
X11245Y11223
X10300Y13034
X9552Y13073
X8096Y12877
X7738Y13503
X5384Y14574
X5419Y15303
X4474Y15908
X4080Y15908
X3686Y15908
X3293Y15908
X2899Y15908
X3533Y12916
X2978Y12168
X11127Y14097
X15300Y12916
X15300Y11066
X15812Y11066
X15655Y15081
X15497Y15908
X15891Y15908
X16285Y15908
X16678Y15908
X17072Y15908
X11324Y8900
X11088Y5514
X11088Y3703
X11167Y2129
X10773Y2129
X10379Y2129
X9985Y2129
X9592Y2129
X15497Y2129
X15891Y2129
X16285Y2129
X16678Y2129
X17072Y2129
T28
X16344Y12690
X16344Y14323
T40
X2800Y6542
X3800Y6542
X4800Y6542
X5800Y6542
X6800Y6542
X7800Y6542
T138
X10379Y1144
X16285Y1144
X16285Y16892
X3686Y16892
M30
